<mxfile host="app.diagrams.net" agent="Mozilla/5.0 (Macintosh; Intel Mac OS X 10_15_7) AppleWebKit/537.36 (KHTML, like Gecko) Chrome/131.0.0.0 Safari/537.36" version="26.0.6">
  <diagram id="wFE0QG_FPsp0jaGvCLVb" name="Page-1">
    <mxGraphModel dx="1434" dy="761" grid="1" gridSize="10" guides="1" tooltips="1" connect="1" arrows="1" fold="1" page="1" pageScale="1" pageWidth="850" pageHeight="1100" math="0" shadow="0">
      <root>
        <mxCell id="0" />
        <mxCell id="1" parent="0" />
        <mxCell id="rIvgRYuvJBHSXA2jkPJr-1" value="&lt;div&gt;&lt;font style=&quot;color: rgb(255, 255, 255);&quot;&gt;主图1&lt;/font&gt;&lt;/div&gt;&lt;font style=&quot;color: rgb(255, 255, 255);&quot;&gt;1. HEX:FF2168&lt;/font&gt;&lt;div&gt;&lt;span style=&quot;color: light-dark(rgb(255, 255, 255), rgb(18, 18, 18)); background-color: transparent;&quot;&gt;2. RGB:255,033,104&lt;/span&gt;&lt;div&gt;&lt;font style=&quot;color: rgb(255, 255, 255);&quot;&gt;3. 模特穿着产品的图；&lt;/font&gt;&lt;/div&gt;&lt;div&gt;&lt;font style=&quot;color: rgb(255, 255, 255);&quot;&gt;4. 背景图中间比较亮；&lt;/font&gt;&lt;/div&gt;&lt;/div&gt;" style="whiteSpace=wrap;html=1;aspect=fixed;fillColor=#FF2168;align=left;" vertex="1" parent="1">
          <mxGeometry x="120" y="140" width="220" height="220" as="geometry" />
        </mxCell>
        <mxCell id="rIvgRYuvJBHSXA2jkPJr-2" value="&lt;div&gt;&lt;font style=&quot;color: rgb(255, 255, 255);&quot;&gt;主图2&lt;/font&gt;&lt;/div&gt;&lt;font style=&quot;color: rgb(255, 255, 255);&quot;&gt;1. HEX:FF2168&lt;/font&gt;&lt;div&gt;&lt;span style=&quot;color: light-dark(rgb(255, 255, 255), rgb(18, 18, 18)); background-color: transparent;&quot;&gt;2. RGB:255,033,104&lt;/span&gt;&lt;div&gt;&lt;font style=&quot;color: rgb(255, 255, 255);&quot;&gt;3. 模特穿着产品的图；&lt;/font&gt;&lt;/div&gt;&lt;div&gt;&lt;font style=&quot;color: rgb(255, 255, 255);&quot;&gt;4. 背景图中间比较亮；&lt;/font&gt;&lt;/div&gt;&lt;/div&gt;" style="whiteSpace=wrap;html=1;aspect=fixed;fillColor=#FF2168;align=left;" vertex="1" parent="1">
          <mxGeometry x="120" y="430" width="220" height="220" as="geometry" />
        </mxCell>
        <mxCell id="rIvgRYuvJBHSXA2jkPJr-4" value="&lt;b&gt;&lt;font style=&quot;font-size: 45px;&quot;&gt;产品主图&lt;/font&gt;&lt;/b&gt;" style="text;html=1;align=center;verticalAlign=middle;resizable=0;points=[];autosize=1;strokeColor=none;fillColor=none;" vertex="1" parent="1">
          <mxGeometry x="30" y="30" width="200" height="70" as="geometry" />
        </mxCell>
        <mxCell id="rIvgRYuvJBHSXA2jkPJr-5" value="&lt;b&gt;&lt;font style=&quot;font-size: 45px;&quot;&gt;产品详情页&lt;/font&gt;&lt;/b&gt;" style="text;html=1;align=center;verticalAlign=middle;resizable=0;points=[];autosize=1;strokeColor=none;fillColor=none;" vertex="1" parent="1">
          <mxGeometry x="30" y="1580" width="250" height="70" as="geometry" />
        </mxCell>
        <mxCell id="rIvgRYuvJBHSXA2jkPJr-6" value="&lt;div&gt;&lt;font style=&quot;color: rgb(255, 255, 255);&quot;&gt;主图3&lt;/font&gt;&lt;/div&gt;&lt;font style=&quot;color: rgb(255, 255, 255);&quot;&gt;1. HEX:FF2168&lt;/font&gt;&lt;div&gt;&lt;span style=&quot;color: light-dark(rgb(255, 255, 255), rgb(18, 18, 18)); background-color: transparent;&quot;&gt;2. RGB:255,033,104&lt;/span&gt;&lt;div&gt;&lt;font style=&quot;color: rgb(255, 255, 255);&quot;&gt;3. 模特穿着产品的图；&lt;/font&gt;&lt;/div&gt;&lt;div&gt;&lt;font style=&quot;color: rgb(255, 255, 255);&quot;&gt;4. 背景图中间比较亮；&lt;/font&gt;&lt;/div&gt;&lt;/div&gt;" style="whiteSpace=wrap;html=1;aspect=fixed;fillColor=#FF2168;align=left;" vertex="1" parent="1">
          <mxGeometry x="120" y="720" width="220" height="220" as="geometry" />
        </mxCell>
        <mxCell id="rIvgRYuvJBHSXA2jkPJr-7" value="&lt;div&gt;&lt;font style=&quot;color: rgb(255, 255, 255);&quot;&gt;主图4&lt;/font&gt;&lt;/div&gt;&lt;font style=&quot;color: rgb(255, 255, 255);&quot;&gt;1. HEX:FF2168&lt;/font&gt;&lt;div&gt;&lt;span style=&quot;color: light-dark(rgb(255, 255, 255), rgb(18, 18, 18)); background-color: transparent;&quot;&gt;2. RGB:255,033,104&lt;/span&gt;&lt;div&gt;&lt;font style=&quot;color: rgb(255, 255, 255);&quot;&gt;3. 模特穿着产品的图；&lt;/font&gt;&lt;/div&gt;&lt;div&gt;&lt;font style=&quot;color: rgb(255, 255, 255);&quot;&gt;4. 背景图中间比较亮；&lt;/font&gt;&lt;/div&gt;&lt;/div&gt;" style="whiteSpace=wrap;html=1;aspect=fixed;fillColor=#FF2168;align=left;" vertex="1" parent="1">
          <mxGeometry x="120" y="1010" width="220" height="220" as="geometry" />
        </mxCell>
        <mxCell id="rIvgRYuvJBHSXA2jkPJr-8" value="&lt;div&gt;&lt;font style=&quot;color: rgb(255, 255, 255);&quot;&gt;主图5&lt;/font&gt;&lt;/div&gt;&lt;font style=&quot;color: rgb(255, 255, 255);&quot;&gt;1. HEX:FF2168&lt;/font&gt;&lt;div&gt;&lt;span style=&quot;color: light-dark(rgb(255, 255, 255), rgb(18, 18, 18)); background-color: transparent;&quot;&gt;2. RGB:255,033,104&lt;/span&gt;&lt;div&gt;&lt;font style=&quot;color: rgb(255, 255, 255);&quot;&gt;3. 模特穿着产品的图；&lt;/font&gt;&lt;/div&gt;&lt;div&gt;&lt;font style=&quot;color: rgb(255, 255, 255);&quot;&gt;4. 背景图中间比较亮；&lt;/font&gt;&lt;/div&gt;&lt;/div&gt;" style="whiteSpace=wrap;html=1;aspect=fixed;fillColor=#FF2168;align=left;" vertex="1" parent="1">
          <mxGeometry x="120" y="1300" width="220" height="220" as="geometry" />
        </mxCell>
        <mxCell id="rIvgRYuvJBHSXA2jkPJr-9" value="&lt;font style=&quot;color: rgb(0, 0, 0);&quot;&gt;品牌海报&lt;/font&gt;" style="rounded=1;whiteSpace=wrap;html=1;fillColor=#f5f5f5;fontColor=#333333;strokeColor=#666666;" vertex="1" parent="1">
          <mxGeometry x="120" y="1700" width="390" height="140" as="geometry" />
        </mxCell>
        <mxCell id="rIvgRYuvJBHSXA2jkPJr-10" value="&lt;font color=&quot;#000000&quot;&gt;产品责任人&lt;/font&gt;&lt;div&gt;&lt;font color=&quot;#000000&quot;&gt;1. 服装设计师；&lt;/font&gt;&lt;/div&gt;&lt;div&gt;&lt;font color=&quot;#000000&quot;&gt;2. 广告设计师；&lt;/font&gt;&lt;/div&gt;&lt;div&gt;&lt;font color=&quot;#000000&quot;&gt;3. 实验室检测员；&lt;/font&gt;&lt;/div&gt;&lt;div&gt;&lt;font color=&quot;#000000&quot;&gt;4. 质量检测员；&lt;/font&gt;&lt;/div&gt;" style="rounded=1;whiteSpace=wrap;html=1;fillColor=#f5f5f5;fontColor=#333333;strokeColor=#666666;align=left;" vertex="1" parent="1">
          <mxGeometry x="120" y="1850" width="390" height="140" as="geometry" />
        </mxCell>
        <mxCell id="rIvgRYuvJBHSXA2jkPJr-11" value="&lt;font color=&quot;#000000&quot;&gt;产品平面图&lt;/font&gt;" style="rounded=1;whiteSpace=wrap;html=1;fillColor=#f5f5f5;fontColor=#333333;strokeColor=#666666;" vertex="1" parent="1">
          <mxGeometry x="120" y="2000" width="390" height="290" as="geometry" />
        </mxCell>
        <mxCell id="rIvgRYuvJBHSXA2jkPJr-12" value="&lt;font color=&quot;#000000&quot;&gt;模特海报&lt;/font&gt;" style="rounded=1;whiteSpace=wrap;html=1;fillColor=#f5f5f5;fontColor=#333333;strokeColor=#666666;" vertex="1" parent="1">
          <mxGeometry x="120" y="2300" width="390" height="290" as="geometry" />
        </mxCell>
        <mxCell id="rIvgRYuvJBHSXA2jkPJr-13" value="&lt;font color=&quot;#000000&quot;&gt;············ 模特海报 ············&lt;/font&gt;" style="rounded=1;whiteSpace=wrap;html=1;fillColor=#f5f5f5;fontColor=#333333;strokeColor=#666666;" vertex="1" parent="1">
          <mxGeometry x="120" y="2600" width="390" height="30" as="geometry" />
        </mxCell>
        <mxCell id="rIvgRYuvJBHSXA2jkPJr-14" value="&lt;font color=&quot;#000000&quot;&gt;模特海报&lt;/font&gt;" style="rounded=1;whiteSpace=wrap;html=1;fillColor=#f5f5f5;fontColor=#333333;strokeColor=#666666;" vertex="1" parent="1">
          <mxGeometry x="120" y="2640" width="390" height="290" as="geometry" />
        </mxCell>
        <mxCell id="rIvgRYuvJBHSXA2jkPJr-15" value="" style="rounded=1;whiteSpace=wrap;html=1;fillColor=#f5f5f5;fontColor=#333333;strokeColor=#666666;" vertex="1" parent="1">
          <mxGeometry x="120" y="2940" width="390" height="480" as="geometry" />
        </mxCell>
        <mxCell id="rIvgRYuvJBHSXA2jkPJr-18" value="" style="shape=image;imageAspect=0;aspect=fixed;verticalLabelPosition=bottom;verticalAlign=top;image=data:image/jpeg,/9j/4AAQSkZJRgABAQAASABIAAD/4T70RXhpZgAATU0AKgAAAAgABgESAAMAAAABAAEAAAEaAAUAAAABAAAAVgEbAAUAAAABAAAAXgEoAAMAAAABAAIAAAITAAMAAAABAAEAAIdpAAQAAAABAAAAZgAAAMAAAABIAAAAAQAAAEgAAAABAAeQAAAHAAAABDAyMjGRAQAHAAAABAECAwCgAAAHAAAABDAxMDCgAQADAAAAAQABAACgAgAEAAAAAQAAAxagAwAEAAAAAQAAA7qkBgADAAAAAQAAAAAAAAAAAAYBAwADAAAAAQAGAAABGgAFAAAAAQAAAQ4BGwAFAAAAAQAAARYBKAADAAAAAQACAAACAQAEAAAAAQAAAR4CAgAEAAAAAQAAPcwAAAAAAAAASAAAAAEAAABIAAAAAf/Y/9sAhAABAQEBAQECAQECAwICAgMEAwMDAwQFBAQEBAQFBgUFBQUFBQYGBgYGBgYGBwcHBwcHCAgICAgJCQkJCQkJCQkJAQEBAQICAgQCAgQJBgUGCQkJCQkJCQkJCQkJCQkJCQkJCQkJCQkJCQkJCQkJCQkJCQkJCQkJCQkJCQkJCQkJCQn/3QAEAAn/wAARCACgAIQDASIAAhEBAxEB/8QBogAAAQUBAQEBAQEAAAAAAAAAAAECAwQFBgcICQoLEAACAQMDAgQDBQUEBAAAAX0BAgMABBEFEiExQQYTUWEHInEUMoGRoQgjQrHBFVLR8CQzYnKCCQoWFxgZGiUmJygpKjQ1Njc4OTpDREVGR0hJSlNUVVZXWFlaY2RlZmdoaWpzdHV2d3h5eoOEhYaHiImKkpOUlZaXmJmaoqOkpaanqKmqsrO0tba3uLm6wsPExcbHyMnK0tPU1dbX2Nna4eLj5OXm5+jp6vHy8/T19vf4+foBAAMBAQEBAQEBAQEAAAAAAAABAgMEBQYHCAkKCxEAAgECBAQDBAcFBAQAAQJ3AAECAxEEBSExBhJBUQdhcRMiMoEIFEKRobHBCSMzUvAVYnLRChYkNOEl8RcYGRomJygpKjU2Nzg5OkNERUZHSElKU1RVVldYWVpjZGVmZ2hpanN0dXZ3eHl6goOEhYaHiImKkpOUlZaXmJmaoqOkpaanqKmqsrO0tba3uLm6wsPExcbHyMnK0tPU1dbX2Nna4uPk5ebn6Onq8vP09fb3+Pn6/9oADAMBAAIRAxEAPwD+/iiiigAooooAKK5XxzF4vn8E6xB8PpbeDX3sbhdNkugWgS8MbCBpQOTGJNpYD+Gv509S+Hf/AAWqPgnwrF4YvPGEWux6dIlw97rHhh4o/Ff2i2Mt7qOyIifw00Im+zWtsoul+YPGGeMxgH9K1FfzZ+I/Dv8AwW68Q+DtF0bT4/EOn6tpB1+0hvLTUfD0Mc+ryaw0+kajqYn85p9CTTGELW8SpdB0IaJso44/wb8NP+C8Gg+I7u78X6rrWsxt8QrbUbayg1HRo9Pl8Pfar5JYZrlwl3aQrCbeT7PFFckqkYyWklEYB/T5RWCV1t9deYkJYQwYVBjdLKx5PsFAAHqSfQV/O/4F+G//AAW0m0z4gHxt4ivLBNWCHRGSSyuZbON9UDzLEituDixYbTuONpjQKwDUAf0fUV/PN498I/8ABZrXfHvw0v8Awnqt/HoWkJZWvify5dPsjfx22qM810YXEriSaxKI6rtLENtRcDP6L/sh6J+2Hpvj/wAT6j+0U4bRrouNPi8xmMEiOjYG66nBRlkZVZEQfuzwBsyAfoFRRRQAUUUUAFFFFAH/0P7tz8T/AAcGK/aGyDj/AFbf4Vn6r8Y/AOjaZcatf3TLBaxtLIRE5wqjJ4A9K/FH486J8U9a/aDv7bRfCXi+70mWyhjGp6brkdrpx4O5EtNjMjhjhm/i69FGPp6fxNr+t/s/y+IvG+jS+G9TutMYXOmTypcPbTMCnlmVPlk5xhhjOeleVisdKFOU10R3YLCqpWhTfVpH0Jqv/BQv9mLSL++0ubUr2afTtLn1idILC5lItbYDeQEQ5bn5UHzN2FaHhb9vL9n7xZZpfWkup2sUi7l+16fPAxA/2HUMPoQK/FL4EXVtrfxK8ZXuB+88LXMcDcdI5QrVJJrFzoWk3UqkZiQBOPX/AAr4WpxliYxg7LXy7H6dS4GwbqTp3elvy9D9odU/4KCfsvaNps+rX+tTpb20hhkYWk5w6gEjhPSvnrw//wAFov2DPEtxr9rpet6sW8MabLq2o7tGvlWK0gdI3kDeVtbDOoAUnPbpX4ceMryGD4aalol/c7VuZZLiWQ8k5HRR9BXx3+xLFbarpPx2n1KMC1Hw/vomjI/vXUSoD6nOK0wfGGInPlkl/SKx3AuDpwvFvdLp1dux/X38Af8Ago/+yb+01rV54f8AhBrtxf3VhareTJLZXEGIWYICDIig8kcCvqf/AIWl4M/5+G/79t/hX8o//BI/RbHw98YtUu1HljVNAaGIer21xEzj8Fr+guvqcpzadegqkrHwXEOU08JinQhsrH1vcfEXwpa+WJp2HmxrKvyN91unb2qt/wALQ8Gj/l4b/v23+Ffnx+1tF4ln+FdrB4R0K98R3rLpwFlp919in2eZ88gmwcCJfnK/x42HgkVyn7NOg69o3w7Nx4p03VdG1C7uXaWx1a+XUJYhHiNCs6gAq6BWxjhiR7n1ZYiSPD5EfdPjv9qr4LfDYhfFmoyQZhacbYJH+ROCflX9K8otf+Chn7OF/eaHa2M2qyp4gsBqVrONMuRALYyvCGklKBEO6NvkJ3bcHGCK/NH9uLXIYdQttJgI8+WzaDrjBkLN/wCgiuG1JEHww+HN5pvyBfDVuAAPRznj3r4rG8V16Uqqil7trH6JgeD8PVo0JybXNv8A1Y/ZXVf23P2d9Fijmv8AVpVWWRYkItpjlmOAOF9a8G+K/wDwVs/Yn+C6OfG2uX6mMlXS2026uHXHfbHGTj6Cvxy+ImqvqGsafbyyfutPdJgo/iK8/wA6/LP9t3WIb7XotRjfzJ7kuHOPljTbwB7mvMhxtirq6X3Huy8PcFy/E/w/yP6utX/4LJ/sG+HxpH9t+INRtDrmj2uu2ay6Teqz2N4CYZCpiypIH3Thh3Ar7y8PfG74c+KNAsfE2i3jSWeo28dzA/lOu6OVQyHBGRwRxX8Yf7VPhCy13xJ8MfD4jDXh+HukWztjncyOyfpiv6Q/2eL+11P4DeDbuz/1f9jWafQxxKjD8CpFfV5bnlStWnTaVkfEZ7w/SwuHpVYPWR+iP/C0fBn/AD8t/wB+2/wo/wCFo+DP+flv+/bf4V8o0V7f1qR8ryI//9H+w244ncf7RrwL9pC+ey+F88cf/LeeKPj05P8ASvfrj/j4f/eNfOn7T0Jf4UyzL1iuoG/9CFfK5x/us/Q+j4cS+vUr9z8sf2ctStrKfxtq8BDyxWiaHEoPO+6lM0px/sRofzFeqajbwahYym+xhVxgV/Kn40+NnxIsPirq2veFdcu7BrfVbuW1NtI0ez5gh+7wdwRR8wPHtX0J4R/4Kl/tA6Hp40/xdbaf4hQJ/rHTyJsD/aiIQn/gHpX5DUqKUlHotD+kI8OVVH2ya97/AC0/A/Uz4rxy23wye71FQlyZJQApH+rDYQ4HTPpnp+VeBfsPpYXnir4g+AnIik8Z+D9XggycbprTbdhAO52xEge1fnj8V/8AgpH438YaC+l6Z4YtLBpBgySXDz4z6KFj/U18x/s5fHrx34Y/ak8AfEvVb17h9O1y1Bi+7ELe4kEM6BBwFeJ2U8cjrXZgKajVUntsedmeWzdKXdar5an9XP7FunW3hz44eAtL0tNq3mmahO+P7v2cHn8cV+5Nfj5+yD4Tn039pnTtHmyw8MeHdQgyf+vpLVT+IWv2Dr9J4fpcmHt5s/EuNaynjbrsjovEX/MP/wCvGH+tc4eBXR+Iv+Yf/wBeMP8AWuc9q96pufJH4x/t4+Il03xZe6ndEKtrOkMeTwS0CqB/49XeXt1HDpui+GtJlSWz0HTLfS0kjIZWeFczEEcYEpZfwr85P+C7fjDXfAnhC8l8NySQ3t5q9qIZIgS6bYEcsMdNu3PpX8vfwl/a9/aL/Z9nFz8KvFV5ZQXEjSSWsh8+1dhyf3ModCWyDkYPPWvg6XDc8ZCpKMrO/wCR+qYriaGDdCnKF0or8bH9nfjyw2a1pi2IQRmT/SCxwPL2nPOD+Q/lX5RftKxWupeMxpSJujL5H4dMV+bx/wCC0X7STWKQ+ItE0HUZVT/XBJoWP1WOXZ+AUV8BfHb9t749/HPUnXVbyHR7VxgwaWrRZHQgyMzSYx23YrGlwNiZTSk0kdmJ8QMHGneEW322P7DNMHhz4n6X8LvinZTR3fm+C0spXjYOBdaPM1pOmR0K4XI6jNfsZ+xNcz3v7LvhS8uBgyxXLD/dN3Ns/wDHcV/JR/wRg8aa3rn7KXiLQbtme38E65dvbluiw6zYiR41/wC21kXPu1f2C/staE/hr9m7wNo0ow8Wi2hf/eeMOf1avewGBVHG1Eux8rnmYe3yyg2rav8AA96ooor6E+JP/9L+w64/4+H/AN4187ftPT+V8JLuHaT50qJkfw8Eg/pivom4/wCPh/8AeNfMH7WWtvoHwkl1BI2kCTo2FHGVVioY9FBOBk8V8vmqvhppdj6LhxXx1L1Pwd+Jf7H3we+IXw/Xwre2JtL3T4YxFqNqoS4imkgSSQEjG9RKzZRuPTFfz2fG34T+Lfgh44l8GeKQJEjB+zXSD91On95cjg9mX+E/nX9UHgKPX/DPxU8W/Dbx/FHb38f2O8aKKXzUV7iHEgRsDKh044r4Z/bt+EmkePfDN3psqLHeRfvbWYDlJAOD+PQ+1flFWg1Jn9G4DHSo2je8bI/nA1SVNqp7cDj+lfo78K/2S9X8AeBrH4l+PLQ/25fqtzbWjgj7FAOUdx/z1fggfwD36dD/AME+/wBljSfGXi2b4p/F1Y7mHQLswWmm5DK9zDj95OP7iHGxO55PAAP6rfGfVLa38R6Pp7hZXu72F5hjOIIT5r8egRDxWipu/Ia4zE+0fLHY/Vr9jvVrDxR8b/FviS2geNn0exOSMbPtEzysh9CWGfwr9Ja/L/8AYM0bxRoXxJ8Xx+KolW8u9L0u5uRDloopJDLIke9gPmMbgkY4we2K/UCv1DJ4tYeKZ/OfFFvrs1HbT8kdF4i/5h//AF4w/wBa5ztXR+Iv+Yf/ANeMP9a5w9K9apufPn5CftaaBpeu/GmbW9ctgy6SreSHxtaaT7KkfXg7o/M49K/n7/4KDf8ABNjwxrVhffFr4BWP9ka9AGnutNhG21vSTkmJRgRTDqAPkc8YB5r95P219K8ba/rHjmXRxDBD4esRqkizbhLLteNbZoQowVBXLkkcEVx+u3uneL/h5HrVoA4nt1k6cFWUMP0r8xq4mvhcT7Wm7frqfuscpoYrAxjU1Vl8tFsfwAXwuLV2tL1HgmgLxvG+VaN1JDAgjIIxjHavoP8AZA/ZN8W/tZfEp9C08vZeH9JVbjWdRC5EEPaNM8GWXGEHbliMCvuf9uj9kkeK/jVp/ijwHcQaUuv30NpqTS5EaPM4jFxhRy3PzDjdxX7u/AD4HfC79m/4HwfDf4e24gs4E8+7upAPtF5cEfNLMw6k9h0VcKBgV9VmPFi+rpUNJS/D+uh8XlXAlT6y/rHwR/H+v+AeS/ss+G9E+C3gbx/4A8P6ULDSvsNs1ui9FaPz1G9z96RxISSeTzX9XXgy0+weDdHsBH5XkWNtHs/u7YlGPwxiv5jvhzpWv+OfBXi/WIXSLTIXmuJRsLSTAmOyto4sYG7zd7Y7gHFf09+G1vE8N6cmoRmG4W1gEsZwSriNQynHHB4rn4ZpyUXKRt4g04QlTpw6X/Q2qKKK+pPzg//T/sOuP+Ph/wDeNch428IaT4+8Jah4M1zP2TUYWhk243AHoR2yOorr7j/j4f8A3jUNeLKCkuV7HXSqShJTjo0fjd8RPgH8QfhpNb+OPF5+2zaZjSP7TVwxvrMENaSyqBuSSFcwtu+9gNk5r4T/AGoJzqGnebD95R2r+lLxx4UsfHHhLUPCmoAeXewtGD/dbHyt+BxX86Xxl8KalFd3GhaivlzWrtC6kYO5Dgj9K/Ps/wAvVCopR2Z+1cI528ZScaluaP5HwN+yRq76B8XvE/h8fLFqENvqUa9hIoMEnHvtSvp6PwZrnxt/aN8KeBNKvJbK6v7sp50YHyRlG8zOQfl2ZB46V8PWF9L8Mf2gdJ1kjEE/mWM30mwyH6B1H0zX7gf8E6vAS+Mv2g9R+J1xHuh0CxZY2xwJrn92APom6uPLsL7WtFHuZ7mLwuFnWjulofsH8K/hVonwr0m6tdPnmvbzUZhc315cnMs8oRYwTjhVVVAVRwBXqNFFfpsYqKsj+eqtWU5Oc9zovEX/ADD/APrxh/rXO10XiL/mH/8AXjD/AFrna1qbmZ8v/Hz4ATfErU9O8deEpY4Nd00G3eG4Zltb+xl4ntJ9oJCuv3WAO1gpxwMfmh4p8I3Hwfm1D4aXO4Jpo8uAt/FDj92f++eK/c+vgL9uL4fPd6LZ/ETTo/nt/wDRLoj+43MbH6HI/EV8pxDlsXT9tFao/QuDOIKirRwlV+61Zfofy+/tQ6TLqFvqcMQwXQyQt6Sx/PGR6fMor7S0fxvN4i+C2m69bsSl7ZRznHqyAn9a8n+O/hAyaTPeEbtue1ec/s9eJ7q++FH/AArqT5p9Kna0Qd2jLZiwP90gfhXxNOPOj9bk1GN2ftf/AMExf2YfDGo/Cv8A4W94uNzc/btTkltbGWVvswNpJ+7l2ZAO2TJUYwGyec1+zleRfAT4fR/Cv4M+G/AKKFfT7GNZQP8Anq43yf8Aj7GvXa/U8DhY0aSgkfzvnWZTxWIlVm/T0Ciiius8o//U/sOuP+Ph/wDeNQ1Ncf69/wDeNQ15FjoCvym/bp+GK6T4otPHenR/uNZ/dTYHC3CDr/wNR+YNfqzXiv7QvguPx18JNW0oJumgj+1Q+oeH5uPquRXk51gvbYdq22x9DwvmX1XGQl0ejP4/fjroUcnj2TS1ys3yvH9VYbSPxxX9P3/BPL4V3fw5+ANtq2sIFv8AxDJ9skHdYwNkSn8Mn8a/nc/aA8LXv/CXJqc7hFgdShUc88j+gr+sn4PaCPDHws8P6JuLmGwgLMepZ0Dt+rV4PC+HfM5NbH3fiNi0qcKUHoz0iiiivtLH5GdF4i/5h/8A14w/1rna6LxF/wAw/wD68Yf61ztXNagFc54u8Mad4z8MX3hXVV3QX0LRN7ZHBH+6cEfSujorKdO6sy6dRwkpR6H8xP7RHgrUfD+m634f1OIrc6dLJCydM7D1HsRgivKf+Cb3wch+KX7QNjKSE061aO6ugRjcYMuqY9W24PsK/UX/AIKKfDsx642v6dhDqtpub/rpF8h/MYr55/4JIeCbG2+Nvii8yztplgrru/vSv5YP1C5H0NfnuBy/kxns2tEz9wzTN41Mn+sQdm1/wD+g4nJzSUUV+iWPwwKKKKLAf//V/v18qP8Auj8qPLj/ALo/Kn0UAM8uP+6PypDFERgqMfSpKKAM9tJ0p/vW0R/4Av8AhVwRRKMKoAHtXzn+2D+0NB+yZ+y34+/aYudJbXU8DaJd6wdOSb7O1z9ljL+UJdkuzdjG7y2x/dPSvxBX/g4YuvDnjO48F/Fj4Da74Zu7DwfceK7u2n1BVvIliedYh9nurS1xazCKOT7Q7JJHFMsr26xq7KWA/pL8uP8Auj8qPLj/ALo/Kv56r/8A4L1WWgeO7f4f6/8ADK3kutPvZLPXZtL8T2d/br/pWl2sX9iSpbKusyE6rCZYIvJli8uVdrFBnX8Cf8F3fDvxR8T+FPAXgP4f2z6x4qsdIu1e/wDEVtZabZy39ve3V1ZXV/JbFI7u1js8Jb7PNnaTG2JULUAfv95cf90flR5cf90flXxB+x1+1v4v/aV+C2u/Fz4h+DIvBj6P4h1fw/HY22qDVjPJo95Jp8jiQW1qF8y4idUTafl2sSM4HFftPf8ABQjQP2Zvjl4T+CeseH2v5vEcFrczTi4aP7LFdXf2MMI1gk83Y+WcKw2opY4UZoA/RTy4/wC6Pyo8uP8Auj8q/Hof8FdPCx0XxNrkXg+S5h0KfEBtb0t59qrXStcN51tB5ePs8YEaeaxadF4HNen/AA2/4KRWfxN/aE8H/BvSPBV3BpHizSLbUf7aluU2W0t1avcxW7xrGUJwnln98G3uoCdcAH6YSWdpN/rokbHqoNMh0+wtyWggjQnrtUD+Qq5RSsh3I/Ji/uj8qPJi/uj8qkophcj8mL+6Pyo8mL+6PyqSigLn/9b+/iiivmn47/Ez48+A/EXhzS/g74FHi601N7hdRuDdLbLZCOMtETkHO9gF4HftQB9LUV8IfHv4n/tf+GvjXoOhfBfwcdY8Ly6fI+oXDeVtF24dYk3M6sAjbGbBGVBGeRXtP7LXiD46+JvgrpeqftJafb6Z4w3TJfQ2kZjg+SQiNowzM2GTByQuTkhVGBQB7nrOi6N4j0q40HxDaQ39jdoYp7e4jWWKRD1V0YFWU+hGK52/+G3w71XWB4i1TQNOudQAAFzLawvMAI3hA8wru/1Ujx9fuMy9CRXa0UAeXad8D/gro76NJpPg/RLVvDpdtKMOn2yGxMpzIbXbGPJ3n73l7c96mb4L/B19MudEbwnoxsr29GpXFv8AYLfypbxSGFzImza0wIBEhG7Pet/x14lufBvg3U/FVnp9xqsun27zrZ2oDTTFBnYg9T/+odq+I/jb8TP25r/9nDw142/Z98JWNv441O+R77S78CZLbTysrc75bfEpAiBy3yMxBGBmgD7y0rQdD0K1ay0Oygs4XlknaOCNY1MsrF5JCFAG53JZm6knJ5qlq/g/wj4gm+0a9pVneyfuxungjkP7pt8fLKfuP8y+h5HNfL/7PniL9rfVfil4r034/aXZWnhuK2sZ9DuLRVXe0wczRuPMdw8WAHVhheNrvk7fsOgDzqD4P/CW1ikgtvC2kRpMoV1WxgAZQdwBATkAknHrV+y+Gvw503VLbXNO0DTbe9s4vJt7iO1hSWKP+5G4UMq/7IIFdtRQAUV4D4C+I3xA8QfE/X9C8RaS1p4fXyv7FuPsd1FK+1P9I+0vKBEP3n+q24ynvXzT8ZfEP/BR3RdF8V+Lfg3p3hvVB9vEGhaPdQSJdxWsUjRyXE832pY5RIiiWNECsNwBHUAA/RSiuW8D3/iPVPBmk6l4wtRY6tPZwyXluv3Yp2QGRByeFbIHJ+tdTQAUUUUAf//X/v4ooriviB4/8NfDPwvP4s8VTeVbQYAAxvdzwqIDjLHt/hQBz/jfwR4z8R6xBqPhvxLPo0KRiOSCONXVxk5YZ+6+DweQMDg1c8I+C/Emg6h/aGua9camWWQMjjZGWbZtYJk7SoVhhcL83TgV85ftCftif8KF8Tw6L/wil5rVn/Zrahc3kDlUt2EVxLHA22KRfMkW3bYpYFuiBjxXqv7Nfx6t/wBor4dP48j0e50GSG9uLKSzus+YpgYbWyUTiRCrj5eAcHkEUAfQNFFFABXJ+KovGMosl8ISW8WLhTdGcHJgwciPAI3Zx144xTfHnjnw38NfCF/458XTfZ9O02PzZnCljjIACqvJJJAAHevl3x5+2x4C8E/s+Xn7Qlrpt1q+n2d8tgba1KLI7mRY2KecY+E3cggHjpjmgD1iHSP2gHlMl5qlggSWIIkIG14v3QkL7oCQygSEBSAxYDKAZr3ivx8m/wCCueg2vxH8a+AW+GPiO7TwZqI05rmxMM/2jdBJOsqqdiohWPAy56+lfSv7LX7b0H7TXxU8YfDJPCF94eHhRYHS8uZopYrwTKrHyxH93ZuUdwecHigD7uooooAK+W/GnwG8f67qcmoaD451O0Wa/wDtZieRgkcYGPJjEJj+X2bcMAd8k/UlFACAYGKWiigAooooA//Q/v4rlPFHgTwV42EC+MdJtNUFsSYRdQpKELYzt3A4zgdPSurooA8x1vxbrGmeMrXwxbaFLc2MyxbrxASiklht2hcfJtBJzgA8dMVytp8UfE8f2ZV8IXiR3Fq11NKgASOXEhMe3buLEqvOMnfnHBFe8UUAMjcSxrIvRgD6U+iigCjqWmabrOny6Vq9vHdWs6lJIpVDo6nsyngivC/jJpnjLwx8O7TS/glpekmaC4jRba+WNLZISGyVDMihgcdOTzX0FWFr/hrQfFNmun+IbVLuBHWQJIMjchypx7GgD471HxF+0N/wjqx+HtL0D7adSjUwLJbbG01o2MhQ+bguWGMED8ga6Ky8W/HWLT0At9Ctbz7diQebCwFoyLkxhJRufeGHzbfunrxXuMPwX+Fdu7SQ6FaKXQRnCdUAZQPwDEfjUMnwR+E0qsj6DaYbOflx1JbIx0OSTx60AeADxl+1JD8PdSdhoY8Q/b3+w+dNCIWs8sF+5Ljf9zGSMZ5z0r6n0jxTpcui295ql9aLN5KNPsmQor7QWwQxGATxz0rnIvgv8LIbyPUE0O286IEI5UkjO3PU99q/lRN8FvhVcOZJtCtSxGCduMjbt5x1+XigD0CDVdLup/strcxSSAbtiupOOmcDtkYq/XG6P8PfBXh/V21/RNNhtrx4zE0qDDFCdxB/HmuyoAKKKKACiiigD//Z/9j/4AAQSkZJRgABAQAASABIAAD/4QCARXhpZgAATU0AKgAAAAgABQESAAMAAAABAAEAAAEaAAUAAAABAAAASgEbAAUAAAABAAAAUgEoAAMAAAABAAIAAIdpAAQAAAABAAAAWgAAAAAAAABIAAAAAQAAAEgAAAABAAKgAgAEAAAAAQAAAISgAwAEAAAAAQAAAKAAAAAA/+0AOFBob3Rvc2hvcCAzLjAAOEJJTQQEAAAAAAAAOEJJTQQlAAAAAAAQ1B2M2Y8AsgTpgAmY7PhCfv/AABEIAKAAhAMBIgACEQEDEQH/xAAfAAABBQEBAQEBAQAAAAAAAAAAAQIDBAUGBwgJCgv/xAC1EAACAQMDAgQDBQUEBAAAAX0BAgMABBEFEiExQQYTUWEHInEUMoGRoQgjQrHBFVLR8CQzYnKCCQoWFxgZGiUmJygpKjQ1Njc4OTpDREVGR0hJSlNUVVZXWFlaY2RlZmdoaWpzdHV2d3h5eoOEhYaHiImKkpOUlZaXmJmaoqOkpaanqKmqsrO0tba3uLm6wsPExcbHyMnK0tPU1dbX2Nna4eLj5OXm5+jp6vHy8/T19vf4+fr/xAAfAQADAQEBAQEBAQEBAAAAAAAAAQIDBAUGBwgJCgv/xAC1EQACAQIEBAMEBwUEBAABAncAAQIDEQQFITEGEkFRB2FxEyIygQgUQpGhscEJIzNS8BVictEKFiQ04SXxFxgZGiYnKCkqNTY3ODk6Q0RFRkdISUpTVFVWV1hZWmNkZWZnaGlqc3R1dnd4eXqCg4SFhoeIiYqSk5SVlpeYmZqio6Slpqeoqaqys7S1tre4ubrCw8TFxsfIycrS09TV1tfY2dri4+Tl5ufo6ery8/T19vf4+fr/2wBDAAEBAQEBAQIBAQIDAgICAwQDAwMDBAUEBAQEBAUGBQUFBQUFBgYGBgYGBgYHBwcHBwcICAgICAkJCQkJCQkJCQn/2wBDAQEBAQICAgQCAgQJBgUGCQkJCQkJCQkJCQkJCQkJCQkJCQkJCQkJCQkJCQkJCQkJCQkJCQkJCQkJCQkJCQkJCQn/3QAEAAn/2gAMAwEAAhEDEQA/AP7+KKKKACiiigAorlvHUXi+fwTrEHw+lt4NfexuF02W7BaBLwxsIGlA5MYk2lwOSua/nS1L4df8Fqj4J8KxeGLzxjFrsenSJcPe6x4YeKPxX9otjLe6jsiIn8NNCJvs1rbKLtcMHjDPG0YB/StRX82fiPw7/wAFuvEPg7RtG0+PxDp2raQdftIby01Lw9FHcaxJrLT6RqWpifzmn0JNMcQtbxKl2HRg0TFkkHH+Dfhp/wAF4NB8R3d34v1XWtZjb4hW2o21lBqWjRafN4eN1fJLDPdSBLu0hWE28ht4orliqRjJaSURgH9PlFYLLrb6687EJYQwYVBgtLKxySfQKBgepY56Cv53/Avw3/4LaT6Z8QT428R3unpqwQ6IyS2VzLZxvqoeZYkV9wkFi3ytuONpjQBgGIB/R9RX883j3wj/AMFmtd8e/DS/8J6rfx6FpCWVr4nMcun2Rv47bVGea7MMgmcSTWJRHVdpYh9qLgZ/Rf8AZD0T9sPTfH/ifUf2ipA2jXRkGnxeYzNBIjo2BuupwyMsjKrIiA+WcgDZkA/QKiiigAooooAKKKKAP//Q/u4PxP8ABwYqbhsg4P7tuv5Vnar8Y/AOjaZcavf3TrBaxtLIRG5IVRknAHPFfij8etE+KetftB39tonhLxfeaTLZQxjVNN1yO1048HciWm1nSQMcO38X3jwBj6en8T6/rfwAl8ReN9Fl8N6pdaY4utMnmS4ktpmBTyzMmFk5xhgBnPQV5WKx0oU5TXRM7sFhVUrQpvq0j6F1X/goX+zFpF/faZNqd7NPp2lz6xOkFhcykWtsAZGARDubn5UHzN2Bq/4W/bz/AGfvFlml/aS6naxyKWX7Zp88DED/AGHUOPoQK/FH4EXdtrnxK8ZXvH7zwtcxQNx0jlCsfbNSyaxc6FpN1KGBMaALkev19K+FqcZYmMYSstb9Oz9T9OpcDYOVWdO70t17q/Y/aHVP+Cgv7L2jabcavqGtTpb2sphkYWk5w6gMRwnoa+evD/8AwWi/YM8TXPiC10vW9XLeGNNm1fUS2jX6rFaQOkbyBvK2thnUAKST26V+HHjO8hh+GupaJf3O1bqWS5lkPLHcOij6DFfHf7EsVrq2k/HafUowLUfD++iaMjnDXUSoD6nOK0wXGGIqT5ZJdfy9SsdwJg6cOaDd20t11aXY/r7+AP8AwUf/AGTf2m9avPD3wg124v7uwtVvJklsriDELMEDAyooPzEcDmvqf/haPg3/AJ+W/wC/bf4V/KP/AMEjtFsfDvxi1S6UeWNU0BoYh0y9tcRO4/Bea/oLr6nKM2qV6CqStc+D4iymGExUqENlbc+uLj4i+FLXyxNOw82NZV+RjlW6Hp7VWPxQ8Gjrct/37f8Awr89/wBraLxNP8K7WDwjoV94jvXXTgLLT7r7FPs8075RNg4ES5cr/HjYchiDyv7NOg6/o3w7Nx4p03VdG1C7uXaWx1a+XUZohHiNGWdQAVkQBiMcMSPc+rLESTseF7NH3R47/aq+C3w2YL4s1GSDMLXA2wSP8iHBPyqfyryi1/4KGfs4X95odrYzatKniCwGpWs40y6EAtmleENJKyBEbfG3yE7tuGxggn80P24tchh1C20mAgzy2TQYJxgyFn/9BGa4bUkT/hWHw5vNM+QJ4atwAPZznj3Oea+KxvFdelKqopPltY/RMBwfh6tGhOTac73P2W1X9t39nbRoo5tQ1eZVlkWJCLaY5ZzgDhfU14P8WP8Agrb+xP8ABdHbxvrl+rRsVdLbTLu4dcdTtjjJI9wDX44/ETVX1DWNPt5ZP3WnyJMFH8TLz/Ovyz/bd1iG+1+HUY5PNnuS4kbb8sabeAPc+teZDjbFXV0v6+Z70vDzBcvxSv6r/I/q61j/AILJ/sG+HxpB1vxDqNodc0e112zWXSb1WexvAWhkIMQKlgOVbDDuBX3l4e+N3w58U6BY+JtFvGls9Rt47mBzE67o5VDocEZGQRwa/jD/AGqfCFlr3iT4Y6AIw14fh7pFs74ydzRu6c/TFf0ifs8aha6n8BvBt5Z/6s6NZp9DHEqMPqGUg19Xlue1K1apTaVkfD57w/SwuHpVYN3lufoh/wALR8Gf8/Lf98P/AIUf8LR8Gf8APy3/AHw/+FfKNFe39akfK+zR/9H+w644ncf7R/nXgP7SF+9l8L54485uJ4ozj0JJ/pXv1x/x8Sf7x/nXzp+09CZPhTLMvWK6gb/0If1r5XOP91n6H0fDaTx9K/c/LD9nHUrayn8bavAweWK0TQ4lB533UrTSnH+xGh/EivVdRt4NRsZTfYwq4wP8+1fyp+NPjb8SLD4q6tr3hXXLvT2t9Vu5rU20jR7DuCH7vDbgij5gePavoTwh/wAFTP2gdD08ad4tttP8QoEP72RPImIH+3EQhPqSh7V+Q1KqlJR6LQ/pCPDlVR9umry1/DT8D9TPiuktr8Mnu9SUJcmSUAKRzGGwhwOmfQk8YOecDwL9h9LC88VfEHwE5EUnjPwfq8EGTjdNaFbsIB3O2IkD2Nfnh8V/+CknjfxjoMml6Z4ZtLB5BgySXLz4z6KFjH5mvmT9nL49+O/DH7UngD4matevcPp2uWoMZO2IW9xIIbhAg4CvFIytxyDzXZgKajVUntt+h5+Z5bUdKXdar1Wp/Vz+xZp1t4b+OHgLS9LTat5pmoXD4/um3B5/4ERX7k1+Pn7IPhOfTP2mtO0ibLDwx4d1CDcef+XtLVT9SFr9g6/SeH6XJh+XzZ+I8a1lPG3XZHReIv8AmH/9eMP/ALNXOHgZro/EX/MP/wCvGH/2audPPFe9U+JnyR+MX7eXiJdN8WXup3bBVtJ0hjDHgl4FUD8SxrvL66jh03RfDOlSpNZ6FplvpaSxkMrvCuZyCOCBKWX8K/OT/gu54w13wJ4QvJfDckkN7eavaiGSIEuhWBJCwx027c56V/L38Jf2vf2i/wBn2cXPwq8VXljBcSNJJayN59q7dTmGYOhLZBLDByevJr4Olw1PGQqTjOz5vyP1TFcTQwboU5QulFfjY/s78eafs1rTFsQgjMpNyWOB5e055we/YDk+gr8ov2lYrbUvGY0pE3Rl8jvnGcYr83j/AMFov2kmsUh8RaJoOozBP9cEmhY9eqxy7PwVRXwF8dv23/j38c9TkXVbyHR7VwQYNLVosg8EGRmaTGOo3YrGlwNiZTSm0l3O3E+IOCjTvCLb+4/sM0weHPifpfwu+KdlNHeeb4LSylkjYOBd6PM9pcJkE4ZSFyOozX7GfsS3U97+y74UvLgYaWK5Yf7pu5tn/juK/kn/AOCMHjTW9c/ZS8RaFdsz2/gnXbuS2LZwkOs2IkeNT/12si593r+wb9lrQn8Nfs3eBtGlGHi0W0Z/96SMO35lq97AYFUcbUSfQ+UzzMPb5ZQbVtX+B71RRRX0J8Sf/9L+w64/4+JP94/zr52/aen8r4SXcO0nzpUTcOdpwxB/MYr6JuP+PiT/AHj/ADr5g/ay1yTw/wDCSXUEjaUJcI2FHGVVioY9FBbAyeM18vmyvhppdj6LhxXx1L1Pwd+Jf7H3we+IXw/XwrfWJtL3T4IxFqNqoS5inlgSSQEj76iVnyjZHXGDzX89nxt+E/i34IeOJfBnioCRIw32a7Qfup0P8a7hkHsy9VP51/VB4Cj1/wAM/FXxb8NvH8UdvfxmzvHiil81Fe4hxKEfAyodOOO+e9fDP7d3wk0jx74Zu9NlRY7yL99azAcpIBwfx6H1FflFag1N+p/RuAx86No814tf0z+cDVZU2qh6Y4H/AOr1r9HfhX+yXq/gHwNY/Evx5aN/bl+q3NtaOCPsUA5R3H/PV+CAfuD/AGjx0P8AwT7/AGV9J8ZeLZ/in8XljuodAu2gtNNyGV7mEjMk45GxCQUTueTwAD+q3xm1W1t/Eej6e4WV7u9heYYziCE+a5x6BEPFaKm78hrjMT7R8sdmfq3+x3q1h4o+N/i3xJbQOjPo9icsMbPtE0kroc9CWGfwNfpJX5f/ALBmjeKdC+JXi+PxXEq3t5pel3NyIdzRRSSGaRI97AHeY5ASuOCG7Yz+oFfqGTxaw8b76/mfznxRb69NR20/JHReIv8AmH/9eMP/ALNXOnpXReIv+Yf/ANeMP/s1c4eletU+Jnz5+Qn7WmgaXr3xpm1zXbYOukK3kB8bWmk+ypH16lo/M49Cc1/P3/wUH/4Jr+GNbsL74tfAOx/sjXoA891psIK2t8SckxKCBFOOoA+RzxgHk/vJ+2vpXjbxBrPjmXRxDBD4esRqkizFxNKVeNbZoQowVDLlySOCK47Xb3TvF/w8j1u0AcXFusmccFXUMP0NfmNXE18Nifa03Z6/PXqfuscpoYrAxjU1Vl8nZbfmfwA3wuLZ2tL1XgmgZ0eN8q0bqSGBBGQQeCOxr6D/AGQP2TfFv7WXxKfQtPMlloGkqtxrOohdwghzxGmeDNKRhB25YjAxX3P+3T+ySPFXxq0/xT4DuYNKXX76G01J5ciNHmcRi4wvVufmHG4475r93PgB8Dvhd+zd8D4Phx8PbcQ2cKefeXUgBuL24I+aaZh1Zuw6KuFHAr6rMeLV9XXsNJS/D+uh8XlXAlT60/rPwRf3/wBdfuPJv2WfDWifBbwN4/8AAHh/ShYaV9htmt0XJCtH56je55aRxISSTlua/q68GWn2Dwbo9h5fleRY20ez+7tiUY/DFfzHfDnStf8AHPgrxfrMDpFpkLzXMo2FpJgTHZW0cWMDcZd7YOcgHGCa/p78NLeJ4b05NRjMNwtrAJUJBKuI1DKSOMg5Fc/DNOSi5S/rc28QacISp04dL/obVFFFfUn5wf/T/sOuP+PiT/eP865Dxv4Q0nx94S1DwZrgb7JqMLQyFcbgG6EZ4yDyK6+4/wCPiT/eP86hrxZwUlys66VWUJKcXZo/G74ifAP4g/DSa38c+MD9tn0w/wBkf2orhjfWYIe0llUfMkkK5hfdndgNuJJr4T/agnOoacZYfvKM5HXHv7V/Sn448J2PjnwlqHhPUADHewtGCf4Wx8rfg2DX86Pxl8KalDd3Og6ivlzWrtC6kYO5CQR+lfn2f4BUKinHZn7XwhnksbScatuaP5HwN+yRrDaB8XvFHh9Tti1CG31KNe3mKDBLx77UNfT0fgzXPjd+0b4U8CaVeS2V1f3ZTzowPkjKN5hOQRt2ZDcdM18O2F7L8Mv2gtJ1phiCfzbGY+02GQn2DqPpmv3B/wCCdXgJfGX7Qeo/E+4j3QaBYssbEcCa6/dgA+oTca48uwvtq8V3Pcz3MpYXCzrReqWnzP2D+Ffwq0T4V6TdWmnzz315qMwub68uTulnmCLGCccKqqoCqOAK9Roor9NjFRVkfzzVqyqSc5u7Z0XiL/mH/wDXjD/7NXO10XiL/mH/APXjD/7NXO1rU+JmZ8v/AB9+AE3xK1PTvHXhKWOHXdNBt5IbhmW1v7GUgT2lxtBIV1+6wBwwU44GPzQ8VeEbj4Py6h8M7ncE00eXAW/ihx+7P/fPFfufXwD+3F8Pnu9Gs/iJp0eXt82l0R/cfmNj9DlfxFfKcQ5bGVN1orVH6HwZxBUVaOEqv3WrL9D+X39qHSZtQt9ThiGC6NJC3pLGd8ZHp86ivtPR/HE3iP4Labr1uxMd7ZRztg92QMf1ryf48eEDJpE94w3FM549K84/Z68T3d98KP8AhXUmWn0qd7RB3aNm3RYH+6QPwr4mnHnR+tSajG7P2w/4Ji/sw+GdR+Ff/C3vF5ubr7dqcktrYyysbYG1lzHLsyAdsmSoxgNknOeP2cryP4CfD6P4V/Bnw34BRQr6fYxrLj/nq43yn/vtjXrlfqeBwsaNJQSP53zrMp4rEyqzd9dPQKKKK6zyj//U/sOuP+PiT/eP86hqa4/4+H/3j/Ooa8izOgK/Kb9un4YrpPii08eadHiDWf3U+Bwtwg6n/fXB+oNfqzXiv7QvgqPx18JNW0oJvngj+1Q+oeH5uPcrkV5OdYL22Hkuq1R9DwvmTwuMhJ7PR/M/j9+O2gxy+PZNMXKzfK8fuysCpH44r+n7/gnl8K7v4c/AG21bWEC3/iGT7ZIO6xgBIlPvjJ/Gv53P2gPC19/wl6anPIEEDqUKjJOTkfrge9f1k/B7QR4Y+Fnh/RAxdobCEsx5JaRA7E/ixrweF8O+Zzkj7vxGxiVOFKD0buekUUUV9pZn5GdF4i/5h/8A14w/+zVztdF4i/5h/wD14w/+zVztXUWrAK5zxf4Y07xp4YvvCurLut76Fom9sjhh7qcEfSujorKdO6aZdOo4SU47o/mJ/aI8Faj4f03XPD+pxEXWnSyQMnQnYeo9iMEfWvKf+Cb3wch+Kf7QNjKzBNOtXjursEY3mAs6pj1Yrg+wNfqL/wAFFPh2Y9cbxBpxCHVrTc3fMkXyHP1GDXzz/wAEj/BNha/G3xTe5Z202wWRS396Z/LB+oUkfQ1+e4HL3DGeza0TP3HNM4jUyf6zB6tfnof0HE5OaSiiv0SzPwsKKKKLMD//1f79fKj/ALo/Kjy4/wC6Pyp9FADPLj/uj8qQxREYKjH0qSigDPbSdKfl7aI/VF/wq4IolGFUAD2r5z/bB/aGg/ZM/Zb8fftMXOktrqeBtEu9ZOnJN9na6+yxl/KEvly7C2MbvLfH909K/EFf+Dhm78OeM7jwX8WPgNrvhm7sPB9x4ru7afUVW8iWJ51iH2e6tLUi1mEUcn2iR0ljimWWS3WNXZSw7n9Jflx/3R+VHlx/3R+Vfz1X/wDwXrstA8d2/wAP9f8Ahlby3Wn3slnrs2l+J7O/t1P2rS7WL+xJUtlXWpSdWhMsEXkyxGOVSrMo3bHgT/gu94d+KPifwp4D8CfD+2k1jxXY6RdrJf8AiO2stNs5b+3vrq6sru/ktikd5ax2eEtynmztJjbEqM1Aj9/fLjP8I/Kjy4/7o/KviH9jr9rjxf8AtK/BbXfi78Q/BkXgyTR/EOr+H47G21QasbiTR72TT5XEotrUKZLiJ1RNp+XaxYZwOK/ae/4KE6B+zN8cvCfwT1jw+1/N4jgtbme4Fy0ZtYrq7+xhhGsEnnbHyzhWBVFLHCjNAH6J+XH/AHR+VHlx/wB0flX49j/grp4WOi+Jtci8HyXUOhT4gNrelvtFqr3SvcP51tB5ePs8YEaGVi06LwPmPp3w2/4KR2fxN/aE8H/BvSPBV3BpHizSLbUv7alul2W0t3avdRW7xrGUJwnlk+cG8x1AQ5OAD9MJLO0m/wBdEj49VBpsOn2FuS0EEaE9SqgZ/IVbopWQ7sj8qL+4Py/+tR5UX9wfl/8AWqSimF2R+VF/cH5f/Wo8qL+4Py/+tUlFAXZ//9b+/iiivmn47/E348+A/EXhzS/g74FHi601N7hdRuGultlshHGXiY5BLeY4CcDqe3JoA+lqK+EPj58T/wBr/wANfGvQdC+C/g46x4Xl0+STULlvK2i7cOsSbmdWARijNgjKhhnJFe0/steIfjr4n+Cul6p+0lp9vpnjHdMl9DaRtHB8kjCNowzM2GTBJO3JyQqjAAB7nrOi6N4j0q40LxDaQ39jdoYp7e4jWWKVG6q6OCrKe4IIrnr/AOG3w71XWB4i1TQNOudQAAF1LawvMAI3hA8xlLf6qR4+v3HZejEV2lFAHl2nfA/4K6O+jS6T4P0S1bw6ZG0ow6fbIbEynMhtSsY8kueW8vbk9amb4LfB19LudEfwnoxsr29GpXFubC38qa9VgwuZE2bWmDAESEF8jOa3/HXiW58G+DdT8VWen3Gqy6fbyTrZ2oDTTFBnYgPUn8/QE8H4k+NvxM/bmv8A9nDw142/Z98JWNv441O/R7/S78CZLbT2WZsHfLb4mIEQOW+RmIIIBNAH3lpWhaHoVs1lollBZwvLJO0cEaxqZZXMkkhVQAXdyWZupYkk5NUdX8H+EfEE32jXtLs72T92N1xBHI37p/Mj5ZSfkf5l9G5GDXy/+z34j/a31X4peK9O+P2l2Vp4bitrGfQ7i0VV8xpg5njceY7h4iAHVhheCrvuO37DoA86g+D/AMJbWKSG28LaRGkyhZFWxgAdQSwDAJyAxJwe5zWhZfDX4c6bqltrmnaBptve2cXk29xHawpLFH/cjcKGVf8AZBArtaKACivAvAXxG+IHiD4n6/oXiLSWtPD6+V/YtwbO7ilfan+k/aXlAiH7z/VbMZTGea+aPjN4h/4KO6Lovizxb8G9O8N6qPt4g0LR7qCRLuK1ikeOS4uJvtSxy+aiiWNECuNwBHUAA/RSiuW8D3/iPVfBmk6n4wtRY6tcWcMl7br92K4ZAZUHLcK+QOT9TXU0AFFFFAH/1/7+KKK4r4geP/DXwz8Lz+LPFU3lW0GAAMb5HbhUQEjLMenP14oAwPHHgjxn4j1iDUfDfiW40aFIxHJBHGrrIMncwzyr4PDcgYGQat+EfBfiTQdROoa5r1xqhZZA6ONkZZim1gmTtKhWGFIU7ugwK+c/2hf2xP8AhQ3ieHRf+EUvNaszpr6hc3sDsqQMIriWOBtsUi+bItu2xSwZs4QOeK9U/Zr+PVv+0V8On8eR6Pc6FJDfXFlJZ3WTIrQMNr5KJxIjK444DYPIIoA+gaKKKACuU8VReMplsl8IS28WLhTdGcEkwYORHgEbs4PPHGO9M8eeOfDfw18IX/jnxfObfTtNj82ZwpdsZAAVVBLMSQAB1Jr5d8e/tseAvBP7Pl5+0La6bd6vp9nfJYNb2rIsjyGRY2KecY8hN2TlQcg8Y+agD1mHR/2gHmMt5qlggSWIIkIG14j5QkZ98DMGAErAKQGLAZQLmvd6/Hyf/grpoNr8R/G3gFvhj4ju08GakNOe5sTDP9o3QS3CyqpKKiMseATIeT6V9LfstftvQftNfFTxj8Mo/CF/4eHhRYHS8uZ4porwTKrHyxHyuzco6kHnB4oA+7aKKKACvlvxp8BvH+u6pJqOg+OdTtFmv/tZieRwkceMeTGITH8vPRywwB3yT9SUUAIBgYpaKKACiiigD//Q/v4rlPFHgTwV42WBfGOk2mqC2LGEXUKShC2NxXeDjOBnHpXV0UAeZa34t1jS/GVr4YttClubGdYi96gJRSSw27QuPk2hiScAHjkEVytp8UfE8f2ZV8IXqR3Fq11NKgASOXEhaMrt3sxZV5xk7844Ir3eigBkUgljWRejAHnjrT6KKAKOp6ZputWE2lavBHdWtwpSWKVQ6Op6hlIII+teF/GXTPGfhj4d2ml/BLS9JaaC5jRba+WNLZISG3MoZkUMDjpycmvoKsPX/DOg+KbNdP8AENql3AjrIEkGRuQ5U49jzQB8d6j4i/aGPh1Y/Dul6B9tbUo1MCy2xRtNeNmkKHzcF2YYwQM9eQCR0Nl4t+O0WnoBb6Fa3v27Eg82FgLRkXJjCSqWcuGB3FfunrxXuMPwX+Fdu7Sw6FaKzoI2ITqgDKB17BmH41FJ8EfhNKrI+g2hD5J+Ug5JLEgg5ByScjnJNAHz+PGf7UkPw91N2GhjxD9vf7D580IhazywX7kuN/3MZIxu5z0r6o0jxVpc2i295ql9aLN5KNcbJkKK5UFsHcRgE8HPTvXORfBf4WQXkeoJodt58QIRypJGdpPJJ6lVJ+lJP8FvhVcOZJtCtSzAgnbgkFdvODz8vHNAHoEGq6XdT/ZbW5iklA3bFdS2M4zgHOMjFX643Rvh74K8P6w2v6JpsNtePGYmlQEMULbiD6/NzXZUAFFFFABRRRQB/9kAAP/tADhQaG90b3Nob3AgMy4wADhCSU0EBAAAAAAAADhCSU0EJQAAAAAAENQdjNmPALIE6YAJmOz4Qn7/wAARCAO6AxYDASIAAhEBAxEB/8QAHwAAAQUBAQEBAQEAAAAAAAAAAAECAwQFBgcICQoL/8QAtRAAAgEDAwIEAwUFBAQAAAF9AQIDAAQRBRIhMUEGE1FhByJxFDKBkaEII0KxwRVS0fAkM2JyggkKFhcYGRolJicoKSo0NTY3ODk6Q0RFRkdISUpTVFVWV1hZWmNkZWZnaGlqc3R1dnd4eXqDhIWGh4iJipKTlJWWl5iZmqKjpKWmp6ipqrKztLW2t7i5usLDxMXGx8jJytLT1NXW19jZ2uHi4+Tl5ufo6erx8vP09fb3+Pn6/8QAHwEAAwEBAQEBAQEBAQAAAAAAAAECAwQFBgcICQoL/8QAtREAAgECBAQDBAcFBAQAAQJ3AAECAxEEBSExBhJBUQdhcRMiMoEIFEKRobHBCSMzUvAVYnLRChYkNOEl8RcYGRomJygpKjU2Nzg5OkNERUZHSElKU1RVVldYWVpjZGVmZ2hpanN0dXZ3eHl6goOEhYaHiImKkpOUlZaXmJmaoqOkpaanqKmqsrO0tba3uLm6wsPExcbHyMnK0tPU1dbX2Nna4uPk5ebn6Onq8vP09fb3+Pn6/9sAQwACAgICAgIDAgIDBQMDAwUGBQUFBQYIBgYGBgYICggICAgICAoKCgoKCgoKDAwMDAwMDg4ODg4PDw8PDw8PDw8P/9sAQwECAgIEBAQHBAQHEAsJCxAQEBAQEBAQEBAQEBAQEBAQEBAQEBAQEBAQEBAQEBAQEBAQEBAQEBAQEBAQEBAQEBAQ/90ABAAy/9oADAMBAAIRAxEAPwD9/KKKKACiiigAooooAKKKKACiiigAooooAKKKKACiiigAooooAKKKKACiiigAooooAKKKKACiiigAooooAKKKKACiiigAooooAKKKKACiiigAooooAKKKKACiiigAooooAKKKKACiiigAooooAKKKKACiiigAooooAKKKKACiiigAooooAKKKKACiiigAooooAKKKKACiiigAooooAKKKKACiiigAooooAKKKKACiiigAooooAKKKKACiiigAooooAKKKKACiiigD/9D9/KKKKACiiigAooooAKKKKACiiigAooooAKKKKACiiigAooooAKKKKACiiigAooooAKKKKACiiigAooooAKKKKACiiigAooooAKKKKACiiigAooooAKKKKACiiigAooooAKKKKACiiigAooooAKKKKACiiigAooooAKKKKACiiigAooooAKKKKACiiigAooooAKKKKACiiigAooooAKKKKACiiigAooooAKKKKACiiigAooooAKKKKACiiigAooooAKKKKACiiigD/9H9/KKKKACiiigAooooAKKKKACiiigAooooAKKKKACiiigAooooAKKKKACiiigAooooAKKKKACiiigAooooAKKKKACiiigAooooAKKKKACiiigAooooAKKKKACiiigAooooAKKKKACiiigAooooAKKKKACiiigAooooAKKKKACiiigAooooAKKKKACiiigAooooAKKKKACiiigAooooAKKKKACiiigAooooAKKKKACiiigAooooAKKKKACiiigAooooAKKKKACiiigD/9L9/KKKKACiiigAooooAKKKKACiiigAooooAKKKKACiiigAooooAKKKKACiiigAooooAKKKKACiiigAoorxP9ob47eD/wBm/wCE2tfFnxrvls9LQLDbRf627upTtht4+Dgu3ViMKuWPCmgD2yiv5APHv7T/AO2V+3D8QpPCnhm81WeK/wDOFr4a8PtJBZw2rqFfzhGV81Qv35blmA3MAUVttZmu/skft4/swaNe/En/AIRzXfCFlaRmS61DQ9UhkeGKIhi8x0y5kkSNM7izAKuCcgAkAH9iVFfHv7Xn7WXhb9kv4QxeNdYiGq+INWH2bRtNZipu7oKGZ5GAO2KIENI30UfMwr+a3VPi/wDtuft1eN7vw/pV/rXiaS7R9+j6Qz2mk21s4PyyxoyQJHgbd9wxZ+FLsxFAH9ilFfxw+JP2Zf26f2S9Nl+INxoWveCrJShn1DRdRjlWMJuKNcPptxJsRTnDSYUE4zlhn9Uv+CeX/BTLxH8TPFdh8Cv2h7mK41rUv3Wja4sYha6nHS1ukQCPzHHEcihdxAVgXYMQD9zKK/m3/wCC3HzfGD4ddf8AkBT9v+npq/T/AP4JZcfsOfD0f9NNY/8ATrdUAfoTRXh/7RPx78F/s1/CnV/it44ZntNPAit7WM4mvLyXIht4+DhnIOWPCqGY8Ka/l1+If7X37Zf7ZXxBTwz4T1DVohfystj4d8NNNBDHExC/vTCQ8oUYLyzsVXJPyLwAD+vqiv46tV/Yn/br+A2kzfEqPwZrXh+K0i3S3mjahBNdRQkqWLJp1xJOqDgsSoCgEtgAkfbf7Cv/AAVJ8daX4s0r4T/tKaqdd0DVJI7Sz164H+mWMz4WMXUg/wBfCzYDSP8AvEJ3M7KMAA/o6or8Nv8Agt6f+LdfC/8A7Ct//wCiEr8WPhX+yX+0L8bvA2qfEf4VeD5vEeg6NcvaXUtvcWwmWeONJWjS2eVZ5SEkQ/u42znA5BAAP7cKK/kW/YY/bK+L/wADvjF4W8H6hrl9q/gjWL610q+0e7neaGCKZ1gSS2SUkQPCWBwm0OqhG4C4/Vr/AIKu/theP/gXpXh/4QfCm/fRda8WWs95f6nAxS6trJX8qNLZxzG8rh8yqQ6BBsIZtygH7H0V/GV8K/2W/wBsn47ac3xv+GugatrqRzuy60+ow291JPB8jNDJc3EU8rJt2bo92CNucjFf0Ef8ExPD/wC0jp3wZ1LVv2h9c1m5kuL57TStL1sM11Y29kzRyu7zoLjMku5FR3Kqka7AAaAP0tooooAKKK8Ti8a674o+NMvgzwvcRx6B4NtfM8QTAJIZdRvow1nYKTkoY4SbqYjDYe3AO13FAHtlFFFAFe6uoLOCS6upEhghRpJJJGCIiIMszMeAAOST0rB8JeNPCHj7Rl8R+BtbsvEGkySSRJd6fcR3VuzwsUkUSRFlJVgQcGvye/4KWeL/ANq74M24+Knw6+Iy6f8AD6+ltdLvtFTS7K8ktEnR1kupDcxOZI5WGzYSBuYLnmvh3wf4L/aR/Z++I/gn9lD9nP46x3ll8SIDr95LZadCLfTLW7iUfapJLjzJEZoIi+xXjIwmPnkWgD+mmiv5cP2hfjhoXg/S/D1p8Bf2tPHvi/W9Rv1g1J7681G3tNPtAuJJnVoYpGO8ghU3HarcZxn9Mf2PLj4S+L/i1HefDb9qTxp8WLzQbO4u7rRdXlu/sEkMi/Z/MkS4giU+W8qsoDEhsHGAaAP1ernIPF/hS58Q3PhG31myl12yjSW4sEuY2u4Y5BlHkhDeYqsOVJUAjpXyj+2F+2r8NP2T/B002qzxat40voWOl6HE4MsrkYWW4xzFbg8ljgtghAxzj8a/hF4F+IF5qmqftc+I/wBqbwZ8OviB4vhuLq9hlm0/U7+C0l2sI/KMreU+xFCwRIXRAsf3soAD+mWiv5/P2Gv2rvjd4++NWp618XPj5pS/DHQDcW5GvHS9Kn1Z2GIfs9uxjliA4kZ9xAHyHJY7f3Z8JeOfBnj7S21vwLr2n+ItPSRoWudNu4ryBZVAZkMkLOu4BgSM5AI45oA6qivw6/4LJyWEesfAMavFdT6dJqWrJdxWJP2mW2ZtP82OEArmRlyEGeWxXyPqlx/wTO0Se1tta8FfFzT5r5ilulwEiaZgQCIw9yCxBYDAz1HqKAP6faK/mC1Sf/gmdok9rbax4L+LdhNfMUt0uAsTTMCARGGuQWOWUYGeo9RX2l/wR60XVNIPxqa40zUtM0241HTG05NUikim+yj7ZsB8zqyqVDYJGaAP2ror5c/aY+AfxD+Olt4fg8AfFvWvhU+jPdNcPo/mZvROIwgl8u4g4i2Ernd944x3+Tv+Hfv7R/8A0d/42/K5/wDlhQB+qlFflX/w79/aP/6O/wDG35XP/wAsK++fgb8OfEvwo+GeleBvF/jO/wDiBq1g1wZta1Ld9quRNM8qB98kp/dqwjGXPCjp0AB63RRRQAUUUUAFFFFABRRRQAUUUUAFFFFABRRRQAUUUUAFFFFABRRRQAUUUUAFFFFABRRRQAUUUUAFFFFAH//T/fyiiigAooooAKKKKACiiigAooooAKKKKACiiigAooooAKKKKACiiigAooooAKKKKACiiigAooooAK/B/wD4LheINat/DXwl8MQgjSb681e8nOMg3NpHbRwc9BhJ5eD1zx0NfvBXxF+3z+yxcftWfA6Xwp4fkig8VaHcDUtHklO2N50Rke3dv4VmRiMngOEY8A0AfFv/AARN8L+Gofgz488aW8MR8Q3mvf2fNLjMq2dvaQSwrnqFaSaU4HUjnoMftVJDHNG8MyiSOQFWVhkMDwQQeoIr+OL9nn9pj47fsEfE3XtGGkGJpHS21zw9qqPCHeHJjcEYeKRVclJFyrK2SGUivt74pf8ABav4keKPCd1onwx8AWvgvVruN4/7SuNROqPAGGN8MRtrdBIvJUvvXPVD0IBz/wDwWt1DW3+PvgfR5srott4ZSe1UD5RPNeXCzn67Y4gR2AHrX6Vf8EkvC3hLRP2PdG8Q6FBGNW8Q3+oy6tKB+8ee3upIIVZuu1YEjKr0G4kDLEml/wAFK/2QNe/aW+EmjeLPh9ALzxx4KWSWC3zh9Qs51Uz26EkDzQUWSPPXDIOXzX4Y/so/tt/GD9i7WtV8OWWmR6roF3ds+p6DqAe3eO7iXyXeN8F4JhtVJNyMCFAZcgEAH9hN/YWWq2VxpupQJdWl3G8M0Uqh45I5BtdGUggqwJBB6iv4fviHaQeAv2jPE1l8MCUg8OeK72LRChLMEs75ltNuSSSAqYyfxr9KvjZ/wWX+KXxA8H3Xhf4XeDYPh/dX6NDNqLag2pXSROCG+z/6PbLE/Iw5DlecAEhh5r/wTR/Yu8VfGr4n6N8ZPFenvafDvwjdpeieZWUale2r7ooIOm9I5VDTNyoCmM/MxwAewf8ABbQN/wALe+HLOMO2gzZ+v2puK/UP/glj/wAmN/D3/rprH/p1u6/MD/gtx/yWD4df9gGf/wBKmrhf2V/+Cqn/AAzP8DvD3wY/4Vf/AMJH/YTXjfbv7b+x+b9rupbr/U/Yptu3zdv3znGeM4AB9Qf8FwtS1uPw58JNIi3LpFzdavPP/dNzDHarBn3CSTY+p9K6r/giX4W8Jp8JvHvjaKCNvE82tjTppiMyJYRW0M0KKT0VpZJSQPvFRnO0Y9W+IOhP/wAFSv2G7Xxho2hx+FPFEV7c3ui2sl39rRbqwkkt2he48qD5bmPcuSgCMVY7gvP4UfAn9oH46/sHfFrWIbLTW0+/DR2mu6FqkbIk6QneiuBhkdVdjFKpIAfI3KxBAP7Oq/jI/b/8K+E/BP7YXxM8O+CII7XSYr+GZYYhtjjnubWGe5RVHCgTvIAo4A4HAr788ff8FtPiBrnha40v4ffDaz8M63Om0ahdak2pJETgFktxbW43Yzt3OwBxkMAQfi79kD9lT4kftp/GKTW9dFzJ4XTUDfeJtcm3YlaSTzp4Ek43XVxuPAOU3eYwxgEA+3v+CmWp65q/7HH7MeqeJyW1i9062mvC33muJNLt2kJ9yxJPvXhf7EP/AAUN8KfshfBHxN4BvvCd74i1/U9Yn1S0aKaOC0/eWtvAqTOd0g+aEk7Ubg19of8ABbOztdP+GHwpsbKJYbe31K9ijRRhURLaNVUD0AGBXxt+zh+ySn7Tf7AnjLVPC9qJPHvg3xZf3mk7cB7uI6dYG4siT180KGjyRiRV5AZ8gGL+xH+yH8W/2n/jVpXx98R6YNL8Bx67JrV9qJKxx3c8FwZ2trSJizuGmGxmPyIu75y6hW/U/wD4KY/sN+PP2n4fD3xC+Ez29x4m8N201lNp1zKIPtlozGWPyZXIjWVJCQFkKqwckuu3DflN/wAE2v20J/2afiO3w7+IFz5Xw78WXKpdtMSBpd8cRpdjPCxnhLgf3QH/AIMH9Gv+CjP7fXxP/Zz+LHgXwj8Io0EFtbtqupve2pksdTjuBshtkkypZEXdI7RMMM0YDgq60Afmr4I+PX7fH/BPuxj8Iavod7pHhdJz5Vhr+mtPpTXE2Jm+zXcZXJYBtyQ3G3Jcld4JH7ZfsM/8FCPDn7Xc2peD9Z0T/hF/G2kW4u3tkl861vLbeEaW3YgOpjZlDxsDgMCrMN238n/2i/8AgrRrfx7+C2u/CKP4ZWeiP4ihS3ub6XUmvlVA6uxhg+zQ7HyvysZG25zgkZroP+CMnwm8W6l8aNf+Mb2jw+F9E0m4077UwKpNfXTwsIYzjDbI1Z3xnblMj5hQB/S7RRRQB5v8V/iBF8NfBd14ijtG1LU5HistMsU+/e6leSLDaW4xkgSSsod8YjTdI2FVjUXwi+H83w28EWug6lef2rrdy8t9q+obSv23VLxjLdThWLFUaQkRR5IjiCRj5VFef2Ol6l8S/jjc+JtbtZoPDPw0LWmjxXEexbvW7qEG61BAy5KW9vKLWBwQC0lz1G1q+jaACiiigD+fH/gpv/wrL/hub4Zt8Y9I1DXvB6+EXa/stKDG9nCy6kYhDteM5Euwk7wAASTjNfM3hT9mn4TeM/jv4NHj/wAM2/wM+HevziHT9I8Q6jeXOva7vbYhEQeOS2EhIVJXEUQYkBpyNtfTX7Z+teLPEn/BRy0f4cePdI+H+tfD7wigbWtblRLKx81Z2lyXSVRK0N8PLGwkuVxg4I8z+AFj4g8U/tF6XefsuNL8XPGlldrN4m+JXjG0ll023QjayWEDSCSNSmQHd/tMnCxeVEHLAHl/hbxBq/hj9gXTW8K3c+l6vq3xka0+0WczW07QjTlLRNJGVdkZtuVyRkAntX6Wfs820Fr/AMFX/wBoO3tI1iiTw5ZBUQYVcxaX0AwK/PXxN4GXwR4p8D/snfDS9l+Mz+CPFl/4/wDEg8O2xJWOGO1T7FGS7KZkjhkViHIDzRxgGTKV+jX7EF/8Pvjb+0/8UP2sPBviYR33ijTLfTr7wneW/k6ppMkS2kZkkbzGWWJmtTtdFA+YBtrBlAB8v/8ABWD9kr4ZfD/wzrH7S+jy3snifxl4k0+2mhlmDWlur2lw0xiTbuzK0KE7mIXBCAA4rnv2mvDX/BN6z/ZP1y++EE3ho/EhLHTPsYsr+aa8+0G4txcbYzKwJ8sybsggDNfYX/BZwE/so6KB/wBDZYf+kl7Xu/gH9lr9hzX/AANoOsw+A/COoC8sLaUzrFbuJGeNSW3A85PJoA/OX4R+F/8AgmZcfstaFeeN5fC//Cx28OF7pbi/mS6/tPyWIDIJgofzMcYxmvqv/gjUc/sl6j/2NGof+k1pX0vdfscfsRXdnNaf8K88LQ+fG6eZHDAsibhjcpzwRnIPY18sfsu/EvwN8E/2qtS/YY+AmkQ6x4Chhm1m71Y3z3Vza37WqNOrOAY5I8rDFtG0o5bJJ+UAHmH/AAVz1C5l+KP7OGiafqNvot5/a95NFqN06LBZu1zpyJPN5g2CONhvYsduFOeK+Nf2vde+Nl/4++DE3jX9ojwd8Qru21t202/0ddPWHQp/OtD9qvBAm0xZCv8AvMriNuMZr6//AGj9H8PftU/8FP8AwB8Ery0TWPDHgHSjJrkTNuhLBJLyRH29m320Tc53Ng45rwL/AIQH9jHwN/wUg+I/gz4j2WhaV8LtD0OPyrW8mZLOLUhb2O+OP59zSh2lyiknO/jIOADgP2v9f+Nd/wCP/gvN40/aI8H/ABDu7bWnfTr/AEdbBYNCn8+z/wBKvRAm0xZCv+8yuIm4xmv2N/ZV8YfEu68XanpPxV/aF8G/Fl7u1U6dp2gHT47qKSNi0shS2Cu67OvUDrxX8+vi3VPg98I/GvxH1r4T+ENK+K/w1127W10LW9Wsb9LfRLt/3pgIKxNI0cblVDZEqoki5xIh/aH/AIJo/sr/AAi+HXhpvi1pni/RfiH4t1T959s0cJ5GlLMpWS2jbCzfP/EJUjxjCxJhiwA39rb9iP8AZJ0GHxr+038Z/EfirTree4F5epp19Cqma5kWJY7eFoCSWdgApb1JOMkfAP7UH7J/7OPgn9kDT/2mvgPrfiq8j1u7s4rM6xc7FME0kiOWh8iFwcodpztIwwyCCfpH9qLVfiD+3z+1Jp/7Ifg3T9Q0H4e/D+9W88TX91by27SSL8pl2uo+XYWjswQPNZml5jAZfd/+Creg6L4T/Ych8LaDbJY6XpOp6NZ2kEYwkUFuGSNFHoqKAPpQB8geKP2Sf2G/g58Fvhh8TPjh4o8bWEvj/T9OlBsbgTQLc3NtFPMSRassUabywDOXKg7Q5Vq/Un9l/wDYq+Cv7N2t3vj34Vazq+sN4h09Lfzb++ivLd7Z3SZXhMUUY+baCGyQR+dVpPgV4Y/aN/Ya8I/CfxIqr/ang/RWsrgjLWl9FYxNb3CnqNj43AcshZDwxFfPf/BKj4pePL/4d+K/2ePiXZXMWs/CPUG0+GeVGMf2ZndTa+byGe2lRwBn/VNGF4WgD9YaKKKACiiigAooooAKKKKACiiigAooooAKKKKACiiigAooooAKKKKACiiigAooooAKKKKACiiigAooooA//9T9/KKKKACiiigAooooAKKKKACiiigAooooAKKKKACiiigAooooAKKKKACiiigAooooAKKKKACiiigAooooA8h+KXwC+C/xsgih+K3gzS/EzW6PHDNd2ytcQpIMMIpxiWMHgnYw5APUAjwrwj/wTs/Yt8E37ajo3wr024lcAFdSlutVi+U5GIr+aeMe+F56HivtOigBqqqKFQBQBgAcAAV4L8WP2Xf2fvjhLJdfFPwHpevXssXkG9kh8q+EQJIVbuEpOoBJ24fjJxjJz75RQB8WeEv+Cdn7Fvgm/bUtF+FmnTysACNSlutVi+U5GIr+aeMe+F56Hivsu1tbeyt47S1jWGGJQqIihVVR0AUYAHsKsUUAfNfxt/ZE/Z6/aO1fTte+M3hT/hIb/SIGtrWT7dfWnlwu5crttJ4Vb5jnLAn3xxXin/Drj9hT/omf/lZ1j/5Nr7/ooA81+E/wh+HnwO8E2nw7+Fuk/wBieHrF5ZIbXz57na87mSQ+ZcSSSHLMTyxx2wKzvij8Bfg18aoIoPir4N0vxMbZHjglvLZJJ4Ek++IZ8CWMNgE7WHIB6gV63RQB8OeHv+CbX7EnhjU01fTfhdaTTopULfXl/qEGG9YLu5liJ9CVyO1fZeheH9D8L6RaeH/DWnW2kaXYRrDbWlpCkFvDGnCpHFGFRFA6BQBWxRQB4b8cP2bfgv8AtH6dpek/Gbw7/wAJDa6LLJPaJ9ru7TypJVCu2bSaEtkADDEj0q/8FfgB8Jf2dvDN54O+Dmhf8I/o9/eNfzQfarq73XLxxxM++6llcZSJBgMBxnGSSfY6KAPiPxh/wTk/Yx8eeKNU8Z+JvhzHPq+tXD3V3LDqOpWqSTync7iG3uo4lLEknagBJJxkmveJP2f/AIN3vw5034S6z4Vtdb8J6PEkFnZarv1MQRx8IElvGllGwABTvyoAAIAAr2SigD4bsv8Agm3+xLpuvf8ACR23wutGu98kmya8v57XMoIYfZZbhoNoydq+XtXjaBgY+yNA8PaB4U0a08O+FtMtdH0qwQRW9pZwpb28MY6LHFGFRVHoABW5RQAUUUUAFFFFABRRRQB8T+Mv+Cff7LXxD+IviP4m+O/C0muat4nktprpLi7nEKzW2R5kXlukieYNqyIH8shQAgGc+peP/wBmT4TePPg/N8DYNOfwp4VkaJ1h8PuNMaMxsGOPKXYwcZVw6sGBJI3YYfQ1FAHhHwM/Zp+C/wCzjocmhfCTw3DpAuQv2q6Jaa9umToZriQmRgDkhchFJO1Rk5y7L9ln4OaT8f5P2ldI0ptP8ZXFlLZ3DW0nlWtwZj89xNCoAedl+UuTg8MQXAYfRdFAHA/Ev4Y+AvjB4QvPAXxL0WDX9A1Db51rPuALIwZGV0KujKRkMjBh2NfDEv8AwSb/AGK5JHdPDGoRB/4V1a8wPpukJ/Mmv0looA/Ncf8ABJn9i0D/AJFvUen/AEFrv/4uvpX4Dfsk/AL9mg39x8IPDC6VfaqixXV7LPNdXUsancE8yd3KJkAlU2qSASCQDX0nRQB4H8Pf2afhB8LPih4x+MXgzR2tPFHjpt2p3DzyTBmaQyymNZGby/NkIdwvBKrgADFeS6d/wT0/ZEsPG2sfEC8+H9rrGra3ezX8q6i8l1aJJO5kdY7R2+zhNxJCmM4zgcYA+1qKAOFb4ZfDmXwnc+A28LaX/wAI1eRmKbTBZQCykQ/wtAE8sjgcbe1fPvwo/YZ/Zr+B/wAUp/i98M/DLaRrksE1vGn2mWa2txcEeY0EUrN5bMPl4OApKqACa+vKKAIBHGJGlVQHfAJwMkDpk+2a/M7Wf+CTH7Kuv+J73xJqcviCSO+u5rtrBdRWOzjMzlzFGqQh1jUHagD5C8ZPWv04ooAytC0TSvDWiaf4c0K2Wz03SreK0tYEztiggQRxoMknCqABmtGOGOLd5ahdxLHAAyTyT+JqSigAooooAKKKKACiiigAooooAKKKKACiiigAooooAKKKKACiiigAooooAKKKKACiiigAooooAKKKKACiiigD/9X9/KKKKACiiigAooooAKKKKACiiigAooooAKKKKACiiigAooooAKKKKACiiigAooooAKKKKACiiigAooooAKKKKACiiigAooooAKKKKACiiigAooooAKKKKACiiigAooooAKKKKACiiigAooooAKKKKACiiigAooooAKKKKACiiigAooooAKKKKACiiigAooooAKKKKACiiigAooooAKKKKACiiigAooooAKKKKACiiigAooooAKKKKACiiigAooooAKKKKACiiigD/9b9/KKKKVwCiiimAUUUUAFFFFABRRRQAUUUmRSuAtFGRRkU7jsFFGRRQKwUUUmR60XAWijIpMj1oHYWikyPWjIoCwtFGRRkUBYKKMijIoCwUUZFGRQFgooyKMii4WCijIoyKLhYKKMikyPWgVhaKKKVwCijIoyKdwsFFGRRQAUUUUAFFFFABRRRQAUUUUAFFFFFwCiiilcAooopgFFFFABRRRQAUUUUAFFFFABRRRkUXAKKMijIouOwUUZFGaBBRRRQAUUUZFABRRkUZFFx2CijIoyKLhYKKMijIouFgopMijI9aAsLRSZHrS0CCiiigAoooouAUUUZFABRRkUZFA7BRSZFLSuIKKKKYBRRRQAUUUUAFFFFAH//1/2e1XUtRj1O6WK6lRRK4ADsAAGIAwDVD+1tV/5/Jv8Av43+NO1f/kKXf/XaT/0I1nVg5tGhp/2rqv8Az+S/99t/jR/auq/8/kv/AH23+NUKKzuBf/tXVf8An8l/77b/ABo/tXVf+fyX/vtv8aoUUXAv/wBq6r/z+S/99t/jR/auq/8AP5L/AN9t/jVCii4F/wDtXVf+fyX/AL7b/Gj+1dV/5/Jf++2/xqhRRcC9/auq/wDP5L/323+NfLninxj4vg8W6rFb67fxQRygLEt1KFUbR0G7ivpWvkvxaNnjbV164mH/AKApryc3m1BWZ7mR0lKo79jbt/GvjBl3f27f8+t1Kf8A2aoNQ8beM0gLpr9+CPS6l/8Aiqw4typuU43VlarzbmvEjVl3Z9VHB039lHkPxA+KPxMtIJ2s/F2r25UZHl39wp/DDivJvAfxB+Nmta1DLc+PvEUlsXPynVLsqQOnHm10fxBTfBNjuK6z4KeG4rmXR41TAnIVvXJ4GPxxXXha83K1zmxeFpqDfKj9JpH17UvCTaSdWu7e5ubJoPtCTyCVJHj2+YHVgwcE7gQc56GvwYuvjX8f7S8e1uPiD4kWUEhw2r3qpGV+U5JlwBkevJr9+EUKoVeg4r81bT4OeGvDfj7xBruoWsV5cyapey2cTDzIYI2mcq7K+VeZgepGEHCjJJrtzac0ouLPP4alSTmqkUz5m8L+Jv2sPFsKN4e8VeLdRjII84ateQ2wPqZpJlBH44J+te+eFfAP7SV26SeMvjDrWlRjpBZ6te3UvTHzSNKqdvfnNfRFvNLNEquxIXoM8D6DoKvRNtGK8P20/wCZ/ee9OrBv3aaXyRxb/Du/Kr5vxN8eySAfMyeJ7yMMfXaDgV0Oj6BNpDq48WeLr9x/z9+KNVkB+qpPGK0/tAZimelWI4mkAYVv9ZqdznlhYPWy+46oeMvFMMC29vrF6qKMc3czt/327s5/E1Tk8WeMRgjXNQX/ALepef8Ax6stIyoAPNE2Nu0jrR9Zn3Jhh6f8qI77xp41UELr2or9LuX/AOKrzXW/iX8QVn8uHxNqke7oFvZgP0bNa+uXKhGVWwV6/j/+qvILxhJfcEfLzzSeJnfc2WFpv7K+4+m9B8Y+M5rBHfXtQZsAEtdysenqWrK1zxv40jiZovEGoof9m7lA/INUfh7H9nJkdhWHrcW+NjuI2nt1NU6831M44amn8K+45eb4l+P1O0eKdVbH/T7OP5PXJa58RviBeWk1o/jDW4llUruh1O6hkXI6q6SBgfTBpusIOWA5I5ryfW7loN2WBx6Gs3Wn/MzZYOn/ACr7jyjxbrP7SWmzGbwv8XfEtzB/zxutavElH/bQS4P4gGvHdS+Mv7UunPs1Dx54wh8sYJXV751+u5JiK91v71pmdp8Z9hXOT3amIxjq3etaeJmtGyHhoL7K+48UH7Q37Qq8P8T/ABWjdw2s3yn8jLXbeCPjN+0N4m8U6ToFv8SfFM8mp3cFoqDWr0lmuHEYAzLnI3buOgBNZOs6Ta6pMPtMQO053YwfwPavqD9iL4ZRyfGpfExUzWWh2dxPGSRlLlgsS7h3G2Rip4wy+1dNOpKckrmNb2VOnKXKtux+jP7T+r+OIfhHf6l4X1+/0m9sZYpfNs7uW3lKndHt3RsCRlwcZxx7V+LR+PXx+jvXik+JXiYhTj/kM3v9Zq/d/wCKOmR6t8OvEVhIoffZTMoI/ijUuv6iv5/Na01bXWZ40GFVjXrYqq4tWZ85lVGNSLuj2vRPjn8bJUDyfEDxCxP97Vbs/wA5a64/Gb4yjGfHuv8A/g0uv/jleLaEmCmer9TXVSwjAwcYrxa1ebloz6engqfL8KO8/wCF0/GT/ofdf/8ABpdf/HK+7v2R/HnjbxLpmsSeIvEOpao8W3abu8mnKnJ6eYxIzxwK/MiVMHGc4r79/YtlZF1u1ZT90OfcFgB/KtcFVm6iuzzs2w9ONBuKP0G/tTVP+fyb/v43+NH9qap/z+Tf9/G/xqjRX0fMfGF7+1NU/wCfyb/v43+NH9qap/z+Tf8Afxv8ao0UrgXv7U1T/n8m/wC/jf40f2pqn/P5N/38b/GqNFFwL39qap/z+Tf9/G/xo/tTVP8An8m/7+N/jVGii4F7+1NU/wCfyb/v43+Ne1V4PXvFa03oyZHi39q6r/z+S/8Afbf40f2rqv8Az+S/99t/jVCiocmUol/+1tV/5/Jf++2/xo/tbVf+fyX/AL7b/GqFFTcC/wD2tqv/AD+S/wDfbf40f2tqv/P5L/323+NUKKLgX/7W1X/n8l/77b/Gj+1tV/5/Jf8Avtv8aoUUXAv/ANrar/z+S/8Afbf40f2tqv8Az+S/99t/jVCii4F/+1tV/wCfyX/vtv8AGj+1tV/5/Jf++2/xqhRRcDh/ij4i8QWXhfzrLU7m3k8+Ib4ppI2wTyMqwOK8StPGnjRgS2v6gR2zdSk/+hV6t8XAT4PbH/PxD/OvArMlo+T0r5zM60lV0Z9fkdGDo6xvqdwPGXi8DnX7/wD8CZf/AIqvM/Fvj/x7DFKbfxLqcOASNl7MuPyeuikDBVIOOteVeLeYmjrijXn3PZWFp/yr7jwe/wDih8Z77xM1hYeOdfjRATtTVLpR+Qkr9HP2edW8ZzeEp5/EGvahqUzOgEl3dSznhcnDOxPOea/Ofwjpy3Xja6Z/myn5EHrX6c/CixWw8F2ioMeYSx+vA/pXrZdUlLdngZ5RjGHupH59/wDBQjxz8YfA3jfwtq3g3xxr2i2er6fLF9lsNTuraEz2kgLSFIpFUHZMoZj2A9K+b/h9F+2z4+gtdU03x74pt7G4UOLq/wBevrO3YHoYQ0pllHuEx6ZBr9Rv2ivAnhrxi3ha/wDEVqL7+xrmeaGCQZieRlXHmj+JFKhtnRiBnIGK4myneRhI/J7k9f8AIHA9K6MbmzhaEVqcOWZPGtHnm9DxDwx8JfjgJUuPHvx58X3jK2WttJ1a8giI9DNLKX/EKK+qfDeqa34ZsTY2GvazdAnJkv8AVr2+mOOmXnlfH/AQKwYmG8ZqSZ9gL7SfpXi1sxrT3ke/RyyjBWUTtk8f+MISQmr3PP8Aeld//Qy1RyeN/Ftw25tbu8n0nkUfkCBXJRjzemRj1FW4oSAcc5/CsVWn/M/vNlhKfZfcbp8V+Lev9uX3/gTL/wDFVQvPGPi6OP5ddvxn0upf/iqrNGAOMVzmrXEaRHJ5p+1n/My44am/sr7jG8QfEnxzbKyxeJdSU+q3cwP6PWh4I8c+O7xZPtXiPUpkDD5nu5m4693ryDxBP5jlRluecDp613Pw6GYJD25A9cYz0/GnDETvuVLB00r8qPWdX8aeMLdDJFrl8G/6+pf/AIqvJ9Q+IfxCikwviXU+f+n2f/4uu91eATKyHj3ryLV7d0UuFxjt2rR159whh6f8qILz4rfEBFOPFOqLj0vp/wD4uvHPiB4y+JPiW22RfEXxTpEwBEc2n63e2xHT7yJKEb8Vz71c15mhDfLnFeWX13IGz6VEcRUTupMqWDpNWcUeP63f/tc2ryHw/wDGzxLfxKTgTa5qEMg9jicr+VeXa78Vf2xvDsL3Oo/E3xY0SHG6HxDfy9O5Amzj3xX0VLe7ZG8vucmuT1eF7h8Ffkb15B/CvUo5rUvaWp42K4fo2vHQ+edO/aU/aVuLlYv+FseLW3dv7ev8k9gP33U9K/pK+GNl8QNI+DOgeHfFevahd+JF0qNb26nupZLn7XJHukLSsxcsjtgEtnAHSvxA+Gvwf8N+Ovij4Y0sRrYSvfwSM6LxIkUivIrqCASUDYPXI9K/oLb9a9pYmNWN4nzOJwcqM+WR+CHjn4y/H7RvE91ZR/EfxNEsbcousXgVT6YEvFWdD+Ofxzm2+d8Q/ETBuBu1a7P85auftF+Hl0/4oa5Ci4WO6nUfRXOK800OBkQbu/8ASvGr4iTur7H1uEwdOydtz39fjP8AGPbn/hO9e/8ABpd//Hai/wCF0/GPr/wnev8A/g0u/wD47XFtG3kfOPSqMq9K8115vqej9Vpfyo+3v2U/if8AEbX/AIhSWXiPxZq2p2/kMRHdX08y52sc4dyO3pX6Q/2tqf8Az9y/9/G/xr8lP2SXMfxZhA53xSfhhGr9X693LajdPVnx+c01Gtoi3/auqf8AP3N/38b/ABo/tXVP+fub/v43+NUKK77nkl/+1dU/5+5v+/jf40f2rqn/AD9zf9/G/wAaoUUXAv8A9q6p/wA/c3/fxv8AGj+1dU/5+5v+/jf41QoouBf/ALV1T/n7m/7+N/jR/auqf8/c3/fxv8aoUUXA/9D9kdU/5Ct7/wBdpP8A0I1Qar+qf8hW9/67Sf8AoRrxP47+CvHvxG+F+s+Bvhz4gi8L6prcf2Z9RkR5GhtpOJvKEbKQ7r8gbI2gkjkCuaRofLkf7bEOtx/H7xJ4FsE17Qfg/p9g1gUyBf3kjXgupt4zm3VoUUEA5VHcEhhjvPgZ8cvG/iX4mah8MPG2reHfFSx+H7bxDHrHhpZY7O1E8oiNpc+bNON7g+ZC+5S0asWQcY+aLH9l/wDaW0mw+MPhXSjoGmab4h8PeH9M01tKSayjvRpPmBraJpLuea3V4WkguJJhl2mV42UK+d3R/wBnnxx4ju/HT/D/AOH8fwL0nX/A0/hxrL7XaldR1eRw0M8kVhJNGEgQyR/aG/fSCUnBwalpAfQ/wk/ae0H4veMvHep6Bq2jt4B8HWzRxFJ1k1O7mt9zXV6YlkzFZYGyIumZSC6nAweD8K/tBfG8Wvw8+LPj3StGg+HPxN1C3sba1tknGp6QmqnGlXFxcNI8M6znaswWOMRmRCDgGuU8O/BHxV478X/D+O6+E0Pwm0nwXpWo6dqt5FdWchv476yez+xWospHaWDe32jzLhVOVyFDEmrvhr4b/HLXfDPwt/Z/8Y+Ff7K0H4a6lplxqPiEXltJa6naeHyDp8dnDG7XKvcMkRlEsaeWquNxYrkA/ROiiikAUUUUAFfJnjH/AJHjVx1/eqMev7tTX1nXyZ4x58catj/non/oC15Ob/w16n0HD38WXoVYXZUAHQ9R61l6scRsPr/KtENlQvp/h/8AWrmNakZkbb8vWvn4n1lM8J8dgeRKhr3/APZ901GGiSLztOce6pkfyrwDxiRLFIpX7vv74/pX1X+zzDusdPlz/qlbj1+TFdeD1q2ObMlbDtn1lXxp4pDf8JNfuoyWuJTj3LnNfZu6vjbxGjNr+oRr1W6l5/4Ea9POHaCPneH/AI5EUUzJhl/+t+dbUDL8wY8Yzj1rFQbo1bpVmO4jXP3m5x7Aj1/z1r58+nNNowxMifKRWlbLvjHbFc8l2xJ25P0rThkdhkNTWpVjaCbs89CRWRfzbI27EDipxeKvVsVy+rXhZX2kAD1qxRVjj9eulV5FZt2O5615hJKJLwYwSxOcj14rpddleRsL8vf1rCsLUPPvxuI656c1Nzc+iPDrhbCJvQVFqqjGcZGeDUejPss1QghgBkHiq2q3hVG+bDdR7VomYtHmPiHy/mY8YFeD+IyF3AHA7CvXPEF+rKUR88da8e1OJpJZJByT1rPmNTzW9duc8Z7dqda6as0DzzkbMdBzWpfWohyW5HpWVPqQFoYc54JzVJkzOWv4lWbKcKe1fZf7DUrL491+3BwsmmhvxSZR/U18VzSNM25q+0f2If8Ako2sKD/zC2H5TR134P40eRmSvQkfpZrlt9s0XULQjInt5kI/3kI/rX4L+ONKW21yfzPvE+nHHvX7+OvyketfiD8SbFIfFN0qthFbHT2FejmUrJM4eG4350cTolmjBueF/I/SuomtSQoKcVFpcCDYq8ZFdLLbMYMDkrXiyd3c+ncbHCXcSxg4r7s/YnAk/tyUgBwiLkcZBb/61fEuqW5VSzfL/Wvuf9itMWevTA5UtGB+f+ArqwP8RHk5z/AZ93UUUV9IfDBRRRQAUUUUAFFFFABXvFeD17xW9ImR4PRRRWLKPjD9o/4l/tDfB/R9R8Z+HNS8JXGn3F3BY6LpVxpWoT6nfXt26x29qJI9QhjaR3JOVjAVQSQcEnFm+K37T/ifW9e8IeBLXwwdZ+Hel2MviCS4t7t7fUNbu4Bdf2bYBbgGGNIcbpnaUlnQbRhq9NX4e+LfHf7Rj+OvHtmbTwf4AgEPhi2Myy/bNQvYgbvU5I0YhTCh+zwK/wAwzI+FyM8P4l0f40fCb4ofEXxJ8L/B7eNNO+JUFnd2rRXlrbDS9Zs7UWbfahcyITayxpFJuj8xlKuNoytAGbp37RPxH+OV/wCG9G/Z0g0nT3u/DNv4m1O812OW7htWvGeK109Y7eSFvNaWKTzJc4VFyFJIFZ/jP9r7U9K/Z08OfEqzsbLRfGOv65D4bls9QSe8tbC/t7p4dRaVLd45Xhgit5pFIcHGzOehyfAnwb+Jf7K17oGreBfDMvxDs7jwlY6Bq9rY3NtbXEWq6dJNPFdRm8kiQ28rXEiMA25AA208gdT4B0H42fAfwd4Zik8Aw+PbzU59X1TXjpl3bxX1lqurXDXe22W8eKJrdA5ikIkDkgMBjOQD6M+DHinWvGfgGz8Ua1r+h+JzqDyPBf8Ah2KaGwkgB2gBZprhg6sGV/n4IxgEEV6vXzd+zJ8PPFnw/wDBeuS+NLKDRdT8Va/qOvHSLSRZrfSo75l2Wkci/KxUJvkKfIZHfb8uK+kaQBRRRQAUUUUAeY/Fttvg9s8/6RD/ADrwW1TbGO+QDXvPxcG7wlt9biH+deDwr5cYHWvm810q/I+0yH+D8yad1SIKx7Z/p/SvLfE7LIH284r0a6kVIiBy3cenpXlPiJmUSFTjNeee3FHE/DG18/xrcHGcrj9a/Tbwlb/ZfDdhCBhfL3D6MSa/OH4Txk+PHH95cV+melxJDptpGnAESfyr2cnV0z53ifTlR4/8ZTvt9Njxj5pf/ZK8O0/ckWWO6vdvjDHiy0189JJB+ag/0rxKyiMfyg8ivOzP+KzpyiV6KNa1kYx/KcVsEhxgiudMqQlY2GCfy/yaek00zBVAGDnjgflXDzHpG7aqscpwMID1rZgKEbQ2cVzFsS5KHr61oGbyt3GcYrSG1xyhoWrx1iDFetec67eKoZFOCMg/T/69dPfaghRgWxtry7WbneGRMgHrmm2VTgcTqt157Minc0jYFerfD3/j2f3ryvyULKpH3jivWvCSNbx7DykmDg9ePU0oltXR3t5KXj+btXmGuvsQxynoRkV3WoXaxJtI9e9eSeILx2Mm1dv4k/zq2xQVjynxLPEQRIPmOce9eQX3mHcF5x+Vep6pDcXbblGQOa4rULUQxhmGOtZplnL6Zp6zuZZuFQZxWHq7xOz+WoAU8YrQfUFgaSJORXM3bu8zc1ZEz0/4DytD8YfCEi/9BK3Uj2ZsGv28BzX4f/A0Z+L/AIPX/qK2h/Jwa/cIivo8t+BvzPjs8X7yPofkL+1foq2vxM1N9nMzhwfTeqt/WvnrQrJpHjDKCq5OTzg19h/tdwrJ8QHB5zHEf/Ia18w6XF8wVF2gn8q8rE1PfcT6vBRvQg/I2vs+6D73QDtWJeRCNWArtUhXyPlHUVj6jZtHG24Zz/SuE6T2f9kVM/FqI5/5YSn6YRua/Vavy3/ZCjx8VZHznZbSHHr8jCv1Ir6LK/4Z8Tnr/f8AyCiiivSPFCiiigAooooAKKKKAP/R/ZHVP+Qre/8AXaT/ANCNY1/qNhpds17qdzFZ2yY3SzOsaLk4GWYgckgda2dU/wCQre/9dpP/AEI18aftq6fPq/wu8N6TbWFlq0174y8MQJZakCbG5aTUYlEN0Akh8iQnbJiN/kJ+U9DzSWpoz6N17x94M8NaJaeI9c1eC20y9urayhud2+Bp7uYQQr5iAgBpGC7jhQepA5rR8UeJ/D/gnw5qPi3xXfR6bpGlQtcXVzLkJFEgyWOMk+gABJPABNfz/wDhXwfNLd+Hkb4aeFvEs1jZ+Id+lpYa7qjG3l1+9ignk/szSJhCtvNbzwwjzPniwWVGwB12q+ItS+GX7K3gzwzaXfhTTY18XTJeaXLbalG2v6nYSQqy31vNb6e8MdrcANcoUwFigTczZR3yCTP3DufH/gWzl8i/8RadaS7Ufy57uKKQK6hlJR2VhkEHkVpTeI/D0GhXHiiTUYP7HtYJLmS8EimBYYQWdy4O3aoUknPGDnvX5y+OfhZ8K/EHh39n/wAR6vp2meONX8SeL9PttX8QXujwQXesqdN1AyC4V4I5GhLxLtjlU/KiZ3EBqvftvaTrPg7wp8PfB3hzU9M8GfCzUNatdLv9MstEmvQ5aO5vQHtbJ0MtoPs4328SqZCxLlkytMZ9++GfHfgzxla2974W1q01SK7t0uovs8yyM0EihlcqDuAO4dRwSAea6yv57dL8ZJ8I9X8dfHLwhrGj6V4l0KN9O0Wzg+G19ptnqGnRrHKblXiMUVm88kjxyNOGkCxAB1Rttf0JVEo2EmFFFFSMK+S/EsqzeL9XlXlTdOo/4AAh/VTX1hLLHDG8szbERSxPYAda+SZSL67uL0fL9pkaX8HYmvGzmXuxR9Dw+vfkynM+xc4ziuQ1S4DqykjJyeTWpq90yZQ8Kv6ntXEvO8xzjp714B9cee+JgGEif3q+tf2dk3aNbPnoGH5DH9a+T/EtsHjd3GMnNfUH7Nt0Gsfs5OcM3P4ZrpwD/fowzeNsLI+tK+QfEp/4qjVUH/PzKfzY19fV8n+M4nj8X6ihH+sk3Z9yOa9fOV7iPlsgl78l5GImQrKeQazZ43hlZYnJHoDmt2IHcGAzim3tr0eP3r5s+suOUBrfIwGPTPcmr9kyugyo5J/Ssa0kLjyi20Lz9a37I7Fz1q6e4mijqEwQbQcba4q/k3qFByxrd1q5cyHac+vsfSuScM/OeauRpc529tydxB6du1SabbRCRWA4PT6CtOW3EibWJbPvU8FusC7etSOx2NpfFYuTzjb+B/ziua1i5lkOIgWOOgpyTkoVA/xJ9cVBJ82CRzQTFWPPr+1+0Oev41gX2neXGeM7efrjtXpM8KRjlc1w3iO7WO1lDKTwDx7igo+fPFV20U+2PjB9a4TziVZSOvvWjrl01xfuSSfr1/OqlhAskjbv4RmtCZlUxuoy1fZ/7EEbn4h65OOkemFT/wACnj/wr44uTtYrX3B+wvbg+JvFV4f4LK3j/wC+5HP9K7sA/wB6jycz0oSP0lPSvxh+KsCr441WFOFSeQf+PV+zjtsUtjOK/Fjx5dtf+KL69Ix50jN+ZJrtzjaKOThaN5TZlaeg+XHFdZbosiqzDoMj6GuWsW2Lu64FdppDB0yp49PSvDbPpp7nJ67ahozgcc19jfsVMPsPiJSc7WiI9x83NfMup2TSwEsOgr6F/Y+uja+J/EWiybYzLapMO2Skmw/oa7sB/ER5OcK9Bn6BUUUV9OfBhRRRQAUUUUAFFFFABXvFeD17xW9ImR4PRRRWPUo8s8cfHH4OfDPVIdE+IfjXSPDmo3EIuI7e/vIreV4GZkWQI7AlSysoOMZUjsap+Dfj38E/iJrS+G/AfjnR/EGqujSi1sb2KeYxp95giMTgZGa+Bv2ytJ8TyfF258Y+CjLLLaaDZ2srRw2E6xSWc17KQrSa1YTKZIrp4pUNvIDGx25LYHAfsTaP4ovfGvw28W+KTILew0Jo7SVorCJZEutN0+0hiLrrNxOyrFYxCJUsomLu7SKpYhbUUB+tfiLx54L8JajpWj+J9btNKvddaZLGK5lWJrhrePzZdm7+4vLHoMjuRXQ2eoWGpWsd7plzHeW8oO2SF1kQ4JU4ZSQcEEV+E/xy1XxsPih8XZviXrOjeLfGfhpLO00bS5/BFzr1m0NxaR3qRWcrtLb2TKZ8O8od5CoZiVwB9R/sVeKY/Bnj+z/Z38HeJLfxJ4QsvDV7q/mf8IvfeHLhL6O9tYiz/bZGNwZVnZnZQApCqu1QAFKIH6gUUUVABRRRQAUUUUAeVfFudl0K0tU5M1ypx6hFY/zxXh+fLjz1xXqfxTuvtGqWenKdyW0TSN9XIA+hwufxryjUJFgiY52gdTXzGY1FKs/I+5ySny0FfqYOo3owVzk/hx+Veda/IGgJABz61r3kzSTCJO4wT9Ko38BaAspyB09685NHsQXvGP8ACmRF8foW43DFfpnaH/RIP+ua/wAq/L3wNMtl48tJACquxU5Hb/Ir9PbD57G2bpmJD+Yr28jekkfO8VR1geU/GJf+JVpzZ6Tkfmp/wrxRYhjjv3r3b4wJnw5BIDhkuFI+u1q8QhTdGOR+HNcWaxtVNcm/gIr3cQkh2kZ5FO00+WxXrzn861FWNrYiSsZ42hkBX58fhXlyPZia1sWWZih2hhux6Vo3x2xBf7wzVGMqjBs/KAABUGqTNJHhQHJzwe1b09hNHN31x8sny/rXM3ESuwYkfjWvOrl8yNuJ981QEEY5A57HuPpTkaHPWttF5p4/iNd3pk/2XA9MfjWJDBHG24DNWfOVVJDEfSpEaWp3Mk4JRvu/1rg720aY4YA/XtXUmTceef61RucKRigRw0+l7UPA5rxXxpcCAFUPHavedXuFjiIZsZr5a8a3M1zeFc9DQM4vzW3Fu5p7Qurl3I+b05pLaNWlXdzg5rQvDH82wVbZm5XPR/gDA0/xo8JxJ1F/G4/7Zqz/ANK/bOvxp/ZktmuPjj4YCnGyS4c/RbeU1+yoGK+hyr+Gz4/PX+9Xofmp+1zsfx9HtOcW8X8q+YNMXJC9MkV9E/tS3y3fxLv4k5W3SFfx8tc/rXz3aLtO7+8a8fESXtJW7n2OCjbDQXkdjYqJBtPBpNZtpGhJxjBNGjOWlZT2xXSvZm8R1HXGQPWuWRZ1v7JmIPi60JBQyWsuM98Ka/UQdK/KT4M3X/CO/GTw/ctwlzMbZj/12Gwfzr9W6+jyt/uz4zP4/vlLugooor0zwwooooAKKKKACiiigD//0v2R1T/kK3v/AF2k/wDQjXmHxN+Fvgn4weGV8H/EDTxqekC7trxrdmZUkktZBIiuFI3ISMMp4ZSRXp+qf8hW9/67Sf8AoRqlXNI0Pz8+I37DmleJ/Htlq3gWPwvoHhjStAttItNO1Hw6usrFIt7eXczwxNcW6Rbzc5LZdmbOcd+m+Gn7KPjDwd8P7fwI3xCn8ORW+sazfvJ4Ws7Wx8+31GZZIo4/tMNw1msYBHlwsQAdu9tqkfbgGKWp5mB8X+I/2VfH+uz6HGnxu8Q/YfC2orqukR3lnp1/cW12kcsSyPdTwGWchZ5BiYsuCBj5Vx6J41+CfjHxh4J8H6VP4+lk8W+C9Zj1y21y7022kE9zElxCqz2dubaIxiK4ZMRtGcqrEk5z9GUUXA+X5fh1+1Y8TRp8Z9GiJBAZfB4yDzyM6oRxnuCPUV7T8N/BS/DvwDoHgVdSudY/sOzitTeXbF57gxqA0jkk8scnGTjOK7eik2AUUUUAcj45vo7Hwxe7jgzr5Kj1Mnyn9Ca+d2QRxK+e2MfSvWvihKZJtKtM/KGklYe64C5H4mvHdXnMNi+xcu3A5xjPU181mU3Kpy9j7DJKSjSv3PNNevRJPkSDDZwRUOl26yxeax+6en1rF8RS5YMR8561ueHh5lgrj7uBj0NeXF3dj3kzmvFECLGwPXByPSvXP2bZTFqj257b/wAPlrxzxVeqjuin5D2r1P8AZxcPr7AHgGTj1JXI/rW2ElbERHmTvhp+h9zV8seOELeNdQx2Zf5V9T18meK5Vk8Z6qV7S7fyFe1nUrU16nxuQ/xH6EHyCE7hnNU4rhZ5GiX7wPHvWokYePmqyW0du4kPzEk5OPWvm0z62xnWPEjf5NbGQg65BrNEbQmSQgkMeOPSnySkAhOp71cSkY9+WO7accmuYkm/hXk10F67swGeTnArmZmYNtJDY96tssQmTvzjj8B3qR5GLbgOGAI57E1EjqM7uP1qPzB5mzaf+A+lIVi0yuCpBxgY/KlknWM8NhhVSZssy8jNY9xMxy39eppNhcde3+M5PJryPxXqSyQOqnPyiux1CbAbjNec6uhlD4qVMDxi+iPnkt1Pf1qraOdxUcZrqNXt1/EHiuSicJOe1a30JmTzqd+T3r78/YTt48eMpwMFfsCf+jzXwI4YnLV+hf7Cy7dP8ZL/AHZrED6bJa78u/io8zOtMPI+4fEN19i0DU7z/n3tppP++UJr8XNfbzdSlYHdz1+tfsP8Q5Wh8Da9Iv8Az5TqR7OhX+tfjzqq4vH785/Ots7l78UZ8KL93NiW6bFIP3R1NdXojMU2Iu4luOfWudXP2UnACbd2TXY+FLaSeMSMmMseCefx968yx7lV2Z2UViGtdztnI6YrW+Deqr4S+LelXBGItSf7G/OOJuB69CAauxQiSHEfyn16/pXC628+lajZ6lDJk208cnQfwNntVUpOMk0cuIgp03E/WWiqdjdxXtlb3kHMc8aSKfZgCKuV9imfnLWoUUUUxBRRRQAUUUUAFe8V4PXvFb0iZHg9FFFYso+KPHX7Gnhj4jeN/FfjfxBDoKXer3mjy6eRoNpcGKHT50uLv7WZQHuJr354ZHLgLHs4bBWotG/Yj8A+GfFWk+MPDlvo1nqGh+KLnW7Rk0CzXZpl0UZtObYVJe3dS9pdAh4PlCoQGD/blFHMwPl7WPgp8UdP+I/i3x78LPiLaeHI/GktlcX1pf6ENU2z2VpHZq0MovLbarRxKSrK3zZIIBwJdM+D/wAaNS8W+G9c+JXxTh1vSfDd6dQSw0vRP7Ia4uBDJBGJ5xe3BaFRKzGLaAxC5PFfTW2nUXAKKKKQBRRRQAUUVl63diw0W9vScGCJ3H1AOP1qZSsrlwjdpHzvrF3/AGvruo37/MjylEPqsfyj+VeeeKJhGm1/u9c579q7C3Vba2UMcYH/AOuvNtclkLzTyHdg8cAcV8dV1k2foNJJJQXQ5C0lE98Fzk+vvXSX0UQttiL0JUDsffNcN4cnM+r+VHxjPPXkdPzrq/Ec6W9qUwRx0HOD61hFaNnZHdHnumnyPFVu/X5wK/Tjw5I0uhWMjckwp/IV+Wulu5123fqvmKPwJ5NfqR4Y/wCRfsP+uKfyFexkMrykeLxUvdgzhvi86r4bgVjjdcKP/HWrxe0A8vKHLDofSvXfjG6/2Pp8J6vcZH0VTmvIrHGwDHWubNp/vrE5N/ARTvbhxKDGp2/zptxHukhkJ5bFb7RK7Et3BHuM1nyQLIilv+WZyPXJrzLWZ6sZEyS7EC4zWVeZ25qeSWQbkzh85+mayp2VlIHauiMrGxz10+GLY9+vrWfGFLbw2SOv17VoXMKMQRlexAOADWdnYwZ2LY9eTSk7iJ2/1bf5FAyqfNjc/rxz2qk8zO25chj1weD9asskhUGTGT2xwPpSAWS58pck1h319Go2gZP1qS4ckt6DqPWudvQ4Xeh4NQ5gjmtf1GV43RDXg+rwySyeYBwxzXseqB3Rjkkn19q8+1OAkMV6dvpVJhc8vYETjPvV64/1dVrsfvSvoalLhwCK0aJlqfRH7J0CzfG/Rt3/ACzhu2H18hx/Wv17r8k/2TRs+NelH/p2vAPqYWP9K/WsHNfQ5V/DZ8fnf8aPofkn8c7r7f8AELW7gn711IPwVio/QV5bax+ZgjtXdfEdzL4n1B35LTyH/wAeNcbYlWg3MxXJJwOtfPSleT9T7lRtSjHyRraNJvunEbYyp+gPavVNOsW8jDjc3c+tee+G7G4a4lkbKoxAUDsB6+p//VXs9hDhWTPGMfXNDRzOR5xqouNM1C11SzJSW2lWVSOxQg1+rmjanHrWkWWrwn5L2GOYemJFDf8A1q/L3xXY2yWkiBOgIye+a+9PgJqT6p8KdBlk5eCJoCSck+UxA/TFezlM/ecT53iGl7sZHsNFFFe4fKhRRRQAUUUUAFFFFAH/0/2Q1P8A5Ct7/wBdpP8A0I1Tq5qf/IVvf+u0n/oRqnXNU3NAoooqACiiigAooooAKKKKAPn3x3fNe+Kp0/58o44h7Ocs34/NXnGtD90H+tdVrcqyeJdWmHLfaJVP/ATtH/oNcjq+54zuOc5r5LEybm2foOCpKNKNux4j4pCTHYwyc8V1ug7o9F3sOF5Pr+FczrykzELW7pcqjTgrLkKD3rhh8TO1aHn2tGYzszoAx5wOOMnH517r+zci/wDCQuyjHU/mprxPWUQMZFOS5yfWvpj9mawZzf6jIM7BtB92wP6GunB028RGxlmc1HCzbPrevjrUHF54j1KePo91MR9C5NfWOtaimkaTd6lIeLaJ5MepUZH+FfItiH2h5MFj1JPfvXpZ9UuoxPm+H6TblI6G2fClcdKdOAVA7moIpVUYPFRO+TnrXgX0sfRoLhSU64xWLJEfnBPHBz3rbdxj/PTtVNx0rWJalYxriHEfTd+lYU9vjf5g64x64rsZYFK5bnHT6VjXMEaq0khXOc4I9feqLOTe3Y9DVq3tiAf4iO/Sqd/qkNpEWJwe1RaPqpv5SEcNj9KlyAvXEG04z96sG8hVRheK7CaGdTkiuYvYjxtHXrUiOD1GX5mTaR9a4S+kX5t3Fd1qsSjczc5/CvPrtMynnFZlnFayvmbtgwV6+9cI8Ikm2g4zXpmtJ5cG3rz171wtvb+bP65raJjIa0bLjPevu/8AYdu9l74v0/OGkSxm2/7pnTNfEd5AsQ2jtX1x+xfcCP4ga3bqdiz6YWPfmOZMf+hGu/L5Wqo8zNlfDyR97/EmJpvh/wCIVTqtlM/4IpY/oK/IPUVMt8wQZLGv2Z120+36HqNgOtzbTRD/AIGhX+tfjxqkCC9dV4x/WurO4+/FmfC0l7OcSpbQtMywLgP3HYe4/wAT716xo2lm0hVT97GOOn4Vymi6akk6yjD5xyK9b0+1RVRSoGPQ5rzD3Zq7LlvABHycY615p4yRRA0i8MpzXr7RqqELxmvHPHRCwSY5poz5D9LvhpePf/D3w3dyNuaTT7bJ9SIwP6V3FeTfA6dpvhF4Vc9rJAPopIH8q9Zr7Cl8CZ+dYlWqSQUUUVZgFFFFABRRRQAV7xXg9e8VvSJkeD0UUViygooopAFFFFABRRRQAUUUUAFcL8Rbj7P4Wnjzj7Q8cWfYsCf0Ga7qvKfircbbHTrXP+snZ/8Av2p/+KrnxUrU5M7cuhzVorzPJ25TeOm3A/GvK9fYqjjrXpd0+6P6V5rrwBWTP+TXyZ97ZdzhvDAMer73OCBkfj1rS8W7pXyrHapwmDgknqT9KztICwXO88Hsfer+r3IkLqWyoBUetYx+Fmy3scXo0Esut2kStu3ypjPByTzxX6laJH5WkWUec7YUH/jor81fAunyan4usrSNS+6Rc4HuB/Wv08RVRQijAXjFezkMPikeDxXUt7OJ4X8YLhprzSdPXoglkb3zhV/ka88hUBBitTx1qS6t4vvJI23xWpFuvP8Azz+9/wCPE1hxzEfdA/EZry8fUUq0mjry6k4UIpmx5oAyRiqYbjceSetDTbQBt/XmoQ6hSW6Dt61yLe51pFOaFTLlufmH6VUe3XaWY5xz+HrWk3OW9KUQ7+9bxd0aqVzlp41O0H5jzgVjTQAkB+3T1rs5YVBLH5iegri9UuHtCZCME9PrTGOt7ePzBxU00YZPcV59peuS6tqbWtod2GO5j0Gen516mmnyyKGz19v/AK9TuFu5yl2gG4dQevoTXGaq7xrlTgdMV6DewFd3Oc1wuqIUUt3HSs5AjzrUpW6Hnt+dcdqEckyEKPlPWuu1XtnsBXPXwiFoVVc4qSjye/AEu3B47kVcW3Cpk8U64iDzMdu6tqeBVtF2cZArfm0sYNHqf7NFyLP41+G8f8tpJ4yegAa3kHP44FfsIBivxL+EuoppXxO8K37g7YtTtAcdleQIf/Qq/bWvo8pfuNHymextUjLyPyF+KFjNZeNNYs2H+pupVH0DtXFW1q4IUAsr4yQOR9D1H4V7j+0Jpraf8TdTDfduHWVT0z5iK38ya830S28whXHHavAlG05LzPtKVRToxkuyOv0DTFit9sfB4J79a9AtofLAP5+9Z9laFYQF+91P0PSuqUbFAFMzlG5534sUGN1dMZBxzX1L+ynffa/hpJa7s/ZL6ZPwIU18s+MJV+zybv7tfQv7Hszv4Q16E9I9QJH/AAJf/rV6WV/xTxs+jejc+vaKKK+iPigooooAKKKKACiiigD/1P2Q1T/kK3n/AF2k/wDQjVOrmqf8hW8/67Sf+hGqdckt2aBRRRSAKKKKACiiigAooqpfyeVYXD4ziNj+QND2KjufKFvd/bLm4n/57Su+f95iay9VO6Pd65qroc4it03/AHkVBj8Ks6l80P518ZLV3P0mktDyvWBuuMfKf1qiLjyoTABkt7+hrX1XCOCfeuNvpwCw64rI1XYz9SmHJHNfcf7PumGy8GNcyfenkB6dgoP8ya+EoYG1C+S1VM7z61+nHgfT10vwhpNkoxi3Rz9XG4/qa9DKKa9q5voeTxFX5aCh3Zyfxa1n7JpcOho4WS+Ys/tHEQSPbLY59jXhsRPBU4A/WtHxZrr+I/EdzfA7oIiYYcHP7tDwf+BEk/jVCAfux+NcmY1/aVW+heWYb2VJJ7stpuWNdwxTS7HrTdrZyzZ/lUxHylvSuNI7YysAy3QZqyIs9+gA/KokMRYhcrtwOnWru3bWlMJO5FIvyGue1ExpGxK7sCujaQKMmsC+w4IB7fzqmSeDeKoNQ1K4XTrAkSTMqqF6/wCfwrt9Gt7XwhNbaNqAa3e44Vn/AIpO4+pwePrWP4r1TUdEtrrU9EAbUfLdYDjO1mGM/wBD7Vw3hjwl4k8VacmqatqEl5cXBiIWICNYpIgAHOSzZUg/xY56Z5rJptnRFJrU+lby3URl0fcPpivP9TXbkDtXfXZkit0gl+8oxXA6sc729P8AGtGiXoed6q6vnB6GvNdRk8uViOeAfx9K77VW2kn3Nea6lIR5pxWNh3Oe1S5WVGVjWNp0Ej3HznAFWJXbeRnrT7MEy5BxitUjORHqMfPrmvfv2TNYXS/jFaWz4A1S0ubXJ6A7RMPz8rH414PfoRIK0vh9rcnh3x54e1yNvL+w39vIx/2N4V/zQsK6sLLlmmcuLp89OSP2/wBtfkp8R9JOiePtX0Z12rBdSIg9Iy2U/EqQa/W3Pevzd/aZ0z7H8T5b8JkX8MMg9DtQJ/7J+te3m0E4KR4XDdblqyh3Rx/he0WSUKT6c/j/APWr1CxhVkz02kn86858IJvCtnG6vX7SAiAfw+vuDXi8p9XJ6mZdLsQivBvH1yY4pEzjmvetYHlW+MkYOeDjOO1fMXj66Zt+Rn5xUAz9Nf2f2834N+FX6f6Jj8navY68c+AYaP4O+FlYf8ug/wDQmr2OvsKXwRPzjF/xZeoUUUVZzhRRRQAUUUUAFe8V4PXvFb0iZHg9FFFYsoKKKKQBRRRQAUUUUAFFFFABXhHxduAmp6RG3ykRyse/UqP6V7vXzr8YX/4qPTIh1Fs36v8A/WrhzF2pM9XJo3ro5OUMUVlGc5rzvWNuXRhkN+ldoGkCOZB2wPxrjtZXdnnoK+ZPuIo892iMbj2rJvruRkbeclzmrl9OUXaDjNcteTEx885rGS0Nae57b+z5pR1Pxwl4BuS2y/8A3z0/XFfb/ifWU0DRLvVGwWiTCAjO52+VR+ZHHpXz9+zbof2TTL7V5Fy0m2NTj1+Y/pt/Oug+L2ti6vrbw5bvlbf97N6Fm+4PwGT+Ne5Q/cYXm7ny2Zr6xjVDojyqHduLt8zOSWJ7k9TWjFgcvVaCM5DelXCgJDHt0r59I+gW1h5OTSBdxx2pVGWwTgdzUymQbhHgKeoJxx9aOUcXYljjIyAc5qyIo1BAHWo4zuXd60rHArZbCMy6CqGIFeV+J43mifJJJ7AZPHb3zXqNy2Yya4bWG2pvH3l+7jru7UpK6Njio7TRfBOnpb299EdXnJMqMcxpJs3hJJOFTg4wOckDkkV6j4S1uDxH4ftdWhjMLS7g6MMMrKdrKfcEGvn7wR4BsL3xlqd5q1utzc3Un2iOWTkJJjbwpyOMDB619H2mip4f05ooZA7OzOxC7cu3U8VMY2G5JnN6kACcV5xrEvzNHj1r0XUT1NeYasdrO/XHbv8AhUSEjgNZdWAVTyea4a+usryPXvXW6nMVlG44rgr3OMUKIXMpY97781tXyoI0ULwBWdHywB6E81qXgBiGfYVpbqRM561uJbG6hvoR89s6yj1zGdwx+Ir93bG8iv7C21CD/V3UaSr9HAI/nX4PTx7Gz/C3av2K+Amv/wDCR/CLwzes++SC1W0k9Q1qTDz9QgP4172UVFdxPnOIKT5Yy7HzR+1jpnk+K9M1QDAvLTYT6tE5z+jCvDvDUSySxEcYOa+v/wBrHTvO8EWGqhctaXJTd6CVc/zQV8geDJEkkCr2A/LsK5MfR5arsexk1bmwsb9ND2iwt0aTpiPOK0blREjFiPkGTniptOhBhEjDg9BRqPEbj1rkkdyPEvHMyi2kkXn5TxX0b+xgzP4R1+Rj969X9FIr5S8eTMyT7SVznoa+sv2L4XTwHq0z9ZL3+S135Yv3p4+ev9wz7Hooor6M+ICiiigAooooAKKKKAP/1f2Q1T/kK3n/AF2k/wDQjVOrmqf8hW8/67Sf+hGqdckt2aBRRRSAKKKKACiiigArJ1zjQ9Qb0t5P/QTWtWL4jOPD2qf9e0v/AKAaiovdZpR+NI+QNKiSO2VQP4Vq7fLmE1HpL/uPoFH5VLqBH2cn0r49n6RTPMNc2xMdx+7mvLbi8Q7sH7ufxruPF959njJJxkGvA9U1j7PBKzP1JrKxZ7n8JdOTxJ4xtrNxujMiox7gk849wM197/EvXV0Xws9lbyCO4vf3MQHUJ/y0I9gvGexIr4n/AGR4U1HWb3xHeyLHa6XE87yOQqDIKgsx4C4LHJ9K7fWvjJ4N+KPiy4g8O6nFJ9gJggjLgG5RTuM8O4gOjNnaVJOFHAzXrKoqOHdt2eHWpyxGJSS0juaVja7gFrbEQxwcVXtmWNSAORwc8Ee2KtK3Ga8aMT1JSK0gw5p60Ou9t1PKbaGrBzE8a7c8g/Spycen4nFVFX5gvrSb2T7pxmmkU2K4xj3/AJVz127MjqRW3I7SEKoCdegrCvNzEhVPPrxWiiVE43UrJLobZeQ3auo8IJHpdo1qp4JLdMZzWVMm58GrEUzxDaKdi3E2tUujKxIPPNcFqcqjcSOe/vmtqa6DruY/dJFcvfytk7eM1Azz7Vjgn615xqQkDv8ANnr24r0jVRgn615tqLAM9SkSkcjKv7xqns2/eVBcuvmdeO3vVi02mcKpzmqKLd7Hv+b16VzU6BX+mf5V3U4xZgV4p4p8ZabpLm2hC3d4DjywflXgHLtjjr06mnHclO5+8nwz8TN4x8AaB4klIM97ZxNNgYHnKNsn/jymvlf9sHSjEPD/AIgVQA5ltnPQAjDoCenOW/KuT/YG+Ld/4p8Paz8OtbZTLohF5ZsAQxt7hz5qbRwBHJgg/wDTTHbNe0ftd2L3fwo+1qM/Yb2GU+wZWjz+bAfjX011UoXR8jQpyw+N5fM+W/BDb7aNuma9vtirRBq+fvhtOJdPhyckg8/j/wDXr6JtQGiz614rTsfWylqcf4ik2wNivlzx03zMD3YfpX1B4mGIGPsa+WPGLhp44B1kYD8W4JrDqW3ofrB8HbX7J8MPDUA4C2UZH/AsmvTK434eQG18CeHYCMFbC2z+MYP9a7Kvr6XwJH5riHepJhRRRVmQUUUUAFFFFABXvFeD17xW9ImR4PRRRWLKCiiikAUUUUAFFFFABRRRQAV86fFtv+Kotl/6dF/V2P8ASvouvnH4tc+LbVfW0Qf+PtXn5n/CZ7GSfxzj9tcbrWBE7AYwD+ldkDniuA8Q3CoJNrYABwPwr5s+0pnj+v3q/aFCnHWuJuL/AMy/htE6yEAjPqcfpVbxBqaiRndsegrj/BMt34l+IunaVZjc80qRj6swUfzqqdBydhVavIm7n67+AWtfC3w1g1G5G1Eia5cdyGGVA9SVAArwGa4n1W8uNTuTvnuXZ3P+0T0+gGAPavFf2of2sZPAvjWz+Dng3S11GDQ/I/tNpHK+ewiDJax7clSilXZsH5gFxwcx/DX9oH4YeOxFZwaj/Y+oykL9k1ApES3pHMCIn+mVb2r080w1XljGMdEfOZTiqanKc37zPogRhVCqMAUydgF3en8qmCtGQG43AEfSoWavES7nv85GiknA71ZO1h8wzUaJkdaeBtyKLWYcxa3U2RCw47VX3BXK9ff3quW3cAYA6CrSL5dLlG6YjGCR16Vyl4vmOwbv/OumvGQrsDhcDGT1z3IrDuJI2+RDuxVmxV0eJLa6EscY3KPvd66C/vTKpYNj27VzyEpypwRUUtxjAk6HOPrRYCtqcu7/AGgRkivOtXJBfP3j1rr76Xfk1xmqFcHJrKSuhHmupIJASep71xN995fxrvdWYI2D7muAu234PSmBWj++PrXQrb+dDyelc4r7+2MV1SFLezlublxFDGpZnYgKAOpJOAB7mixMpWOSvkEYK9wa/Qf9izxJa3fhvX/CZuAbnT7iO7ELMPMWK5Tbu29dpeNufU+9fj349+NVt5sumeCtt1OmQ104zChx1QHh8diePTNXv2R/i7f/AA2/aE8O+J9av3e11ef+ztSkdjhob0+WGc55EUhSQdht4r6HLcDNP2ktD5bOMypyg6UNT95P2g9K/tT4Sa8FGXtY0uF9vKcMf/Hcivzx+HE/nE85wRX6veI9LGt+HtV0YruF/azQYzjPmIV/rX5B/DWdoNRubSQbHRtrd+QSKrMaeqZvw/W9yUD65007bYDBP0FUNcb9w/X8DV/SXZ7cNJ26mquvMotiSuc5rx5bH0HtPesfMPjqTZDJnk85PrX3D+yHbeT8J45mHzzXMhJ+mK+DvH0yJE+TjP8APvX6M/syWK2Pwc0ZVGPO8yU+5Zsf0rtype+zxeIZfuUvM9+ooor6A+OCiiigAooooAKKKKAP/9b9kNU/5Ct5/wBdpP8A0I1Tq5qn/IVvP+u0n/oRqnXJLdmgUUUUgCiiigAooooAKx9eTzNC1CPON1vMM/8AATWxVPUE8yxuYycBonz+VTNXTNKT95HxdpMu+A4OcDNW9QYNattYHHpWbov7uAAAlVxgAetaOonZF9zbuU/rXxz3P0iK0PnnxvM/llz1TOK+R/FmtFi0UbYzkZ9z0FfTHxRvTBaT7DsHUDuMEf418N+JdSkmuFijPzswx7HPWujDR1uc+Mk0rI+zb7xzbfDX9niTwbZxA634+ZdzBuItPtgBJI2OolcvCgxz87fw8/JENysEsZnjZ4Qw3PEdsioBhtpPyFj1BYYBGMgE0691W71e5fUNRnaaRtscanOIoU+WOJR2VE/NizHkmlu7f7PaeYc5ZgX+b+I9QeK4sZX55abI+kybAexpPm3erPcfAnx18deHtsFlqMfiCwhIH2K/YR3IVVLERux3YQKWO1nAAyQN2K+rPCn7QHw78SyLp99M/hzU87WttQHlgOSRgS/d7Y+fafavzDltWktTctnywdgUjIbgnPXtj9a1dO1fUVAgvLaPXLMEb4bvc0mGYOwS4DCWNpCPmZWyRkcZOcIzKrYOnN7Wfkfsin7xFkXDIwyrKQysPVWHBH0NSl9uBg/iK/Jnwv8AE7xJ4I2p4a1m600q3760mAntGIUAnYcplnBAUoNuBlz1r6Q0D9qXVktlbxdoSXkfGbrS3Az2yYpCy4JBxh1z6YxnVyT3PNq5XJfC7n2pvA59KrbmbqcivHvD3x9+E/iNFSDX47Cd/ux36tbbjg9HOY+oI+91r1OCRLu3W6sHS6ifkPC6upHbDKSDmtV5HKouLaZbkYbGUAkjrisG6MjBirHjrzirksyiTIbB6/nWLNKSducmmNKxXdljXcxqvNNtbbjpVeV2bLtz6fSoPMaSTe3agZHdSFWO1suOorAu5XYnYcqv4n/69bEkoAyaw7xv3Y46nFZko43VJcbs15vqeSz813eqPvLDOcAnjrXi/irxr4b0Tf8A2jfIkgz+6jPmSnPT5V/rSgEUFyvUdcdD2rNn8Q6NoUSXep3Cwpyeclm46IoyWP04968h1z4oajqQkTRITaW4482UBpcH0H3V/U+leYvdPNObqYtdXB+88jFhkdOvp6dPauhQubKlfc9c8W/FXUvEMTWmhxtpenEbTI5zcSAdckfKuR2XJ9WHSvKkkUZFsMIf4mPJ/wAKhG9sb23EDH/6h2FSbMjdT9mlsdUEkrI+iP2ZPiPP8NfjP4d1jzillfTrp18M7UNreMEZm9o32SH/AHK/cP4y6OmvfCvxVpzpvzp88qj/AKaQr5kf5Mor+b2GXy9pU4IPUev+PpX9GPwh8ZwfF74NaD4mn5k1rT/KvMqRi5TdBcqAccCVXx6jB7162XTbhKB8jxHRtOFX7z82/hDfLJaLEx+YZJr6wsCr2qbTXyV4GsLjQPFer+Hbpf8ASLK4liZenKPg/wAq+r9LI8g+wzWEoW0Z6lGXMro5DxXMqQMq/NgY9K+V9XUX/iTTrRTnzJ0U4PbcK+mfFsjCBlbngn8e9fO/h22fVviVpNovzZuEPSuGMbzN6ztBtn7H6VbfY9Ms7QciGGNAf9xQv9Kv0wKMYHAHAp9fYRjZH5rLV3CiiikIKKKKACiiigAr3ivB694rekTI8HooorFlBRRRSAKKKKACiiigAooooAK+cPjGWXxPYFDw9t1+jmvo+vnX4zpnXNIkz1hkH5Nn+tcGZRvSZ62Su1dHCZYJvVd1eZeMF2Rseu4Zr0/Y0cLyK33V6V5L4vuV8iQs24AYxXzR9ykfHnj/AFUpcvEGyRmsv4S/EvQ/hhc6z8SdST7VdaSoWwtjnNzfyqwt4/ULuHmO3ZUPfFcj8RNQ8vUp23dzXzbdak91KLfLmBJGkAHQsQFLf988fQmveyvDXkn0Pms6xSUeVEut6lfeIdUvdb1udr3U9Tne6uJ3PMk8jF3kPpljxjoMCq8etTp/o2oxLf2yjGZOJowepSVcE4PIV9y5C5BAwbOmPB5i75lVnPTrgeueh+lZdnDDc6kwkI8uJixJG4Nk8DHfNfSp7nyS2ufQXw6+PvjbwMYrTwl4iNzYqCTo2tZkiC4+7BMTgMThE2tG7tk7AMV9oeEv2uPBN9cJpfxF0658H6hko0jqbixZkYqxSRAXCggjdtZcgjdX5O29nPfXn2GFQclizHoq55JP0raulvtAjt4LO7aSA/IIJgs0C+XuIAQ/IVBZiAAAGOetedisupVN1qd9DMatNaM/erRdb0XxJpiax4a1CDVbOTpNayrNHj1LIW2/RgDWiJQVDjBVuhHNfgd4e8XXug3qaros95oV0hUfaLCZk+bA5dcgtxljljuJwAAK+mvB/wC1l8Y9JKI+o6Z4ti5zFqG21unCq7kmRfKPyqpJJ3YJVQSxxXjVskktYu572GzyDSUlZn6nzOQ2fWmGYLjjOa+L9I/bR8KwyC2+IXhTVPDE+djvGBeQBwASBkRuMAgkYJGRnFey6J8fvgx4oUNonjHT/MIBVLp2tJOR02zKv868+pg6sPiiezRzCjP4ZHq144ZypKv/ALvYViPIkJODlh0PpTo9StNTTdpV1Bex93t5klH/AI4TVWRJgQChU57ggfyrnsdikiGWUbdxyMehxVWZw4AI4qOUOHYP0Pao5Dgcfe7CoYXMq7JbER6dTjrXKao4VXJPbFdJfTNEDI6lAB1IIA/E4FeL+LviZ8P/AA9vGr+IbKFkHKiZZG/75Tcf0pxpyk7RRlOrGKvJiaoVkBc85FcPdcg7eNoJrxbxb+0r4e8xofCmm3GqSKSA8w8iDHY45cj8BXzh4t+JPjLxXui1y9W1tOR9ktvkUY7Ng7m/E16WHympP4tDysTnlKmvd1Z9I+JvjD4Y8NGS1tJDql2cr5NuQVz23Scqv6n2r548ZfE3xb42Bs9ZuxbadGdy2FvkR8d5AeXPu54/uivNgxCjyR5Sn0+8Poe35U9E3p5h5PevpMNl1Knqldny2MzerWersuxLuZx5S/JD/cHQ/XvViCTym3R/Lnrzz+dQqMKKUvt/GuzkPPP6kf2bfiMfir8EPCPjWaTzL26s1hvDnJN3bEwTk/WRGP41+eesaW3hj44+KtFT/VC+kdRjHySPvT81Ndh/wS+8eHUvAniz4e3UwaTRr6G+iHpFeoUfHsHhJ+re9b37RWlDRf2gLfUgoT+2rWGQkDGSgMZz7/Jz9a8jHQ09D28mqONSy6npugybrbBHLHk1neIZf9FlUDAGMeuTUvh9wkKszluwz6VR8SOrRy7cBSScAdK+fqbH2cY3Z8o+P597iPHLvgfia/WL4R2i2Xw30C3Vdqi2BB7kMSQT+dfkr4l23GuWNsDw9wgP/fQr9kPCNoLHwno9qBjy7SEf+OCu7KY6tnz/ABJPSMToaKKK9w+VCiiigAooooAKKKKAP//X/ZDVP+Qref8AXaT/ANCNU6uap/yFbz/rtJ/6Eap1yS3ZoFFFFIAooooAKKKKACmSIHRkP8QI/On0HpSY47nxHprmOd7cAfK5XB5wAai8Slli3KxHBHFXmhW312+hT+CeQY/4Eaz/ABByoHqK+Nlo7H6ZT+FM+P8A4xah5VtMyNjg/wA6+Mlh+3XRupBuCnA7V9S/HC78m3m7ZGP1xXzHYJ/o+8sR06cds/1rRz5aehrg8OqtdX2SNCPauCnybTncOo/rRd3TmFIFcvu+cjJGSOB+OOtXpFgjsZYnkLOSCATg5I6D2+uKqxRKLG4lLAv0wD90Z756E8nHYYrzj6iSaWgy9lD2tta27bpJFU4GMDd0UAdT655rR029jt5RpYt/KYF8vvByynkEkZGcdugwCDjlnh3TvMf7fIoIU7I+TlWI5cAdcDjt1+tY+tR/ZdYuHgJxn5c/7S4P6mpVpSt2KbcIqoRXMcdzetFEQvmsck9uucfQdKfOsmlX3/EqaSKbAZTGxVs467hzxVJQ8LwzIcYIYDkYwfXg9qntrGS9e4uCSSM/Usc459hzW0mupzX103Nm/fXBFONRWDUF8va7NEnmKAiRja6AbgqoNo5UHLYJJqLS9dg0m9Nzpc+oeHd7A79OmZ0jVpGL8bkZtsZULltzMCzEBsDIiumgs5ol4LkEN6EHNGn3CxRyxMS4I3IOgJPByO/UVa2M203qey6X8cfiZbpDBD46gnVtq7NUg+6cNuBkeM5CkBchvmLLgHJx2tn+0J8S9qI+k6LqjnABt5gj7jH5pXCzfKVUHdxwRg88V8txxyJbtdbEdScAMoY5Hp6cZ/Q+lQ3NvYm1jkWMGRxyucg49c57k4p3ZnUpQ+0j7Ii/aP1pYjNe+B53GMnybhyp+TzOMxMR8h3YPQcnimH9pOEZEvhK9jK5zmZcDAD8kx8fKQf907unNfGa20cdvLcJI8bZIwrEA7uv4etVS10FV2mlw2cZduT3PXv0+mB0olBvqZSo0l9k+u9U/aUvikhtPCrRsAxBnuGGNn3uFjB43DPPGRXnOt/Hb4izL5Vvb2Ol789MyOuDg58xj0J7ryMnoK8SuUSMoVd2LqGOWJ6/Xv796pG2tY7cEQgn35qlHQwlRhe6Rva1428Va42zWtdurhT95Im2xHn+6gUfpXLB4FxHbw/Mv8UnzHkdug65IPbNTyLHCVSMhsDJI96rPy26tlEUY2Ipt0kpZ2LKe3QH8KcVLMW6Z/KpI48szHOTjORT0jywXPWtCWhYxu2+5z+VOljZV3DnFTlssEHU9PSq0z7scYxUJGgxGIzX7Tf8E+fFkWq/CPVPCzyq1z4f1JzsB5EN4olViOwaQS4+hr8XLdNz/Sv0X/4J461cWfxR8RaGJSttqOkrKyAcGW1nUISfULM+K7MBUtUt3PEz2hz4aT7Hd/EGybRv2ivFMUahUuWinAPrNEjk/iSa9n0tv9F3HjisP9obQWsfjPpeuKhWPVNNVS3ZpbeTa2PojIK2tL2nTw6nORjFbY5e8ziyud6KPPfGE2yKVWIYgc47V5X8FrX+1PjFpi+Ww8qaJ/T/AJaoD+ma9A8cP5CSN1+XH5VR/ZYskv8A4vtcOOIYHcexAOP5Z+tc2GV6iOrMJWoyfkfqNRRRX0x+ehRRRQAUUUUAFFFFABXvFeD17xW9ImR4PRRRWLKCiiikAUUUUAFFFFABRRRQAV8//GxNk2iXOMAeepP4Ia+gK8Q+NMbPa6Q6dVlkAPplV/wrizD+Ez0solbERPJoyUtNjDPHIrxLxtIY7SVx3zwete2ZP2ILjqK8D+JMsdvpku84Bzg18wffH5vfE7USl7cIDuJbAA6mvII48FIwQMnqeBk9T+ldf44uze68w7AlyPpXNxXP2WNrp0HzMFCn7xA5OPSvssvhy07n59mlTnrPyKs0jwS3CxErhSgwezdf0qGO4k0w3SKf30ihQ2QQn97BxnpkZFX4S0urCZgE3/NgnIBH8Xv7A96jslttS14maNpYcmQx8AvtGcZ4AHrx+pr0YvQ87lK91bXmjafb3SSPFPOSWCsyEIR8oPHbk55696TVtSluIbW2OSQiSN2y+Mcf1/Wui8Q3lld6WbeC4Vp4pN7Rux38fe+9zXI2dt9oilmkGFUEL1OT6j39KzhK/vCmmtETTXNrHo0MKnaZW3BfQqcEnOOc+lJZwaNcQraXUTyXUr9TwADgqF5JyD3P5VTsLeO8uIrfkqMsxAzhR/8AXq3qm631COdD821TjsCO38qrS9ik7K48X+qaZdvY6VqE0Nvu+UM58v5XEpDRtuU/OqsePmIGc4pZ9UnMqx6np9nqLPtOHiMTSDczctEyEFix3NjoFAwBWKGLFrrqQ+VJ6lgQeTWnZQNqV/c3csfmBeTyB8zfd6/Q1EkSiS3l02w2g6beWckQj3S2V4RkeWV3DK4G59rEZwqgqASQw6Cy+I3iLTEX+zfGPiG1TH3RMzJu8vJ4EvAaTgccJyctweLiuGsEnQMN5+XBGcMpI9ewzmoYT5dxG3XIzjsQeh+nvVezi9zRVJx2Z6jL8a/iZAHaL4i6u4w23eH5IQFepbGXyuTnAG7ocVUvvjL8SrwMs3jnVpQQx4Z0z02524xnnPpj3rzVIJrkTTNkBBwCOp/+tUYlWO2kjYD5jnkZrP6vS/lX4F/WKnd/eaWp69e6yZF1TU9T1Nhk/vZ3KcHqQzOeVzn37nmucLwxuRa2qIO+47ifTOOParhaSHfERtJGDUTqqwllxluTzk/j6VcYJbGMptu7ZVkluRGqM5CN/COBkcVWKKPuipQryMFUdifypI1+ZT6VbRIpTHepQvylV+4elNm+9t9KtVS2EkEozGarK2WAqYnNRKoJweaSRLZ+gn/BODxU3h/9oaPRGl2x+JtMu7QKc4MkO26U49QsTAfU1+jv7YOkf8TbwP4kHWOa5tpAOM7lV0/LDfma/F/9mbX28NfHz4faohK41i0hYjr5dy4gfH/AZDn2r96f2qdLW9+G9rfldx03VLWXPQgPuhPP/bSuDGx0aPRy6dq0WeT+G1DW8ZIycLk1keKZgsYCrjIYHnv/APW9a0vCYYWwjYYyBWB4zdUikLd818rV2P0KB84WkMmo/EbSLYHmSfgDrke/pX7P20QggSFeAihQPQAYr8g/hbaSan8Z9Cg6qLpSfYZANfsFXq5XC0Wz5XiGpecUFFFFeqfOhRRRQAUUUUAFFFFAH//Q/ZDVP+Qref8AXaT/ANCNU6uap/yFbz/rtJ/6Eap1yS3ZoFFFFIAooooAKKKKACiiihjW58famoHizV88/wClz/8Aoxq53xB+7hLnn5f511OtxK3ivV1bnFzJ+rE1yfi51WJi3GVY/kDXx9ZWkz9Hw0vcj6H54fHi7E1+1tuOXY4IPv8A/WrxtCIreJ/vcq2Prg16D8anWK+uNQmPlwWytJIzZwqqSSeM9ua5nVvCPiPwsyp41srnSY2UKtysX2mEbcZ3GNsZUZyAc7iMZrKsvdR6uVyUZS7syHjnmWS+nblgcA+mP5Y4FVHllnhSzwW5ZsDvjnH8625DqUFt50oF1pyKc3FqxliVIwgLNgBkAMiLlwo3EgEkVn6MVkuikBBYJmMDnk9wfpj354rke1z3WlsiJNRNppiqhKXXmEhlONqLtYMfocgf8Cqtqa3ga2mvpvtLypu+YAMoyTtOMfXmrGn2sVxrEXnTxpBHIWJdwoOPu4BPPI57Ac+mdjxHAZ7RLiEqTG2WbgFlYYJ44xnGOfxolZSsluP2bcG29jD1GSKSOKI53BckA4Az7VftfsunWkDTZjWYbt6gsSx68Cubjt5Jo5ZV+7Coz0/DrSRvJfeVas+DGDtOegySat7HMqlnckaKO4utkUm+JyfnXjjHP0Pb9fapbyKY3IEK7hIAUHHU9uKl1FGs7xJFAwdrD329Pz4/OsyaWS4d5yGwMDjoM9ATVLuTNW0Orl03fp7RKqu8SqQyKeSg69+T/iPU1ytpD9ouFDD92uS/9P8A61XHu5rm7VLRmiT5c7WI7ZLYGOmQPY1WhleyuyHB2nOQeP8AdJ9vWimmk7lzqRdmtirJH87W6rht20e/v9O9ad7DutsIMGPGACeBz/IdfYVnrdMJvNJ2hjgnuEJ5H/16sPe3Mlw0CSsiueRnngYP4HBx/kVbTb0OeLjqUoIfNcsxCqoOSQSAT06VB5bPIP4QucnrjFWoJfKLhjkFSAOwbHP17VTSRY23P6HJ/rWjMHZaDLgYUNkHrwDzj6VDt2wFv75p6o0isrN3x09Kp7mP3jnnFaLQybJMtHH8p6f1FJhomVlPbNOSFjJ5a8+9XpEXG5ucUm0LldisGmb7pzVUn5SvrVvOxQvWoAc80xtEtoMlq+zv2F9YisP2gtPspOuqWd9aqM9SkXn/AMojXxsCoVnJwI2G4noPT8+1fU37K4u9A+K/hfxRORDuu44YlZeVS5byZJGz/ejZlUe+ewrShK1RM48xipUJx8j9O/2m7XdL4S1LHMVxcQ59PMRG/mlcVoyn7EwI9K9X/aStvN8IaPc4z5GrQEn0DRSjP54ryvSWY2rbjnivRzD4z57JX+4R4/8AEOVfLlRDlwv3e3+eK6z9jexWTxZrWpM2fLtiqnpyXGP5muR+J0oWKWfbhgNpavZv2NNPEeka1qLDLTMoz6gk/wDxJrDAq9VG+bVP3Ej7cooor6I+GCiiigAooooAKKKKACveK8Hr3it6RMjweiiisWUFFFFIAooooAKKKKACiiigArxr4zKp0vTdwz/pB/8AQTXsteS/GBM6BaN6XS/qrVyY6N6UjvyyVq8TxOMBrJjgjaO4r5j+Md59n0iZvUGvqGZ9umyNwcLng+lfI3xiZZ7F4EPLqfz718tc/QFq7H5ia5dpJ4hu2Y/dVRjv8x7VUsIY7yZmmkURQ/OqscZJIAwe/uK+mPCXwN0Dx4NYvdTv7vTb0XXk2c1uQyLHBDG0m6JgN5MkqjO4YXOPm5rI8Z/s6/EnwfazX9/oi+KdIgZmbU9D/d3iABiPOt2B+Uuy7naNiFQKrL1r63C4ynZQbsz4THYCqpyqW0ufO+oAw3bMrEEjqOOSME0IJdFuLO8UEv5YkAPG1iCMDr0BBqxeaXNLbSXej3S6zZWIZpZAhSeCNSoMlxASzRqXbap3NnGSR0qjqOoW96bVLdWEjABtxGd7Y6Y6AV6y2PIk7u5e0nSJbzT7i6cB5blJBGCfn+Q5L49zWNZ3ptrSeNOHcj5/RTnPPY12mnaxby3CaQlmbbyFIxv3qxjOQpyAwPOevP1NcT9kgl1EW6MAodupH3Rk44yCe1ZQlLmd0E3ctaRdpFHdtLJs/d5UgAkkHHT8RVW4vrrUIElkjVRGQoZV2nJB/Md89jSavbMmo7beNn87G3nOT2FdLPpYj02SzKqZY4ycqSfnHJOT15GMj/CqlJKz7jUW9DCuWjGlRxnI3Y2hf1J+pq/pElpZWqSlSPnIklIDYJ4xtz0GePU1zFtHLcyx2wPBPXuuetOZ5FiNqxwVbJPfcP8AINOa0sCZbv2srjUS1pIfJlIOSpBXoDwTTtVjRTE2QmF2gEnO1ehIPTrS6lYfZbKPYd6oPLb1IPf35rJmknuG3O29lXksewpJ9Ru60Zv2hgtYoRJMqnBO4g4z1OPX09awmih+07EJMbH5cA8+gwcd6a0nmxRQIdrDI59T0Iqe9hMTJIrhgQACPVe/61MY2fmPdEV+FFwegb+IDjB9/f1qOeeNcxiPqMAZ/n70yQmZ5JG5yefeoIgZ5dwHKgk89q0a01Ib1IlkXncccY/GqwOD9f51Zuoism7gBhnk4zTWVkVQw5AwDQ9riBIiybgeSSamVd1WBJCiBFGNoNV0YsmRxmiIDCcEj0p0MXz/ADikEbN93mrEXDZcEq3yqEAZnY9Ao788H61VyEjpvB13Lp3i3RNRh+/aXttIoH3i6SqwAH4V/Tr8cbVdT+EviFYyG226TqRyCIpElyP++etfgD8M/h9P4eni8Qa9D5eqnDQwsM/ZV445/wCWhHBP8PQc5r979Du18Y/AaG5dd8t5obQtz1kWFo2P/fa141XGRqylGPQ9hYGdFQqz6s+dfCu1YI2Y43qDjt0rA8drILTbH/FuB/AVteFG3WsP+4v6jNYPj9wbabGQFQng45P+FfP1dj7yK0OK/ZvsPt3xlikK7hbIZPoRyD+lfqdX5v8A7H1m1x491jU2UjyoioJHbp/7NX6QV7eXx/d3Pis8m3WsFFFFdx44UUUUAFFFFABRRRQB/9H9kNU/5Ct5/wBdpP8A0I1Tq5qn/IVvP+u0n/oRqnXJLdmgUUUUgCiiigAooooAKKKKBo+U9eDR+MdUZTj/AElh+teZ+O5CqO47IRXqevjzPFGrLnH792/XFeWePF/0eZfWMn+tfIV/ikfoeF1hH0PjH/hE4fH/AMRdF8IzAtbanqdrDcAdTAZwZcf8ABr6J8J341ZZrqeJWivc+ZEwDIyMxJVlIII+oNcz+zzo0+t/HzRn2lo9LN1eSHGQBHC8aZ9P3kiH8K73TdMbS9UaCP5U3MAB0BDHOKU4XoqXmXUmvbtLsvzOQ8V/s8eD9akk1vwZJ/wiGsSc+Zb82kj7tw8yD0J5wvyg4Ow4wfjTx74K1Xwpq5sfFNmum3jl/LvrYE2F4QXLyNtB8uRiQoEYQKOTGMlq/UpVzGErhta0aw1hZ9P1i2jvLOcYkgmXfG49wfTseo6g1556GHx84qz1PymdWslnsr+FlkIjMfQryA4IIyCCrcYJHzDPPFIuon+yxp5jXCsQM87UznA+pyPpkY5r6n+JH7OeqaNZPqXw4jbVtLBlkk0iY75oDIBuks36swHOD8/yj7+AK+U7i2gVX1Cy8x7OJyZgw2y24WQqiT8KoYKoyVGMnnB4roaPUpVlJXiy1YXqW2nTGUb3jbcq5ABJ4Hv17jpVewu/7PLXaWwkV/kDE4OD2HB68Z/KqlzHHJK0sR/1pLAEDjPUcenpW3NaqumNbhSJI13KFYn5j1P4j69fpUvTQ3g5SV10E1Z4LiyhvEdS5I2nguQw3OCMdumfoe9UIYom0tpFyMnLMRwDkADPt3qhGskxihXqDgHuM5PAqB3ZUa26Ddk46Z/rjtVqGlialXW9jW0c2scrTXMwjccKu7BIyD1/D8snPFJrCqJY5g4YuNpGOQV9ePeq1xZmK0j3qOpBYHILVWmmluto5YoMAE/maUUk7oUnaPKyaa3KWoc8nhuD2YZqXT4PLikndtvAAXIBIPXgn0/zzVBrhpLdLYD7pGPf0B+lPng+zmPAKtgE5HRhVS2tcxjbcW/IWfKkMGHYjg+/v61UuQEVQuPk4yDnNSTTPNIWxkKOccYAqu6mVkjJA2jAJ6Yq4qyTM31CIxqqwqMyDOT2qoDli35D0/OrE8TRSHd3phXK7/8AJHrVJESYqhXmZVG3IOcUxwQNpOc1YixFy5A3cDNUmYCRtvIPehMhsslfNA5xinRbdhPESr1ZjyCenHv61DDGDmWRtiIOe5H4f5456A19MfDz4PFrKDxb43ttiMPNstOkDZUZBWaYNjg9VQgZGCwAwtEpJIJSSV2cB4U8AGezg17xFB5cBYm0tHBDPzkSSZ/hPVVPXr93APrWgzTaZqdpqicPbzJKvsUYMP5V0ms3EMt2Wcl/TA6GueMmGZSOVGTWUKuqZ59R85+v3xZSDX/hdPf2o8xW+yXcJ9vMQg/98k18/wClHFmfYD9a+hNJJ1P4H2ZlHXRY8/70UI/qK+fNP2x2m0HcUBLD2zXtY93afdHgZLpGcOzPCfinIRaTYH3uT9a+t/2T9M+w/DcTkYaeQ59OCTx/31mvkj4npvt3jzjcVXP1r79+CmmLpXw+srVfVifrwP6UssjebZOey/c28z1qiiivdPkQooooAKKKKACiiigAr3ivB694rekTI8HooorFlBRRRSAKKKKACiiigAooooAK8v8AizH5nh625xi6j/8AQWr1CvK/i1Kq6FbRtxunBz9FP+Nc2M/hSO3Lv48Twy7C/wBmzR4xjlh1Bz05r4++KQkjmEBf5s5PHTNfZF9texkRDkkZA/ka+OPi2n+lq3V2U/jivkpdD9EoJXuzZ8M+G5dF8HeBtWkQgaxBrFzIAM8yXqLGc+8cafn7V9B6C0iW6zQkhh0IOCP8it34geFV0Pwp4F0VvlNlpa2x45MiJGWJ57tzWBoCZsVDHr1H8q6MfBxkvkcGDre0g35v8zxD4vfAfwD4/Z9cihPh/wATxkPFqdkAjM4PBnjGFkP+1w/uTxX5s/EX4Y+JPhzqcMHjeMaclxJm21q2RpbC5KhmYy7AXWZ2IGMKRnlSOa/ZzVIVfIXis2XSNL1PTLjR9XtIr+xvE2TW86CSKRT2ZGBB9jwR1BB5rbBZrUpOz1RxYzKadbVaM/CC6/tPT9SEl4hivAiyYyrAiRc7g6kqeCM4PXrg8VTt5Gt2gv05xJwOQfl9c19vfGb9lrVfCllcav8AC9JdY8MRs8smhkmW809nA82exPWU7R0ILgdRIOnxPIXNm5tXM+nFsrJ/zyZi21JegWQgfdGQedp7V9fh8VCpHmiz47EYadKXLNE0fm6pqM1xNuCglyV5xxwO3TFLp2qSWpuFmLSqo+XLHIZewPYHPNWNIeC3tGkznLjc3IAx0B+nrWXrIiF/LJBIsqSHO5TxmtE03ysycmldBps/+lN5jbBKrBmwCf7xxmmR3AN410sQk2HftYnH406/tUgji2n7g2uccbh7/p74rR0qxVrXMmFNxkcnDbewpyktxRTeiHyamt9p9xJKADypXJIyOVxk1k2BjzIXIBC5JzxsHXHrVN1kiaS3bg5wfcjpz0/WnzwS2cnltwGHPI5B6jj3o5VawnUb3EtJbeOUzvEZVToM4xnjk81curiOez34Pznhc5ZSOo/+v+XNS29skmnkruV5Ru+YdT6CsZCXKQjje38+vXFJWbuVqtO4/cogfd17/wC1VMSzwoGjwgfuB1xUzxhWeJe7YH9BU1zD+65AQqBnHT86tolIz5nVmDKc8YoTdIyqzDAx19qdbplWbPVTx3p0G1NxQhjxyR0pdBCXAwWX1pE+4KhnlaXBK7RzirNpDNLJHDFC1zLcuscUEYZpJXY4CoFBJYk4AwSSeOaEBPBD5rxbFeUysFjRAd8jngBMZyd3BGP1r7M+GnwcPg62HinxbEkniCZcwWxA8uwDdscjzj0PXb0HOTXpXwe+BqfDaz/4S7xrEk/i+5Q7IeHj0yNgMxqeQbgg4dhwnReck9LrV/JNNtibGDk96+VzbM+a9Om9O59blGU8tqtVa9EcqtqY5S853Nmv1W/ZguTqnwT0+0nbeIJLq3B9F3sQPw3V+VkswWUIMvuGciv01/Y+vVm+F09vnLw382R7Mq4/lXPlT987M+X+zryZ5/4bgazi+xsT+4+T05ArifiKWWzk2nGVNenMIk1TU0j5hS6mQ/VJGB/WvKviFI39nzyt8xCmsaqtdHq05XimekfsbaaILPWNQP3psY47bsf+y4r7kr5b/ZZs/s3gqOQ/emgic/UtIa+pK+hwStTSPhMzk3Wk2FFFFdRwBRRRQAUUUUAFFFFAH//S/ZDVP+Qref8AXaT/ANCNU6uap/yFbz/rtJ/6Eap1yS3ZoFFFFIAooooAKKKKACmsyopZjgKMk9gPenVzHjK7ax8M6hcIcN5ewexchc/rUzlZNmlKDlJRR86XVwdQ1u+1EZ23MruM+hOa4jxdCZbORxy20gn19K6mzlRPn3ckgFe4/wA9qyvEOJopArjkHpz2r5GWrbP0Snokjmf2QtMj/wCE18X6g6/vreGOBT/szSsW/PYtM1qNLPxDegDmK9nAPqNzV0v7LaLbeNPHFuvKslm4+jNLXIeLXd/FWqpnGy/m/wDQz/jXbNXw8ThjJvGT+R2Kys0e/G0jGffIrMuDuf0/nUljIzW67qkljUS7l4xXk7HouJEnILEAH1Awc9q+f/in8FNL8a3L+I9AePR/FMQylztAt7k+l0gBySOPMAJ/vBh09+nLCM7TisF5nJzn/Pr9KFIUZyg7xZ+U+veHNX8N6jcaNqOnvperWmDLbElsgABZoJD/AKxZOWAXI/ukgYXMn1W5TYtuBG0g+dSARn8e3rX6W+P/AIfeGviPpItNYU219b5a1v4UU3Fs/crnG5D/ABITg9QQ3zV+eHjPwfrfg7V30XXlSK6UNJDMP9RdxKWHmIxzudum0gcja2Dgl6dT2aOK51puc1DtivHBP3gfmIyBkZyBSb7eS/SR1ypbJ9CxPU0yY+YSwTY6cOvIIYfX8uxzx9YAMxNJ6dqaRvc6C7ubVo2trpXy33fKCsR1OR/hVHTYY5JG3f60DgYyMHuehqrZstxdiSfsMnHJLe1NuozY3RWNskjPQjg9vwNJRS0RUql/few+G3tFvSkrAhWJwP4uen9KsX8tpNbAiTEqnKrtOc4xz/jWcH8lY5cZyc46dP8A9dOs8XEzShunr/tHH6CnKOgoy+zbcLSOMxSlyASPmyOFB6c9ef6VXhKqxO3c2OPb3/lTJZJoWeB+ex6Y4Prz6VC26GQEHtn8DVoxnKySHzyGfhl2bPfJOaiaZxFtPJ9asxxHygp43AH8TVJCr55xWhnchaV36mpNsBLO0mwAAnPbP9OD/Ppmm7FZmPRVGSfQdM/Tmvqb4FfB9PE8lv418U2obSIiGsbRyQLqQMM3Ei4G6EEfKAcO3baMsmzGUrK5rfBL4Oq8Vr8QPG1sHjDeZpmnyowIcMClzMG/hyMxxkfNgOw27Vr2Dxbqssrs8zhc/eYnnPrXqmuTMsRnmcszE9e+eTXhevz+fO3lgblOQT2//XWEzhqVHJnFTbtzSKxz69vwHasiWLyopZclmYH8K6O5tZP9Y65bAA7ZxWVJA5i/f4I9B6/WpiVCN9D9Wfh7rCTfs4QalISjDSbgfL94MqMPl/Hp9a8ogQjSxInyEEqwyG+ZeGGQcfKcioPhn4ihX9mq60wgmXC2qIpJYtO/lgAZ9VYn2pLkWmlWcVhCu1owcrnqzEsxJ9SSSa9vFzTUbdjw8vpShUqJdzwrx3cLcapZWo+69xECfqcdK/SD4cgL4WgjH/LN5Ez64Y81+ZHiq5jTWbYypwkyN1A75xzX6MfCTUv7S0W925ZI7kEMe/mRRufyzitMq+JmHEC91HrNFFFe2fJhRRRQAUUUUAFFFFABXvFeD17xW9ImR4PRRRWLKCiiikAUUUUAFFFFABRRRQAV4V8V79JtQstMVsiFDIfTL+v4DP417rXzD46adfF9/JKuAzRKn+75YrgzGdqdu57GSU1Ktd9DFmb/AEYPjoK+VPi1p6m7srhRlGnRD9Cwr6bnuVitmSRlw3bODXgvxXzceHpNQiGRaSxkn2B+9+FfNrdH20ZH2F8dRiDRGznEk354XFeCaBeb4MZySen0r3L49yD+xtCuRyj3JA/4GmRXzz4fkAL8cg9u+c13ZovfTPIyX+DY625Mh+dFz68ZqGNDnIOKugqIsZqqxjZMHkEA15LR6XQpzSFGAQlWU5DA4Ix6elfJXxs/Zr0vx4114x8BmHR/FrZaaNgq2Wps3BEykFI5j/DKBgn7/PzV9R3ZU5YdB/n+dUvNOVIGBjB9z61vh60qcuaDOXE4eNRcs0fh5q+mXWk6he2E1rNpd5ZsYbuwmz5ts4ONpLfM4P3gfQjqMMcZYVNkJUUFyxJweQPcfyr9W/jn8I9I+J9nHqFoy6b4o0+MrY6gB99VB/c3OAS0eDhX+9GTkZXK1+XWvaPqXh3VLnR9UsG0zU7B9l3YkYCjACvGcner/eBHHII44H2OAx8Kqtsz43MMvlQeu3cyZ7hpIo4zwEx07471cW/mitY2idhOjY3Z7duPpxWbb588AgjHrSvFuuBCvALDn0716Diup56ZYllukuIb64cyysAwJ6YHYEdfrU2o3MUjxrEoKoAdxHLH8OMfStC+haWzOcSSRfOCdoyB1AOf0rHtbbzVkZxgAYXr94/4VMGtwkuhYl1KaFY3VEJZeMjIx9P84qkkhjuCzuBvOGYAD73PHpTLK3murpVALKMsc5IAHuKtajbj5JUUL/CxHcnpQo2dir3WpRnuAbgykAbT8uPQVGw82fYmSqjJGeKQxKIdynax5+maWEonDsN7Y4HOKqT6oS1dimxZNyA9aY4aJsHjjNTSMDcNJjK55+o61JtEheZmCRRjLsxwAPb1PoP8KVySJFyFkYts3hVVQd0jk4CoACS2Txx+vFfpx+zn+z8nw6s4fiB40iQ+K7uLNtAVDf2ZE4/L7Sy/eP8AyzHyjnca5D9ln4CyWa2fxV8aWeb5iJNIs5gR9niP3bqUEf61hzGp+6PmIyQB9uarut4HRXBJ9K+bzXML3pQ+Z9PleVWXtKi9DyzxXdPtOzMmV5ycY/P1ryWcmQAMVzz93pXfa9vmJEjAZOCp4wfTNcxcWEcQKqct27KDnJGPxr55RPqYQOSdSpINff37El848N67psudqXHmBSMYPf8A9CFfDEtjDC2AMnuT1NfRv7MXiN/D974ljDf8uzOoHPzMpC4H+9tFd+Bq8s7nPmeGc6LSPV9D1Ca+j1K/nRhHLcSMsjn77O7M4UdlTgCvGvibcyNazw5+QDp9a9fmkXRtPt9FtnMsyIGkdiNzOxyScD1zXhfxDkYQM75cgg8CpqSuysLBqFmz7O/Z0mjTwvawKc5sbcgdwMsD/OvpSvkz9mCS6vtFjup1wlnbG1JPJYM+9cH0GCMdq+s6+jwnwI+HzFfvpBRRRXScIUUUUAFFFFABRRRQB//T/ZDVP+Qref8AXaT/ANCNU6uap/yFbz/rtJ/6Eap1yS3ZoFFFFIAooooAKKKKACud8WWP9peHL+027iybsf7hD4/HFdFTWUMpU9DUzjdNF05OMk0fGVpLJI7AbcdAccE5Paue1N7ue+FsH4brxXXLGpvZVYfddvu8dyaimtYvODYJwc9M18hNa2P0SErq434OpH4b+L+oWkwEcXiHTgYzj/l4tHDBB16xszfRa898Ygjxl4hR/wDn/kI+m4j+ma7q/urvTbqy1/T2Ed5p0gkQspZTjghsc4ZSVOMZBODnFeV6p4ktdf8AFV7f7fIn1GVpGiJyY5PvEZwMgbsg9wa6faL2PL2OeNCSxDqd0dxpQkaISFcEcHJxmtGVC5LD0xS6Uy+WSeMY/E45rUaIsMg1556By1w5b5FOzH97r+VYU6u7A4x17/54rtZLRTjc5P41nSWWMdF+ncdqLWMWce4coQRkHqK8r8d+F9B8YaW+ma0hKbi8cseFmgkPSSJsHnjlTww4PbHst7b8kBjz6elcJq9sR8w7kA0mioTcXdH5yeKvDN/4a1RtJ1VBLIgPlTL924i3NiQHruJyGycjoc8E86rhImjb7x7V93+IvBukeLdOfR9SleBmJkt7hAGlt5h0dM9R0DLkbhxkHBHxT4j0HVvD+q3Wj6rAUurM4JUFllT/AJZyRnGWRxznsM55DUz06VeMr9zGt7l7eNiEB3Ejn2IqbULgTrCQBuUHDd8MehPfH6VDEqyWTBTkrzSW0H2iUJxgAk5OB9Mn1p21udfNpyli68mSyUjhSQAv8XGc/qSfxpttcxW8f2fySsknO4ngD6Y6dMciqbo8+2IEkk4Ht/nk1ZuoCCsh43cAdcAdv1qrLYE3fmK98wa5zwQoA/EduapTsuVVOQOc1O4ZtzsMH1yOfzxUKJvYHPT86tPoYT1IDcTn5ncsfeolRm+4OpA/OnSsFcgetd18PvA2peP/ABPB4ZtC0EZAnu5x/wAsLZWwzA/dLvnagPVj6BsNsxk7I7z4OfCd/iDqZvtTiZPDmnsfNkTh7ycAYhRiAdoU5cjp0zkjH6MW8EdnboscYjCoFULwABwAAMAADAAA4FQeFvCmmaFpVrpGjWy2djZIEiiXoo6kknkkkliSck8mtXUpQqswGal6nDKpJvc8+8QTbo2EnO88ADv6/hXnMmnTyzed0yMY/wDr13uoI812xZ8qB0PIrNmtFRQyjOBjA6cUrCjE88urBkYyAfMOD71yV/EEjlx9a9N1NRsyWAzn9BXK6NoM3jHxDa+H7dikTEyXEgOGSBSA5X/a5AHbJHalCFzem7as92+Cl1NceClSVCtjDcSSqcEb2ThcAdQCW/Guwuhc3U7TzHLMa34LOx0HSINJ0y3S0tLdAkcSfdVV7epz1JOSTkkkmuSv9SKB06kLmuicLIwveTZ4f4sjW98SWmnL+9eWVBlefzr9NPhFpiab8PNJjWMxmVGcg9eWIBP/AAELX5lWzs/xE0p2PW6iXH+0SBiv1s0FY00SwSEARiCMKB/uivVymO7PmeIZ7I1qKKK9g+YCiiigAooooAKKKKACveK8Hr3it6RMjweiiisWUFFFFIAooooAKKKKACiiigArwL4t6eItSsrpePPRlPuVI5/LFe+14h8W2U3Olq52hfMOfrt/wrhzH+E2epk8mq6seO31obiy2AEE98Vh3Hhm11Tw/daPdJvWeJlJ/wB4EE/yrtyN8AA5fv71U2iNMZLY9a+ZPt7kHjfWG134ReGLlnD3emXEVpdN6TRRFWJHbcFDj2YV57oUGWdwQADzn3rnvGl3PYxyNZvkTsPNiztWTbnaSOfmXJ2nqMnsan+Hmu2/iDw/bapbnIdnRvUPGxVgfcEV0Yqrz2vujHC4VU07bXPVTbDHyVm3MIQnaefStqNnckMuB9aWZET51GK5LPodLOKmtcgl0AyD071lzWgRQw57HPc127qrO2Rmsy4iVgWJwe1BkrdTzXUmdc7Pxr5q+MHwytviRZQCApaa3YK32K7bgc/8sJWHPlt2P8J5HGa+tdRszs3D5if0rzi/tJIn3dx0NXSquEuaO5lXowqRcZbH4+6to2paJqF1pWp2r2WoWUhiuLdxho3H81xyGzgg5HFZyK0jkJ94g1+jfxv+FMfxF00eIdGRI/FGlQYiUcG/hjGTbk/3wOYz1zleh4/ORD9mcXUQwkhIwflKkdVK9V2k4GeTznkGvssDjlVh59T4bMMC6M7dBI5Wjhkt1GFk6+1SWs/kFsgZ2/ID2b6djio38qWfKkqrEZJHTPtU97DiRHRQodcDJ5445B6V3trZHCU0WVIjMGYbmxnJ5A6nj06U2SVpraNHHzKclh1NauyKOMwrLnagBYnAGf1+tZYRN5L87P60vMbViGQ7kEZ6d/rVZ0VGwOuOasfIkxWTlV7e/pUMkgc4Hak2LoRgbjgV9g/sw/A9fHWoQePfFVru8N6XMRa2zL8uoXcZxuYd4Yj1/vN8vTdXkPwT+FF98WPFI0hy8Gi2BWTV7xBzGjn5LaPI/wCPicqVX0XLn5Rz+zvh/QrDRLC003TrZbOzsokhgt0+5FGgwqA98dz3Jrxs0x/IvZw3PcynLed+0nt08yaK1khQyliWY85x+XHSuL1q4WFG3naWOARXf6jcLEAcYC5NefahELiXjBxnrXzJ9hCBxUll5zF5VLE+/A/DoPxrKvLRFBLDI9O9d3Ja+WjAHO79K5i/KrAXc4Cgmg3PMr7EbMc8KfSvYfgR4Wv41vPGmpqY7O72rZxNwZlQnMpX+7u4XOM4JHGM+Z6Toj+MvGVn4aJf7PMTLcsARiCPlxn3+7x0J9q+z7ryrLTzHbgQpEqoiqMKoUYVQOwAAFaUodTWrL3eU526jiluHllPnO/JOf5ivAvifd+ZMlsgABb5seg9q9a1G6lLI5BxznHOOK8H8cv5kjNgjyxv+bkkjqc1UlqcsY6aH6U/Anw6mheC1k3FjdybxnsqoqAevUE/jXtVeY/CG7+1/D/SptmzdEpxnP3gG9PevTq+ow/wI/PMXJupK4UUUVsc4UUUUAFFFFABRRRQB//U/ZDVP+Qref8AXaT/ANCNU6uap/yFbz/rtJ/6Eap1yS3ZoFFFFIAooooAKKKKACq93L5FrNPnHlozZ9MCrFYviN2j0DUXXgi3lx9dtTOVlcunG8kj5VtZWMjSHlc5Hv61clkzj5QMelVLVnwJDjcOmBjApdTlEMAfOM5/E18k1dn6JTjpY5/WZZGibnGM18pePbqTw/qNp4k3FE0+5immC/xQ7wsgP0Vifwr6clu1u4maIbimN3POD6D2r5++LOjTX+h38Q5SaCWNvo6EZ/DqKu2h104H0To063UCsjB43AII6HIzXUxqcbCwB968a+EmsLqngvQr5zlriyt93++qAN+oNe0xrn/EdKwaE1YrXMD7ioO7P6VRdc45roHi3KGJ5AAPvVOdMqFz1GaRlJ3OXuQcgHjGa5LUrWOYsW79a7e7BQAkdK5i+6N+NJoSvueW6hZtDI2FHHoMV438UPCsHi/TUOyO21SzwLW5dvLBVjlreVhwqSfwOeFkIzgMxr6GvI0kjO4dM1werQIC3Q7h3HUeh9R7VlIKcrO5+eF5HJaSTNsaCWOR1liYBTE6n5k2jlQvofcDgDK2s6xPgnhxn64/TvXvvxO8InUF/tnTo/Nv4kEckRzmSFfuggYBkj4MTE5GNpyMY+aRcRw/u925R0PT6jv0PB961jG6uerTrppM2oZmFz5oCgtuzgY4PNQtcs8flOikLk5xzxVN3URq4b/Oc0RP8uR1boO+atRNPatoczYgx6cVRdjtOKeZVWX5ztROp61Jouj6x4q1218P6DZyXd9fMxSJCFIUHlyxICqufmY8DI6nitIxMKlRIv8Ahzw7r3izV4dC8NWhvdRnOUXOxIkTl55XbhYo+rNzzhQMkA/p98IfhrpngLQk0+yka5Dv9omuJYhHJd3BGDKy5JSNR8sUZJKrycszE5nwg+DGj/D3QmgdlvNQvCpu7kxhDIU+7HGMkrCmSVQ9WLM2WPH0CiiJcAYyc1lKfMcc6pXeNYl3rxXH6jM5YqOOAffmt+9uVBbaC30rnplkuG2g7lXofrSM1G+pgNEGBDcAd/eqt1EkifPnj0Ga33iY5xyF6jv/AFrnNQl8s+g9KbRSZwOvSrHEXRsdTg9MAZya7r4E6LaxWOpeIHHm3F7J5SyMclY4uWXPTlmOfp7V5J4xvVjidVyMA9RXvPwiK2Pwx0mZl+a4haT6iWR5B+jVtQXU0mvcO11icvGsPQZyffFcHqa43u/Bxj6itPUdT8uSJZCu+fJG72GT+Xeo9QgMloJt21lXePp6VrUdzJKx4nCip4y0nc7DF7B36gsDj+Vfrb4YLr4e05ZB8628Yb/exzX4/wDiKR7bV4LiElXjkVgR2K9DX69+Ebr7V4W0u4674EOfU4AP616eVxtzHyvEC+E6SiiivVPmwooooAKKKKACiiigAr3ivB694rekTI8HooorFlBRRRSAKKKKACiiigAooooAK8G+K0iS65ZW/ZId2P8AeY/4V7zXzp8TLlX8TgAcwQKCPfJI/nXDmP8ACaPXySN66ORKkIpJ55yPQVk3cof90vUVsuxgXceSQDjt+NeT6xr6w6zaaeW2PdMwUk4ztXdjH+1jivAcbH2NNGN4viRrZpm754ry34K35s/EXizwy5/d/aINRhHYLdqRJgf76Z/Gvd9dsRHas5witkjPbP8AOvlvQbyPw/8AHWOFDi31nTngH9wywy71H1GTSa6naqd46H2/b42Ag9gPyq7IBIrD0rG02UtGA3U/0roYtg+6c1iYt2Mr7PkEg1lzQgjA4x/P8a6h4VbO4/e6emKxLlBEN2SSfWgyOTu06981xeqW6yEoowetdxdElSx7nNcndDMpNJq4nueaanbOkbI2cexKn2II5BB5Br4v+N/wxkeS68caFCZJ5QZNSto02+eBz9pjRePOH3pYxgOfnTB3LX3dqMW5CnHGeSM/lXmmtIYAR99WzlcdR/jVUK86U+eJhisHGtDlkfk9lkYxMQw++rAghlcZBBHr+h47VNJI053N1r1n4vfD1tDkfxDoEbGwJaSaActas5y7IP8AnkzckDlTz0zjxS3vI33EHKkcH1zX2+FxUasFOJ8FicNOlNwmXXmWZ1C9hg/Qd6RnaOYqv938w3/6qoRS+VkgZJ6H0p9xKskmRyQME10+RzPYbO20qQOozXoHwo+F/iL4t+JBoXh79zFCBJd3rqWgsoScGRxkbpD0hjBzI3ooJFb4bfDrxL8XvFKeHfDf7uOPD3V44/cWcHTc2Dy5/gQHJPoMmv2d+F/w18LfDLwta+GvDcJWCEb5ZHOZbmZus0zY+Zj0UcBRwBivGzDMlSXJD4vyPYy3KnWfPP4R/wAM/hl4e+H3h+x0HQrX7LZWm5og5DzSSsAJLmd+d9xL/E3RQAiAKBXqM7+Xtx3pBMn8POOvsaqz5kYbfvHoK+Y1bbbPs4xUUkjE1B1fO0528++a52WHcu7P3ePxrcmQq209B0qtPGvOwY2jmnynRc5+4XykzJxnpXD65Ntgk8xic9Mmux1GRQCqjha8p8W3RitpAX+6o/GpLjG7Ox+BVuL3Xdb1of8ALukVog7jfmV/0AFe6axMpcx9QvB9we1eHfABmg8K6tfs2GvL91ViMn91GqY/PNdV4u1kadpxdfleadEGW/vMMtz6Dkmu7aITV2a16cxNPGN3l9V9jXiPjQlUBxkSDAP5V7N4f1K11Pw/DrFvh1md3AC5O0MVTv1YDcfrXk/juCSOLzJFCL7dAKhRuZN9D9GfgJfQ3/wv0e6tzlHjA/FVCn+VezV8+/syvJ/wqqwglVlMTH7wKnDKp6H65r6Cr6Sh8CPzrFq1WQUUUVqc4UUUUAFFFFABRRRQB//V/ZDVP+Qref8AXaT/ANCNU6uap/yFbz/rtJ/6Eap1yS3ZoFFFFIAooooAKKKKACuV8bTND4V1MrwzRbQfdiFH866qvO/iXfra+HPspOGupUUfRDvJP5VlXdos6cHFurFLueDwKI42lzyVyPYVw3izWrW1tJmdgWCkqucEnt/k116SSNbtOrAKpwMnGeK+aviHp+qeJ9ct/CHh9Xk1PUnZYIV4aUgZbJOBtAGScjAyScV8+4W2P0WNNdXY3PhL4qXXLbVhOAktldywleN204b5gOhDFlx6AVnfEXU/LgMLQ8vlWGOhHb3rsvB/7K/jf4fm68a6jrFuyvabr6wiDu0jKAwYv8q+ZENwLAHcBj0NZHxB0WG4g86KMsqqwyOQcDNTVoSilcvCYmnUf7uVzzP9nHVSNIv/AA8/I0m7eOL1MfOM/wDfNfXVpP8Au+ORXwv8DbhdP8ba9pznGZZHA/7aMR+hr7Ut5wRvXocGuWe5viIWkdVEzOm58Y9AMcfWoZflIEgwP50Wc6yZ2gdM8deParEgDjB79KqnFPc4WczewlgW3dfauR1BVC8c4zn61205yPYdR61yWqpIDsj79MDkfjUuFnYHLQ4y52lMH/I71ymoIpDLjpXXXf7tCoII9B2rkb5sMwcHd1JHINZtDp0zynxBYmQna4Oe+K+S/iH4eKTvrVnHtuBzLGg/1w7sB/fHU/3gMdcGvtjUoYyXyK8W8T6Il0jFgVz0x1FVDRmqbR8lo5eNWByp5pVkaMlh3BFWfEumXGi37eUm22mYn5TwrnkgDsG649cismFbm7uFsLZDPPcEJGo7k/0rssmi41WXdP0/VNe1W30PQYjd3lxnYi9wMfMT2XrzX6a/Bv4VaT8ONFDhRdatdAG6vGXDyeiKeoiXoqjr9481w/wV+Ftj4K0/7deBZtXuhmSbb8yg9FX0A/WvpGCV9mGOXPRR6VxT970LcDpLe4wh8r+E4Df/AFqkMhJJ6E9T7d6oJIsShW7n9TStcclV+8ACR9amO1jBE8rLJu3Lncc/Ss7ymiGW71oQopTfJ8pY5x3FMuRzv9ABWqYmjAuW8uNgRkkkk+1cHq0oVPNbv2rt7+XOY179a8u125UKykdKbGtzxTxrquN6cDC+vHPpX194ftzZ+DdHjhP7hLK2AQdABEo/z7/Wvh3xIJ9QlMEQ3SSERovdnY4VR9SQK+6vErQ+GvDEOmREMLK3SBWBxkRKFzj8K3ou0TqqK1kfMnxV+IQ0i/EEfzPk2kMcY3NK8qfOEHrjK56Dua+mbOc6/p3nM5cxFfMCjC5xllU4GQuRXLfAz4OeD/ixqt1f+MIJp9sE0kbRztGUYuqrjbjkdcnv7cV7LrHhiDwRr0vhiyxLp9vAhjkfHmZcEtlBxwMfN3yeOOdlQfLzHmvEwdR0lufK3jKya2voL1onki8xdyxffZc8hM8bj2zxX6mfDqW2uPBWky2bvJA0OUaRSjkbj95TyrDuOxr86fHstrFbSsAGJ5QBsEEkqQCOhx37da+4vgj4vtPFnh++NoX22t0SA/ZJ1WZMe2G/PNd+AWrPCz+m+RS6HtlFFFeofKhRRRQAUUUUAFFFFABXvFeD17xW9ImR4PRRRWLKCiiikAUUUUAFFFFABRRRQAV8zeM7hZvFWosr7tpWP6bVAr6Zr431bVM6q11cncs7yTY/2i2Sv4VwY9+6kfQ8O0nKq5LojL8SanJZWZljbqMEnoMetfDXjrx/dt4msdcsI5ZX0S5WWWFeDJHH99oh03qv8JwGUmvrnx7fr/YszxEoxDcDBPTuCK9e/Z4+FfgaXwBpvjPV9Ft9S1jWYmeaa6jWbAEjBVjVwVReASMZJ6npXnQoc75T6TGYuGHhzyR4leXKeI9CTWdLk82C4gWRHU8NG6hlP618Z+NBPpfiXQdRJ/eQXm5T6bsA1+oXxN8PWVh4h22UKRW19AHWONQqhkyjYUcDICngdcmvzo+OWnLCsN1Acm0uFbcTuOGOOfxrnr0eSVj0curqtTUlsfZ+mXDvGsp7gHH1rqraTeSeBj1NeV+D9WS90iyulPE0ETZ9SVGa9EgfDYyAPc1xmc4Wdjo2AClielZEpYnDHOKvrPHKpYHLDrVKcB8dvfvWttLnKcxfqx+623t71xEy4ckcHsfeu+uU3Rnk/jXEXSqgwAcjPU1KQpHKXvO6uG1SDepXG7OfyrtbxRy5YpnlSK5K9LOpQckE/jioNonhXjHR1kV9gGWBxkZBHcEV8CeOPDDeFtUYxIEsbhyI1A/1b9Sg/wBk9V9ORX6ZavBHLGRIvzjsecV4B468H2niCxurK4TaJlIDDqp7H8DXoZfi/ZS12PPzTAe3hZbrY+GftEZ4BrpvBXgrxB8RvEMXhrw2n71mBmnP3IIyeXY+uOg71Y1f4UfEbw5aeHdT1/QprDT/ABY86aVdylBHeLbECSWJQxcxDcp3lQpzwTzX6XfAz4e6T8P/AA1HbQANd3OZJ5iMtIcc8/yr3cyx/soXjuz5bK8qdepaTslv/keq/Cv4b6B8MPDtv4b0VQoHzzSkfPPMfvO59T29BXtMTHcGB6VylrcYcqDsYrtz1471t20sSLtjGcda+Rbcm22fdqkopJGu1RGTfllGOMA1D+8bZHu4B5/CpoEYAuBu3Y69gKpMNxDbKVUsc5OKyrsMqllYjPpW7MWB2gbjkknsfpXKahOCGQjAB/lViOT1SRUSRk+YHv06V8/+MLlgpDMw6/dr2bXrpwpdcqAO9fPfimdneZmBO0ZwOSTzwPrSgzqoQ1PpT4BI83wua5nHJ1G82n1ww5/OvNfiPF4s8X6o3h/wVaPe6kMJGijcEaZgpkIyM+mM/wBa9u0LS08EfDLRvD0kbGa2tw0rKMjz5cyTcZzwzEH6VX/ZxsG1f4hNqgG4m6UqR2WLnH512xXM1E5sTU9nCVTsQ/Cvwj4j8G6Lb+HPEdvPZS2YdDHdYEzyFiWlY5Iw2fl2/Ltxg0njvQluY7hWHykFgT/d78delfXHxzt4Z73w0HhEjo10VY9U4jyR718mfEHXGsYzvILzM2OQSQR1JGfWt6tNRlZHFhcS61NVGtz6m/ZlmurfwVDo95cSXPlQRTRmTBKpIzrsBHVV2jbnnaQK+la+IP2WbLWo9bunlDCzsdNW3mGThJJZzNBH2G9Iy24dgwB7Cvt+vWwzvBHx2aQUa0kgooorc84KKKKACiiigAooooA//9b9kNU/5Ct5/wBdpP8A0I1Tq5qn/IVvP+u0n/oRqnXJLdmgUUUUgCiiigAooooAK8u+KWl3F3pcGpQjfFZF/OQdTHIBkj6FR+BNeo010WRCjgMrDBB6EVFSmpR5Wb4au6c1NdD4U8ye2JgMxeOMcMMgEdQRnrkc1xHw+Y3X7QfhNnO9Ue9ZTu+UFLSUjtxzXvHxG8LRaDrP7hR9kuVZoccbMnmPHbB5HsfavmnX79/APjvQvHdugjXTJg8xGceTuBmBHvCJFHfnivCacZpSP0WnWVehLk3aP0/eNJY2ikG5HBUg9weCK+CPGVhFb215YiRVWzaSJSwPzKjFR9OnUkZ/Cvu+zvLW+tYb2ylWeC4RZI3QhlZHGVZSMggjkGviT4l6Pdr4i1nTp9zbJZJEJYBfLmPmKSTx/Fjr1zXdmKfKmkfN8MtKrKLPiDw/dRaP8V7WaEjy9RV1bB437SuP/Qa+0NNud8AwOw796+HvGkP9neIbO+ikDNbzFgysHIzg44+nFfYfh6+M8MLqeJVVgfqK+ekz7jFRurnodvcABgpAPHQda1ycVzFoy4XdxW8jb1DdKuMjzHG5WuVOzI781zuoR7064yQfxFdPPzGQencVzmpLu/WraM7Hn2oSFPvjb+pNcrfN5i7Aeveuy1FCjMT3/oc1wl+2SQQqsAfYDHvWb1BHLagNuRx5h6ZHauA1WNpgVX3rv58NLkjp/n8q5W7w7HnJPf1Haho1R4tqugaFf3cEPiW3mn0oTwtex20vkzvbq4MnlSYbZJtyFPTJ54zXm3wy1Lw/qHxS1nU9I0j+xdKkuZVsdPkle5e0tw2FjaWTLM46sxzyTjjFe76hAZAygbiegr5j1Nz4Y+IDzWzFPtqpN7bs7SfbOASPWu2hLmi4s56yfNGofpbpeoLNbJtI59B37V2VpJIQqE9a8W8C6rDfadbbTxtznseB0r2S1cEc/wAVef1serJaHQQMPLyexIFWo3Rcq/es2KQ4CjIGDkjnpVkE58wnOCB+dNM5JLU2UfGTjmqN0+xPlxyD3559amdMY5PIzxWLqMqHOVzkEda0TFscrql3Gd244C9+/wCFeWeIrzcrOldvqk7hS3YAcDgV5Hr9y4UdgTj/AOvUtGlGN2V/h3pSa18QrBZk3xWBa9Yf7VvzH/5FKV7P8S9WzpU7QhhFGh/jJBOOuD2J9ga5D4A2VzqnjK/js4xcTT2sdsqlgg3TTA5ZjnaMRDJx/Ouj+Isc1zq8HhyWNluGmi+TcHBRzy24cEBQT+Fb09UdFaolKz6H1j+yxoo0zQRK6fO1rGrH3bB/Uiq/xR2N471NoYyfItbcO7ZVQGU4A4O4nvjp3PNe0/CbS10jwtGZBsEpBzjnaOpI/wB4k183fETxV9tTU9dB4vXPlj+7Cg2oPYkAEj1NerVVqaR8nl83PFzqLY+aNXnGt+JltViN0m9EW3UtunkLYSJSvzZc8cdBk9sV+lfwm8Df8IN4ThsryONNUuz9ovfLGEErDARAOAkagKAOOM96+Kv2bvDKeKviZFq16rfZdCiN++4Da91MdtupP91E+dRn72e1fpJWuCo2XMcOfY28lSWwUUUV6B88FFFFABRRRQAUUUUAFe8V4PXvFb0iZHg9FFFYsoKKKKQBRRRQAUUUUAFFFFABXzl8T/Bp0+V9W09T9kun3YH/ACymI557I4z9D6cV9G1m6xpkOsabc6bP924jZM+hPQ/gcH8KxrUlNWZ24DGyo1FJbH52eOba6uNFmeKJTHHGSVY+voa+s/2c9Vs9U+EOgw2zhpNOja1nXukqEkqffayt+NeEavaMtvfWNwmHj3xsp6ZXgiuP+APxTtPhv4ql8Ea8wj0TX7kiC46Lb3yqFAk/2ZYwmG6KVOeMkeRhaqhVsz7TN8NKvhvdV2tT6o+NCCGDSr7bkq8ydMjLKGGfb5Tx36V+dHxfWbUBciWDCSoyYK8DuCTnAIIzgCv1G+J+l/2n4QunQbpLIrcqPaP7/wD44Wr4I8feF72+8HnxLb/Z41MLSpCwcyso/vYICEgHjB7Z61WYUtboOGsXFUlF9HY5D4K6x/aHg60SQ7ZLRjDIDzjHIr6GjlyeDngH86+SvgdIYE1S1TIQOsgyO3Qn8a+oraUZjCgtgde/414zPZxS99nYwMCm4HO76D+VPKqxDEZA6VmW8hfgEPu9O1aIOK1gzicbmRcxlUOe9cLqy7mMijae3cV3tyVkyqn8e1cffoDGV6kdKUpEN3PPb/zE8zdzg4rkb6U4JjG1hwSemPeuw1RSN3zc85PriuEvpuTuUZHUUkhp3ZzGowBhkHB6kY6CuD1KxDHAXgjrXeXs3KpypH+eK5m9XLqPQfhVGsGfJ/xOs7i08U6Hr1xNJJDFGbKNHYsluqu0qpEpOERmdiQMDcSetfZvw01tdT0qNg21doyepBFfOPxa0g3Phm6uoxh7MrOP+AHkfiDW18DfEBeFbKdmKFlxiuupJzopvoRQjGFWUV11PumyYvGhbrXURn5gOygKfeuMsLhlEaEFs9+w/Gupt3SeLCqRkbfQk+1ebE6qsdTUZ9qBkbPr9a0RIVAOCc+lUIVZ+rdQT+VW40WKHyh+daRMCK5nkVBsUnJGa4XVrgqzZONhxjr1rq9QfAKk4Cjr3rz++k88u3CgHAyetUTezucNrV0BukJ3ewry6yso9X8V6LprEsl5ewRsDz8u8Mf0U12OvTvHu4xv5H0rG+HaJefEzw7ZFxGZZ2CHvvET4A9z2prex6FFaNn0r49WSGG5ubjKhgxVSMDHqD6+/WvQv2RtExZxavMmTOZrjd7u20fpivNfjbJpC3dnZaDaLZLNGYdqM2HATZllJODu53DHNfYHwL8Px6J4WjyvlLHFGi56cjJGfptr0MFD94fPZtiX9X9Sn8Yltb/W9ItpZDt0+Ge5mj/hxIVVNx78o2B0PevgjxVd3F/4mW2sV+0S+dDDbxYzuuZ32xLjpgH5se1fTPxA8XQ3n9ra7DL5kVzIwiI6eVH8i8/8BJPua4H9nXwe/in4jw+IbqPdaaIjX8m4cG4nzHbj2KoGfHritpe/UIpJ4fCK+6Pub4feC9P8A+FLPw/ZfPIoMlzKR801xJzJIx9SenoMCu5qIdKlr2FsfEVJuUnJ7sKKKKZAUUUUAFFFFABRRRQB/9f9kNU/5Ct5/wBdpP8A0I1Tq5qn/IVvP+u0n/oRqnXJLdmgUUUUgCiiigAooooAKKKKAPMPippC33hw6ihxNp7eYCByUOA4x+X5V8Q/E6IHRzqQ2hYUMhL8p8vI3DuOOfYkV+kN/ZW+pWdxp10C0FzG0bgHB2sMH9DXxL478E6torz6XfIWt8nyZR8wkA/iOeh9Qa8XMaTtzI+w4bxkUvZyevQyP2Wviu+l6zN8IvEc7rbyNJLorTkkxqCWa1LEDOBnYT3Vx3UV7/8AF/w8k2r6N4je3860UmC5yNyZw3leZ/s72HJ4zjPWvz61nQrOY/ZtWf7De2zM1tqA3botuDtkxn5QRwy4K5Lcjdn6z/Zs+MvifxTqN78KviNGJ9Usbbzra7wD9qt02hvMPKuSGUq4+8vJ55JhMQqkfZPc7s1y10KjxlHbqv1PlP48aZ52sQ3ltEsYhjYv5YCADeNo/Vq9F8E3iy6DYXCjcPJQf8CA5r1r9oTwRbJrBe0hSK3v4MsqgKu4cNwOhzhj7k14V8PBPBpUmmzDBtpmQD24IrzMXRcZWPVwWJVWgmew2r8ZDFunXtwK6KGQDCAYz19M/SuWt3ZMKwxgYHuPWtmJ1ONwK7vUelYwZE1ZmkZHIxnH5/1rKu4zJHtWtGXciooOCM5rMu3DEhe/fvWjZgzitSQsMZyeccV51qybcljjuMcfQ16Pqn7s/NXnurO80jg/5xUpF2OBmljdyz8sCQcd6wJsoWyQcevGa3NSjYxhVJyc9K5mZ/lwRkHtTKsZF1BvVsd/Wvm34v2KxTabqsYw0chiZuo2yDP81/WvpmUM6EE9q8n+JehSa14WuwgIlgxMgz1aP5v1xit8PUSmi6sbwaR6F8F9YNxpaQmTfwRtPQD3r6hti6MGDEO5yec18C/BbXY4Zo7W4biXII6Zr7p0yVrqEOp7ZFYYiPvs2pz5qaZ3lsVlUNW0h3oP9oj+tczaSmOICUHn0rYWYl/MxyBgVMdzGZduZo4l+YkE+gzxXH6hdOVZRxkk1qT3D+UCT8jf0rl9SmRh+dUQldnL6pcKsTBq8d1uQozBeB29q9Q1UhxwwP6/5NeZa3CzkutTzHXho6nRfBHx5oHgnxVqMniS4/s+21C1CxXO1mVJ4WLKr7QSFZWb5uxA9a9L8Iaxp/j34kT6rZOx0y1/etPIPLAWAHLsGxtABfkkda+QdYH2WJXl/wCWjBR9TX0FongEeIfBMWgQ3hhlvriGW7ijDEPbRbnZXPTlghAP93JGBXTTaS1Lr0FKV1o2fed18ZvDV14ek8M+CpBqc/lNBPfR/wDHnCX+8Ek6SsAf4cgHvkYr5Z8f6yl80OlwlniyBJtONqfxNn2GT6etdpp1ha2Vra+DfB8BYRqIwFGc89TjnGST717V4X/Z9WZfO8RymCOfHnxL/rbhc5MbtyET1VeSDyeldvvVZHiVZYfBxcW9Wdv+zz4Y/sP4dW2qXVt9mv8AXXa8mUjDCNvlgQdwixBdo9yepNe81DFBFCixQjZGgCqo4CgcAADGBU1e3SpcqsfCV6vPNyYUUUUzEKKKKACiiigAooooAK94rweveK3pEyPB6KKKxZQUUUUgCiiigAooooAKKKKACiiigD5V+KdkdH8V3FxKmbXUYw4JwBuHyuPc5Gfxr4o8Y+FzquqXNnLOkD6gR5CyjbEsiBiC8h+6SSR0A5r9Y/EXhvSPFFgbDV4fMUHcjDho27Mp9f8AJr4v+Jvw1vNFZluB5kL/AHJQMBwP5EenbrXg5hhXH30foHD+aQklTlpJfidJ8Cv2hLTXYYfhj8Tz/Zvie1UWqyTnal5tG0AlukpHUZw/BXqBWx8UPhpdaL4OvBp9wLizUkIHGJI45DwpPIYKTweDzz6n4a8SaamsJ/Z/iKZbWS1IjtL8kl7fbwhlx8zWwOMsMtEexTp+rtpZx+IPh/BYG9TVDcWSQvcodyyyqgBf8X5/nzW2Fmq0HF7owzmh9Uqxq0tFJ6roflT4NtG8O+Op7EnZb3kR2D1wMgV9HWcj/OF46fzriPEfhlrfXLPUAMS2chBBHPPB/KuxtAjQKzHbnp+VeHVi07M92VVTSkdTEeM+tXkO/PsM/hWNbSBioBJABHHFaEL7YwDgHuCaqJztEkm1lMinocYrltTk+Zlx0rcnaTy9u7ocVzl/JvjMe4N2yPem0KKscPq2x03kY/HtXmmoKxlYjtXo2pKd0iFc859+a4W/j3FyOMDOfaqA4mWczMc8FScj39ayJCr5Ocbfyx2rTuCAMgcDoKyS64AxgDNIqO5yuuadHqFrPbS8rKjIR/vDFfPfwivZNK1lbKRtpglMTEnujbc/pX03PhpCAOtfLuuWz6H8RLrYMLflLlCOhL/K3/jwJ/GuqhqpRFWVnGZ+kOh3IezWQAEEDGD29a7bTXIdgR16fX0/GvF/AN4brTbaSeTOVAIzjP8AOvZbeJWUk9+fpiuG1jonvc6NGZV3FeW4Az61JPcgHCsVx1I9KyIWkIxu6VBLKCWBXAxgnNWkc9ynfOWUsSTn17VxGoTsEZsbc8V1N3udSVIGfU1xF/I26RWxgNwAalsaPOtdbeuOmf5V5dcXFxaXsGoWcrQXNpIksUiHDJIhDKyn1BH+RXr2pLvVsn5j3rg08OaprUrafosKyXtwpEe5tir6sxwcAfn6CnE9Ck7qx2/hbxRrfjTX5fGnji+e5stCglvJ/LRUVYoFaQiONQF3MRjPqc9On0P4M8d/EP4h6INY8TMnh3w7KxkttKtdy7w3IaeVvnlx0x8qk84PFcX8Ovh7deDdKOmaheoCFK3ska8MHHzQruycsDgg9uK948H+Btd+IE0bW0X9m+HrUlRKehVTjag4yeOvQdM5rspc0naJx4z2dNOda1lseWaxY6l4rP2ODdFp7MY2MSbnYj+CFE5dz0yOnevs/wCBvgSbwP4L/wCJnB9n1PVZmuriPO4xr9yKM+m2NRkdiTXe+GfBmgeFrdIdNt18yNAnmsAX98dgD3AxXXDpzXr0cKou7PiM1zT6x7sdELRRRXeeGFFFFABRRRQAUUUUAFFFFAH/0P2Q1T/kK3n/AF2k/wDQjVOrmqf8hW8/67Sf+hGqdckt2aBRRRSAKKKKACiiigAooooAKy9V0ix1qxksL9N8b/mp9R6Edq1KKPUqMnF3R8DfFv4Y3ei3bwncLa4JaGaPjIBz17OP5fWvKfh38Vb34S+JZWvNOjvbAqYccCS2iZtxW3bkrEzYOz7oPTg8fp5q2l2WsWEum6hGJIJhhgeCMcggg5BB5Br4g+KfwB8QT3/n6BC15Z4kfzExvRUGSpXjcW7Y714lfBSpz9pTPu8rzuliKf1fFH0L4xbSvH/gLTvF+iyieBkWeM4+by5cB1PX5lYAEdiCO1fLLaUmlXTug4lO76mvRv2U7XXf7J8WeFNZV5NKtpIhAWyBHLIJFmRQen3VJXsTnvV/xboBtnubaRBvtJGCkDGQDg/mazxUHOCmTgZKhVnh73Senoef207ysHGFPbPPJFa8bhhx1HXHFczDIwBR+SOn0rcgkVV2t07+5ryUrHqt3NYvvUrkN9RWVeNsZ1QAEdQefpVwzbf9Wc+tZV0rbSG4Pr6jORWpJz+oLG+Y8hgfTtXn2qYh/wBbxkdeucV21/Mscm0jkgkDucVyN8fMG7OQe3vQI4PUoxIQg4681xtz1NdbqMpUEqA2Oozg1yVwgU70B57k5xTYIyZGOMVlX0SvbOjfMCOc+netJ5TKmCpU5I59qpMNvXkGjrY6IbnzT4FMvh/xNPp1yQGt5XjHuucq2OmCpHrX6J+F7wTWkWAGRx3r87/FIbTPHsbsdouYEk6d1JQ/kAK+4vh/em50a3brtHT6+9dGLWikY4d6OHY9zjCyKSD3/wD1GpSyhSqnOay7M4UEcnsKsvgZRjg9T3PPvXGmVJFK5l2MEKlgetY97IjRbieR1PrWlMyEuAvzHvWBeh12lSG64A9PWqaIucxdghcHAIH8PSuH1BBOpUHA9etdnqRIO37xbPtXCXz7zsB+UZx7VKNk2jr/AAN4Z8Nzu2q6vaDUriB/9GgKGXbtwzPtGQvBGW7Ae5r6P8I+HdT8ZXP9heHItvmoDdXZUrGqE4OCBjb3VRy3XoM184/DyTWZtTj0rT7t7e3vJoxPHH8olCngORhiuCRtzjnkGv1v8LafFpujQQxxhCygtgAc9unHTFepgsMqmr6HlZvncqUeWK1Zi+B/hz4f8C2axadH5t2wIluXA8xyev8Aur6Afz5PfUUV9BCCirI+EqVZTfNN3YUUUUjMKKKKACiiigAooooAKKKKACveK8Hr3it6RMjweiiisWUFFFFIAooooAKKKKACiiigAooooAKyNb0bT9e0+TTdSiEsMo/FT2ZT2I7Vr0UNXVmVGbTuj89fjF8JbnRd84BkiU7oZgvB9m6hT2YH+tcH+z78TLz4ceM4tE1uSQaHq5Fs0ZJ2QzMwEcgGein5TjBCnvgV+m2padZataPYajCtxbSgh43GQQa8I8Qfs5+C9X1fS9QsC+n2tjIjy2yjesyxncFDMcruIwx+bIJ7815U8tcZqVNn19DiGnUouhilcyPiL4Vht9ZuDGuEvP3iAdAx+8P++s/hXiBiaC7MTcMDgcYH4+lfaXjvSxqOki6RcyWZLDH90/e/kK+UPFOnG2uxOnKy4I/GuHMKNnzI1yfGc8OV9Cpbs0jKQOg/nWrG2AWx1rnbSQElD36VprI4IGTj1xn/ACK89bntE11IMbV5xgmudvXkKSZbGDitqeWP7si8kgZrn9Ry6SGM4ZDwfT3qyWcpqbRMu1+549j615/qAYKxdtzH8K7m8QK6tuJU5yT2rhtSyXcf3Py/KmhNHEagWYkAfdAGc8Vz8p/hFdHcogLiPvXN3EQ84sTyBgfQUJ2dyolIthjnmvBfi9ZLaXula2mMJI0L+yv8y8/UV7w20thu/evM/ihYPeeEr0RrmS32TKeh/dnJx+BNa4d8s0VWV6bR678HtT+16YI3OSm3Hvmvpuwud0WevT8q+JPgdqPy7c9NtfaOknEYdfvDpWVeNpNFKV4pm6rooI6juPf2rPmLyACPC+pzz+FWwf3fJA288nkk1nylW4Y7qiJmzGnkMSfL0xj8q5m9dcYG1iO9dLdO5RkUAKe44rj9TfEbKoxz/Om0EXY5O/l5YMec8D196s+D9ct9K1o3N3JLbQvEyM9ugkmGOQkakhQW6bicDrWZqQEsuQcZwcdhin6DZNealb26jLSkDb2yTQohKq4ptH3d8KvhTpvi20tte1S7uG0wMZVs3PzsCTtWWQcOxH32Xg8CvsC3tbe0t47W0jWGGFQqIgCqoHYAYAHoK5L4eaRHo/hOxtVGG2At+Qx+ldvtr6zC0lGCsfn+Y4ypWqNzY2iiitTgCiiigAooooAKKKKACiiigAooooA//9H9kNU/5Ct5/wBdpP8A0I1Tq5qn/IVvP+u0n/oRqnXJLdmgUUUUgCiiigAooooAKKKKACiiigAooooAijhhh3eSix72LNtAG5j1Jx1J9a8u+IGiLLPHqAH7qdTFLx3/AISf5V6tVHUrGPUrGWyl4Eg4Pow5B/A1nVpqUbM6MNiPZzUj4O1uyksNQeNuMn+VSo6qi7j1r0X4h6MIWj1EJlhlZR0IZOP6V5VA/lkBuVFfJ1qfLKx+gYapzQTNtZFCllbHzDt6/wCFZkkrNHLG3OCBn9KlhlDbraPkk5B9veq0pVSyKMZJP4+tBsYV7Jl9zDbsGD6/gfeuRv0zG0eQCxJ57k966LUIwx6kcAce5rm7skJgfeHQdjQDVji7uKcjy04I65rkbqKTa5YYr0C7yowDwR+p6VxV3CFDgE456UkwscfcqwzGevaqbyMSYlyD71s3w2ALn1/SsO4/1hqrmiZ4j8UrAJc6ZqSr80MjxlvQOu7+aV9KfCK88/SoM87Bj868G+KOZvCxuIQT5EsTgkYx+8Vf0zzXoHwWvy0MaB1GBzz1ronG9JMmCtUa7n2HDPuHlbSSxAGOavy7vJ2sMbQT9axNPcAZkOWPGa3PKkd5N/zKACD6Vx2HIyJckYNYN2qoPkGOK6CTYhIAxgkVh37R9M4I61ZLlc4XUZEQA561xlxhpcKpG705xXY6myMzq4PXIIwa5toMng4XsKpISPdP2ffD7at4wgLJmOFlYn056/hX6ijGMAYxXxV+ypoaI1/qzJgxrhT7scZ+mM19qLX0GAp2pnxGcVuarbsOoooruPICiiigAooooAKKKKACiiigAooooAK94rweveK3pEyPB6KKKxZQUUUUgCiiigAooooAKKKKACiiigAooooAKKKKAI5FV0ZHGQ4wR7V85eOPDZjtru2xloDuU+sLdD+HQ19I1y/iTTY7mAXTdIwUkGM5jbg/kcGuXFUVKJ35diHTqJnwzE3kOGPIrTikYSRkD5HPB9cVc8Q6U+j6zPaOuCGz+B6VkSLgAdx0r5hx5WffRmpJNE0wdnw54Tqfb1rF1B9uXwTg9veteXa8YUIUccE+prGvN/G3GTyPYjpTKSucpPIzyEopx2Jrl7pUc5Y4JHPHfuPrXUXQCSEv8uCRnriuduUaRSAMl+SfcVMgW5x2pxxpJkKCuCc9/wAK5O7hDbgflIz065HQ1288DTP8x3FRya5i+i+R1x94YqhI42ZcJ9T+FY2uWq3+mXVsy5MsTp/30MVtz5A296zZFLs4PRiDjtxTNYo8q+B+ota3MaPyR8pHoV4P6198abKJIkCff6j61+c/geQ6P4zvdPc4FtcyDHoGbcP51+gHhy8aaJWU4BXFbYyPvXFQj7iO/HlxbIh94j5c98dyaqyq7EhwBj071ci2lE3jJU5IqK7QzONy4KjGM1ioPqQzAvIVAIridVUnemDlxxxyceldrqJkhHnISQMkg+1cNqJZiA/B60JC6HGXcTuSHJXnHB9K9Q+D2iNrvjWxtlj34cH6HtXnbQkTFs9P1r6u/Zg8Prc+J21RlyltEWz6e/54row9JSkkzix9TlpSZ9+W0C20EcCdI1Cj6AVPRRX058EFFFFBmFFFFABRRRQAUUUUAFFFFABRRRQB/9L9kNU/5Ct5/wBdpP8A0I1Tq5qn/IVvP+u0n/oRqnXJLdmgUUUUgCiiigAooooAKKKKACiiigAooooAKKKKAPO/G+iR3tnOoXi5TP0kQdT9Vz+IFfIkkLwStFKuGQkEd+vavva6h+0W7RE4zyD6EHINfHXjvRZNL1mVUXbuJdfo3P8A9avFzPD7TR9XkOKunTZxcWWUOvDDkVBNtVAxG7GcepHWgM8XI4PY02R942kDd6n1ryT6K5gXcfL+YvPPH1rm7mMuDGRkHqPQ10t3JG2ZY33jHHOcj1Fc1cnh9p5Jz780Gklc56+jCK7qOeo59RiuanCNCpVSjHqD1BrqriLzNgWQFBkEAZz/AIVgXSfKwJGQcEnjI/wqE7EtHBakvybk6dq5q4Tb8zgHOeh967y5t1kcrgMMYJzx9TXK6lAY5DG2SSMjJ7ZxVJjWhwfiLSxq2iXWl9TcRuoJ7Ejj9a5b4O6l9mkiQrg9+a9BnjOwr36ivHfDLvo/iW7tU/d7J3ZfYSEOP0Irqg24NA376bP0H0SVZIY3xn8a6sFOdx24Bx7n0rzLwjeh7RcEDGK9CEisTtYMfQVzoqpuSSjBLjBJOevTOP8AGuS1MLIQ+fmPJrfmnaJi0uPoK5i6kQyGRuC4I/CnIzZyl1GzMe2SB+BrPjs/NcInHzDNaspIb5iCCM4BrZ8PafLfahBbp/y1ZR+v+FOC1Mak7RufoH8AtCTSvBKz9GupC3T+ED/EmvcgMVh+GdLTRdCs9LjQRiCMAjr8x+Y8/U1u19TRhyxSPz7EVOeo5BRRRWhgFFFFABRRRQAUUUUAFFFFABRRRQAV7xXg9e8VvSJkeD0UUViygooopAFFFFABRRRQAUUUUAFFFFABRRRQAUUUUAFMkRZEaNxkMMH8afRQB8y/FTQmgaC/QncmUYnkkryv5jr714jyXMhOc4r7S8eaSNV0GaNVy68/lXxpNC0RaIJhu/NfOZjRUZ3XU+4yfE+0p2e6GvNv+4ccDP1rHu0xAWjUAhhyPft+NXc7eQATnAJ7Vm3bSwsQGyOy+/c5/KuI9Y526xuzGuAe+e56CsC6kjCuyrwgJOOc47AVt3JlALlclqw3kVZDtfGamRVrHMyQIszzBdrS4z+HTiufv4ApIByHxgd67a9jbeAOQoJJrktQM0UsaOg+cHDAfKR3Gf5VIJHDXVu6bwRuDcg1gS8Ep+FdzqIj8rbgAEgrgfnmuMvFQSMhGc1qhwPD9eQ6d48+14Ci+hR2H+3H8rfnxX2H4A1ES2UePmxivlD4iW4jbT9WJx5c5jY+0g4/UV7f8LNZeVUizjpz+ddNX3opjpy5W4n1VC+2NflJ4HTsR3psk8a/KT1JJHfJ96x4bi6dUCHdG2cn078CrkkysoQjaTwD6ms2EjK1SRlYKnJPUdsVx16Y0kC56Zro7wyEbwd27PNc3OxdW4wT0HvWSMm9GZ8cUbyKWGT61+gv7N+gtY+GbjUpE2G6KqPovJ/pXwtoto1zdCEjG79a/UrwBpA0Xwlp1mRh/KDN9WGR+lerl1O8mfO53X/d8p2dFFFe0fKBRRRQAUUUUAFFFFABRRRQAUUUUAFFFFAH/9P9kNU/5Ct5/wBdpP8A0I1Tq5qn/IVvP+u0n/oRqnXJLdmgUUUUgCiiigAooooAKKKKACiiigAooooAKKKKACvE/i1oJuLKPVYU+aP5W/8A1/r+de2Vl61pseraXc6fJwJkIBHUHqD+YrHEUlODR04PEulUUkfBsseQQvYkVUfjcznbj8/zrq9YtZbK7ntrhMPGxH5Ej8uK5NkUEsUwc5HtmvlpKzsfocHdXMK5hWUlmJG04GPSufuomRmdSeBnmupnUuuCN2SSfxrOktgVIZcA/r71LZ0p2OU8uVB8y598fjWZLbQtujdeTyR9a6prYKTjgDqaxrmxBmEsQ4YYY9yPTPYVBKR59cWE8E0jK/nA8Dsdvpj+tc1fRO+S5wCOh44r0HUYo9rIq8D8D3yQa4zUVeMMylce9NCaOCmXy8tkn61414jjbT/FqXQ4S7iVvqyEqf0217deQMYmcOGxXnHjqwN1o63kaBpLBvMz38sjDgfo34V10Hd2M6yuj3v4b6wJbMKXyc8j2Ne2W5hjyVYlm+8Se/07V8hfDfVpsrEWypGfxFfTVpO0sYDUnGzsbWvqdHPMxQhhnHr6981gXiF8MrbSRnOMnB7Grk0rEEjjNUJzujPtUNGTMeRQ8m0/w/zNe2/BXw02teK7WFxujVgz+wU8mvHFXewXoT39/SvtT9nDQBDFdavIvGwIp7gsc/0rswVPmmjx81rclNn1ZRRRX0B8QFFFFABRRRQAUUUUAFFFFABRRRQAUUUUAFe8V4PXvFb0iZHg9FFFYsoKKKKQBRRRQAUUUUAFFFFABRRRQAUUUUAFFFFABRRRQA1kVlKMMg9RXx7460FtH8QXEbLhScqfZhkH8a+xK8h+Kvh8X+nR6tEuXtflbHXYen5H+dcOYYfnp37Hq5RiOSrZ7M+U7hBEVKgAjgZ7EVmXGTLluWAJJ7HArVnUpJIzcDjmsudW8w7hj+dfOn3JgXELsdqncBjBPt/WsiW2lDENjAJOR2z0rqXjiOAUz14zxWcQk2ShBA6Ecg1MjSW5yN/bzLG0sZAwQcnpjPI/HpWRdRtINzKFyMgY559R2rs5UXOcDvjP8q5+9jEsnBII6EVIzzi+jWPc5GNvcHIx+VcZqIVpWYHd2zgDNej38JQNtXA7DOTXA3hMc7BThcEH2b0xVRM2edeKdMbVtBvbOLiUKJI/9+M7hWV8NdaVHhJkyCPyzXbz7oZNjLjjNeWwQDRfE80CExwTP5sWOmHPI/Bsiu2krpoE/eufcGkaisttGxI3AYweef8A69bIn3qrkfNjB5/WvMfBt+89pErhdwAB2mvQfMCgEcg9KxZciNm3LjHeseYZ+ZiAynnJ61eluPJXd61VjjaVsnvyPrnGTSUbGcpJK7PR/hZoMmteJrS0IyPMGR14z3+nev01VVRQiDCqMAewr5A/Z28Ms9/NrcgwtumB7s3A/TNfYNfRYCnyxb7nxObVeapbsFFFFdR44UUUUAFFFFABRRRQAUUUUAFFFFABRRRQB//U/ZDVP+Qref8AXaT/ANCNU6uap/yFbz/rtJ/6Eap1yS3ZoFFFFIAooooAKKKKACiiigAooooAKKKKACiiigAooooA+bvi1oHkaiuo2y/JdgsSOm/ODzXg8sLFsJ8wUAZr7h8X6Mdb0C4tYxmZcPH/ALy9vxHFfGOoQy2s7bgcoSvArwMxoqMuZdT7TJcW501B7o5V0IOD2/n2qjdHy8IDyfr/AErcYknkbQOnr+NZc8Ls+VAP1rzJHuRRkzDIx69fesudSwK9vWr62CwSNIpIMjbjubIJwOme1FxEpRU7c596kbOMuupi+Zcd+h/CuF1JU2NtcDbxyD19Pwr0i9iikV0f5VBxjGM44rhtYt5ThV+XJHUCgbR5zPCwyjruUkn05PTPtXOXW0LLA/KMCpB6EHgg/hkV1V2Ap3JkbRjmsS5idVb5slunFbw3MzzDw2ZNI1OXT5lObd8KSfvDqrfQgg19aeHdRhltlAPI7V8vazC9rqFvqMfSVRGfqvIJ/A4r2fwlqGUSMjPpWlRX1NIy93lPX2dZAVU1mSncwX+6MUkErkq+7HQVORWcXYwkauk2/wBouokChi5wMj3r9J/hjokeh+DrK3CBHmBlYAdzwP0Ga+G/hfpB1jxBZxYyWdQ30JxX6QxRpDGsUYwqAAD2Fe5gKf2j5bPK97QQ+iiivRPnQooooAKKKKACiiigAooooAKKKKACiiigAr3ivB694rekTI8HooorFlBRRRSAKKKKACiiigAooooAKKKKACiiigAooooAKKKKACqt7bRXtpNZzDKTqUPtnuKtUUDTs7o+IfFGlS6XqU9pJHgRsRj39R7GuPvEiABBCcAnPc96+mvjB4daS3TW7VAzAbHGcZI6HPrjivmi5iUSfuQC69QeqivmcXR5J2PvcuxPtaSkZE/3WX0rn7hriJglsFdDneTwVAHGB3ro3fK7cL8wB+X0qqyK29mA6dhjqMVxNHopmF5SyR7m57/THesa9t3J3S5bZyABzkV1TqwxkYrGuyuQWYLkHrSKieeajFIoMkmcjOMe/c157qChgWK5HXnrjvXqWolwu7YCQeCeeted6oqqFI+9jBxxVRCTONuo97qGBJx94D0rgPE9ntS31BeWtHCN6mOQgc/RgDXpUrA5A7Vg3Vql1FcWz8pOpXPeumM7EG94HviqKqthccA8jj1r3FbklFB5x3A4r5h8G3OwxLJ94Egj0IOD/Kvf9PuFlgQgde3YVEtxt3Nx9jgEjNaOl25uJ/LC7hxmqEe+QJHERu754zXf+AtFlvtdtreNcmV1G3sSTWlKN3Y5cVNRifd/wl0NNF8JQfJse4O8/Tt/WvTqq2FqlhZQ2cXCQoqjHsMVar6mEbJI/Pqs3KTkwooopGYUUUUAFFFFABRRRQAUUUUAFFFFABRRRQB//9X9kNU/5Ct5/wBdpP8A0I1Tq5qn/IVvP+u0n/oRqnXJLdmgUUUUgCiiigAooooAKKKKACiiigAooooAKKKKACiiigBCK+XPil4ZGl6wb20XEV2GIHbJOT+IP6V9SVxfjnQv7b0GZI13zQfOn07j+v4VzYujzwaPRyzFOlVT6M+HZgPOEJVuRluOOegBqmzcBR93AxXTalamGd12hSeOB7nGfzrn51bCqozjNfMdbH3hn3EX3FLHBOeOOlZ8oH32bCitMnAPTk55NVXSKRdkvKnt61mapWOXvEZ1kD4WMnqTzjpkVwmpIpJdW3dMkjALHnn869EvxuZlGAFxjA9a4TVW+V4SBnByRx09qBnm16TNI2eKw7jeoDjknrW/djaWbriszaW43DqDxz0reLsTJHH69ZvNYSKv3lxIg91Of5cVv+EbmSVQVbABArQmt43j8rHynI/A1zPhuOWzuHts7TA5THsOn6VbndWIse/QO+AFG7kcfSt2zhSRvnGWGDn6f56VyunOZLZg33iME11WmW6tiJ+Q39KIuxFV6H1r+z3oStfvqjJlLdCAccBjwPx6/ka+va8n+DWiDSPBkMrptlvGaQ/7ucCvWK+kw1Plij4HH1ees2FFFFbHEFFFFABRRRQAUUUUAFFFFABRRRQAUUUUAFe8V4PXvFb0iZHg9FFFYsoKKKKQBRRRQAUUUUAFFFFABRRRQAUUUUAFFFFABRRRQAUUUUAZ2rabFq2nT6fN0mUrn0PY/nXxH4m0drW5msrjjY5yOR0P19eK+7a8C+Lnh4B49XgThxhseo/x4rgzCjzQ5ux7eSYvknyN6M+YJUAfaxK7RjkVX3YyDyCCCK2bhF6kZ21iz4LF16elfOtH2ZTf+H6Csi5heBTJMwYkkgY9TWu67iUz8uMg+/bioL2H5Sd2SOcNz07VBskee6kPm+eQZGdo7HPXBrzTVP8Aj4P1P5V6pqytIoz7/rXn+o2gZWl3lTxnFA3HS5xkoVgVYZzVVbYGIgDaD0HXGKnzIp5ODuFWFxgxdx3roWphc4W3gNj4ilwvySYlH/AhzXtujyxPAiBscV5drkPl3NhqOM7WaGT6N8wz+WK9C0NtkCyjkEEDsKpxGmd1Z+Y8oTGxFbgdeRX1X+z5o8t54ge+uAGS0VnOOm7oMD15Br5Z0wLKRtXbtOPWv0Q+Bnh06P4TF5Km2S9bcPXYvA/XNdeBheZ4Wc1uWm/M9sooor3z40KKKKACiiigAooooAKKKKACiiigAooooAKKKKAP/9b9kNU/5Ct5/wBdpP8A0I1Tq5qn/IVvP+u0n/oRqnXJLdmgUUUUgCiiigAooooAKKKKACiiigAooooAKKKKACiiigAooooA+TPib4cbSdXkkhXEU3zD6E/0xXjt03lYOPWvtj4g6EutaK7IuZYuh9v88D618UaxEYXZG6qf0/8A15r53H0lGeh9xk+J9pT13Rkfek56N+X51GBsUMPmC5we5yPWpIHWRtoIOcdDVqV/3jwuChGNvua809w5zUVBQyjjk5/z69q4HVYwhMjELlh9D9DXp+os3lFVUtj0ryzWHYOTLx6UmzWEdDhdaEcseMDgY4GO9c2NwZlUZwM1s6heWx/dsRuJySB6VTjUSLvbkn07/SrizGpGxF6+wJ/KsaWAp4h3DgTxxuSem4fKfzAH6VusAh24we9I9ssxt7hV5ilwOf4HH+NdKV4mR2unxM4TZkgdwcV7T4D0CfXdZs7RUz5jKhY9TyM153oFnvVFyX+vavuj4FeEI7VW12cZJBWPI4J4yevbIrfC0nKVjzs0r+zg2fRdrBFaWsNrCu2OFAi/7q9M1cpCv4UtfRxjY+G8wooopGYUUUUAFFFFABRRRQAUUUUAFFFFABRRRQAV7xXg9e8VvSJkeD0UUViygooopAFFFFABRRRQAUUUUAFFFFABRRRQAUUUUAFFFFABRRRQAVjeINLj1jSbiycZLLkfWtmik0VCTi7o+C9csm027ltJF5QkZ6Z964RtrNuYV9O/GHw0EkOpWy8SEbgO2en68flXyzdF4py3RWIyfTnFfK4mm4TaZ+hYKuqlNSNYRoFXzD8zHAHoe1Vnt0Cksc4rQkTfDGwXJUgg9wT3qCSNXypBIx97Bxk9cY64rmPSi9TzjWCEz3615xfMMgGTpntXqes2TNnYoUHOSBznvXkWuWU434chR1A4zQbSjeJznlI/HTHqeeeaeI8cDisezu5kmMVw3PIBPUfjXSFY5UV4+AelbJHG42djMvbYXdjNF1ZMSL9UOf5ZrsfDcPmRpgbwVGPTHuK5+ziEt3GmMk5H5jFekeFdN8po7ZhnaSG69RWjIbseufD/AMIy61qlvawx7huBPtjmv0c0+yh06ygsYBhIECDHtXgXwS8Mpp2nRatcJia6Yqhx/CvzMfp0H419F7a93BUUo3Pic4r89S3YdRRRXaeQFFFFABRRRQAUUUUAFFFFABRRRQAUUUUAFFFFAH//1/2Q1T/kK3n/AF2k/wDQjVOrmqf8hW8/67Sf+hGqdckt2aBRRRSAKKKKACiiigAooooAKKKKACiiigAooooAKKKKACiiigCOWNZo2iflWGK+Nvib4cOm6vK6LhHyfbOeR+fI9q+za8k+KOgvq2lSyRj5nHHHR15B/FQfyrixtJShfsetk+I5KqXc+KLVdl9h+Aec+mOa3nhy2QRtPQEZFU7m3kiuDtGShwT05HWrch3Q9eDXzDPvHIzb1P3ZU4JwOSOc9jjtXmut2sUcLMT+lekTiSXILYDdRjvXCavAsrMrkhO+KDrgjw3Xre1HyxPjcOeK5/SbxgwgzgA5/A9fxr0DXLBY42CgL9RmvN30+Zbn9xwWyB7nGcVpExrx0uddP8x8wdDzWvodj9rea3X5mQM6/wDAAG/lXLafe/ardCRyowR7ivQfBkix67ZySfcZ1VvcEjIreO1jkntc9j8BaHdatew20SZLsF/Emv0S8LWlpZ2RgsjmO32w5xjLKNxOP+BfkBXyh4Lax8GaUdQkQPdurKmeMds456Cvp/4byzT+FLe8n+/cySvj0+cgfoBXr4GKWx8vnNRyjdneUUUV6R82FFFFABRRRQAUUUUAFFFFABRRRQAUUUUAFFFFABXvFeD17xW9ImR4PRRRWLKCiiikAUUUUAFFFFABRRRQAUUUUAFFFFABRRRQAUUUUAFFFFABRRRQBy/i3SY9W0iSCRdwAO4f7JHP5cH8K+Dtf0ySzvLi0mXa0bFfr71+jDKGBU8g18jfEvw+bfUJHEW5lBOM9V7H8sV5WbYe8eZH0uQ4ppuB5FZSI0IDLlhwR6VXubor8mAp7heCfxqeJlDbW4zVKfgKTyTnn6V8+mfX0dWcxqYlWIsvU5rybXbCZmLSSED5iMepr2O+AkKtMxK88DivPNeNuEkJb5uw9aZ1pHgepW88V0GXccHOG/pW9p1+LiGWM8PGQCPTvVu7t2m3KzB/brWJextaTwXyfIZIwsnuY+N35V1RehxV4a3OpsuJ45Bwxbj2zX1N4P8ACv8AausxyxMqRXCpMzEcDeozgn0Oa+VrS5SQgoGAbocV9X+HdcWw8L2HlsfPuYWDEdfLRiK0pnn4rmS0PsjwPf2eo6vcWunAGz0m3WFMdy5zn8dteqg5rwH4CebJouqX8nPnTqoPqFXP/s1e+rXv4Z+4j4nH/wAVodRRRW5xhRRRQAUUUUAFFFFABRRRQAUUUUAFFFFABRRRQB//0P2Q1T/kK3n/AF2k/wDQjVOrmqf8hW8/67Sf+hGqdckt2aBRRRSAKKKKACiiigAooooAKKKKACiiigAooooAKKKKACiiigArP1WxXUdPntT95hlT6MDkfqK0KKHtYabTTR8NeLtNaC4eaFdisTuXrg5NcVGrNGyKMlSRX0R8TNGW31WRCMRXQEqY7MScj8+fxr5+kgaznbdzntXymLpOMz9CwFfnppmNPtyWY4xXL6jJ5aOrKMH04rq9UAyzg5ri7t18zBXP41zHs03dHm+tTfaot/lYwMYJwa40RxSMskTEGM56d67nU5ftRaJRt98815jO8yTukYJIJHHfBxWtNE1loVrgjTtQeWIAxOxAGOmK7zw7cMNRtWJXG9cEDOea4lLfz7V+NzREHHTg/wD163NAmcXMURUsqsDn0ra1tTikrqx9b6ze3d5e3Il+UrLIiDthGI//AF197+DtPbTPCek2D4DRW0QYejFQW/Umvh/SdLk1zxvHptmN/mzge2GOWOfxya/QRVCgKvAHAr18vhuz5DOJK0Yi0UUV6R4IUUUUAFFFFABRRRQAUUUUAFFFFABRRRQAUUUUAFe8V4PXvFb0iZHg9FFFYsoKKKKQBRRRQAUUUUAFFFFABRRRQAUUUUAFFFFABRRRQAUUUUAFFFFABXkXxP01Xt4NQK5T/VSevP3T/OvXaxfEOmjV9Hu7D+J0JU+jjlf1rOvDmg4nTg6/s6qkfB2p281pd+WDgDOOOtULxR5KXC8Mc/geK7fWbQSo/wDz0j4P4VwsrYhdQMnOAPpXyVSFmz9EpVNOY5C8kO0uOtcFqqW8e+XOHZcn3x0rsr9XCFXQbh2PNedanfwNJh9zMnZeMZpJHpnA38ptros3G7ms+SaS+LxD0JQHsRzXSataLczK7A7QMbiMD86xzGljewtEoBDDvjiuhbnNNdSrpjiF1tyfk7D1NfUPh8qfCmlSsu53EsWM4+USbv614Je6ZBbXDSx/d7L2r6H8A6ZJq2n+HtNhGfPmkQD/AGmkUf1raETy8RUSV2fdXwi0n+zPA1kD8puWecj/AHjgH8QAa9QAxVaytIrG0hs4QFSFFRQOgCjAH5Var6ClGysfA16jlNyYUUUVoZBRRRQAUUUUAFFFFABRRRQAUUUUAFFFFABRRRQB/9H9kNU/5Ct5/wBdpP8A0I1Tq5qn/IVvP+u0n/oRqnXJLdmgUUUUgCiiigAooooAKKKKACiiigAooooAKKKKACiiigAooooAKKKKAPM/ifpf2zQ0vo1/e2jYz32vxx+OK+UdVhSaMzp1HX6194X1rFfWU9jON0dwjIw9iMfnXxHq9kbHULiycHCsy8nuDivDzSFmpH1OQ1rxcH0PPdQtmuUG1ivGOK891lJoomkQEleoA5r1vyQFlRwCVx1HrzXC6jAE84ZOfTHJ+leQj7CjLQ8iaW4Mqiddu8ZK9ecY61lzaW8blpACpBOQMdK7W5ssT5kOB9Kj1KOKO3+Y9iowOcmtkbNHnekgxX7CQfK+UI7VtxW4ivE2JjJB/H1qrbxILre3QdauW8nnXMeT901ueXVjq2ff/wAENMjn8aapqrKClnEQp9GlAxge6k19YA5rwr4E2y/2Xqmp/wAVy9ov4Jaxt/Nya92r3cJC0EfCZlUcqruFFFFdJ54UUUUAFFFFABRRRQAUUUUAFFFFABRRRQAUUUUAFe8V4PXvFb0iZHg9FFFYsoKKKKQBRRRQAUUUUAFFFFABRRRQAUUUUAFFFFABRRRQAUUUUAFFFFABRRRQB8nfEvTDpHiWWaIYhuAZV9MMeRj65ryG5iUXJ2jAk5Br6x+L2lC60eHUEXc0DFTjrtcZ/pXzHPDlo2kGNpz9a+Yx1NxqNM+7yqtz0Vfc4HVrdvNVVJbAzz715dq9ijTsI4QqNycd/U17bqdi7FxjLRkgEfTsfX14rzjU4DH+64ZhyMjrXJE+gpSujl1sW+z7CuSnQkd64nUbZTcfKQOccc16FM0iwld+MZ5x0zXIm2Ik/e42Kfpx6fWuiG9xV3ZCzNtSJMZ2r17mvq39nqyW61rw+GG5rWS8Yj/dRWH6kV8gSFpbhsnr/SvuL9lmz+0XdzO/Iskl2/WUIuP/AB2unCazSPAzV2pNn25RRRX0J8IFFFFABRRRQAUUUUAFFFFABRRRQAUUUUAFFFFABRRRQB//0v2Q1T/kK3n/AF2k/wDQjVOvQbnwf9puprr7Xt812fHl5xuJOM7veof+EKH/AD+/+Q//ALKudwd2Xc4Siu7/AOEKH/P7/wCQ/wD7Kj/hCh/z+/8AkP8A+ypezYXOEoru/wDhCh/z+/8AkP8A+yo/4Qof8/v/AJD/APsqPZsLnCUV3f8AwhQ/5/f/ACH/APZUf8IUP+f3/wAh/wD2VHs2FzhKK7v/AIQof8/v/kP/AOyo/wCEKH/P7/5D/wDsqPZsLnCUV3f/AAhQ/wCf3/yH/wDZUf8ACFD/AJ/f/If/ANlR7Nhc4Siu7/4Qof8AP7/5D/8AsqP+EKH/AD+/+Q//ALKj2bC5wlFd3/whQ/5/f/If/wBlR/whQ/5/f/If/wBlR7Nhc4Siu7/4Qof8/v8A5D/+yo/4Qof8/v8A5D/+yo9mwucJRXd/8IUP+f3/AMh//ZUf8IUP+f3/AMh//ZUezYXOEoru/wDhCh/z+/8AkP8A+yo/4Qof8/v/AJD/APsqPZsLnCV8x/FzTUtPEH2kDYJkDn/e6frjJr7X/wCEKH/P7/5D/wDsq4Xxl8E18XtEX1f7N5alf+PffkZz/wA9BXHjsLKpCyR6OWYuNKpeT0PgJlDKVPpmuQ1OCGQ/Md579h+Vfc0n7K7MSR4n2k/9OWf/AGvWTP8AsiPNkHxaAOw+wdP/ACPXjLKq3b8j6yGe4Zbz/Bn54XsDCY+chwO4rnb5PtGYxjHuSP5V+itz+xS85O3xntDdQdPz/wC3ArJm/YYMq4HjUA9j/Zuf/bmtY5dXXT8jf/WDCtfH+DPzbuo1tBtPVwe/pUOlqBOW9K/RO5/YAa5YN/wne3H/AFDM/wDt1U9r+wILWTevjnP/AHDOfz+00/7Pr9vyOStnWGa0l+DPQPglCq/D6xmX70xYt9YwIv5IK9drQ8EfCH/hDvDNn4eOrfbGtd+ZvI8vduYt93zGxjOOtdX/AMISP+f3/wAh/wD2Ve5TpNRSPjMRVUpuSOEoru/+EKH/AD+/+Q//ALKj/hCh/wA/v/kP/wCyq/ZsxucJRXd/8IUP+f3/AMh//ZUf8IUP+f3/AMh//ZUezYXOEoru/wDhCh/z+/8AkP8A+yo/4Qof8/v/AJD/APsqPZsLnCUV3f8AwhQ/5/f/ACH/APZUf8IUP+f3/wAh/wD2VHs2FzhKK7v/AIQof8/v/kP/AOyo/wCEKH/P7/5D/wDsqPZsLnCUV3f/AAhQ/wCf3/yH/wDZUf8ACFD/AJ/f/If/ANlR7Nhc4Siu7/4Qof8AP7/5D/8AsqP+EKH/AD+/+Q//ALKj2bC5wlFd3/whQ/5/f/If/wBlR/whQ/5/f/If/wBlR7Nhc4SveK4L/hCf+nz/AMh//ZV3taQi7CbPB6K7v/hCf+n3/wAhf/ZUf8IUP+f3/wAh/wD2VQ4MdzhKK7v/AIQof8/v/kP/AOyo/wCEKH/P7/5D/wDsqXs2FzhKK7v/AIQof8/v/kP/AOyo/wCEKH/P7/5D/wDsqPZsLnCUV3f/AAhQ/wCf3/yH/wDZUf8ACFD/AJ/f/If/ANlR7Nhc4Siu7/4Qof8AP7/5D/8AsqP+EKH/AD+/+Q//ALKj2bC5wlFd3/whQ/5/f/If/wBlR/whQ/5/f/If/wBlR7Nhc4Siu7/4Qof8/v8A5D/+yo/4Qof8/v8A5D/+yo9mwucJRXd/8IUP+f3/AMh//ZUf8IUP+f3/AMh//ZUezYXOEoru/wDhCh/z+/8AkP8A+yo/4Qof8/v/AJD/APsqPZsLnCUV3f8AwhQ/5/f/ACH/APZUf8IUP+f3/wAh/wD2VHs2FzhKK7v/AIQof8/v/kP/AOyo/wCEKH/P7/5D/wDsqPZsLnCUV3f/AAhQ/wCf3/yH/wDZUf8ACFD/AJ/f/If/ANlRyMLnjnjCCK48NXqSjICZ/EEV8a3luIJSgbPJ7elforrfw1fWLBrBdS8gOfmbyd2QO2N474NePXH7LzzyiVvE3zAYP+h9f/I1eXmOCqVJXij6DKMxpUotTfU+JdUm2+Zx9/8ApXE6okkeZdob6989RX6Az/smrO24+JwP+3L/AO3VnXX7HqXNsYD4pCknJb7Dn9PPrzll1b+U96ln2GW8vwZ+bcz7g5Udeg9+1cvqs0rqV6HGPyr9KP8Ahh35tw8ZAD0/s7/7prLuv2CxcSCRPG+zGP8AmG56f9vIrVYGtb4fxQ6me4WX2/wZ+attFIHDSMTuBAzzX3r+yZxHrI9EiP4kmut/4YGJYE+OsgdR/ZnX/wAmq9v+E/7NT/C+a7kHiT+0hdIFx9j8nBUgg/6589K3wuBqxqJyR5eZ5rQqU3GEtfRnX0V3n/CE/wDT5/5D/wDsqP8AhCf+nz/yH/8AZV7fsz5O5wdFd5/whP8A0+f+Q/8A7Kj/AIQn/p8/8h//AGVHsx8xwdFd5/whP/T5/wCQ/wD7Kj/hCf8Ap8/8h/8A2VHsw5jg6K7z/hCf+nz/AMh//ZUf8IT/ANPn/kP/AOyo9mHMcHRXef8ACE/9Pn/kP/7Kj/hCf+nz/wAh/wD2VHsw5jg6K7z/AIQn/p8/8h//AGVH/CE/9Pn/AJD/APsqPZhzHB0V3n/CE/8AT5/5D/8AsqP+EJ/6fP8AyH/9lR7MOY4Oiu8/4Qn/AKfP/If/ANlR/wAIT/0+f+Q//sqPZhzHB0V3n/CE/wDT5/5D/wDsqP8AhCf+nz/yH/8AZUezDmP/0/38ooooAKKKKACiiigAooooAKKKKACiiigAooooAKKKKACiiigAooooAKKKKACiiigAooooAKKKKACiiigAooooAKKKKACiiigAooooAKKKKACiiigAooooAKKKKACiiigAooooAKKKKACiiigAooooAKKKKACiiigAooooAKKKKACiiigAooooAKKKKACiiigAooooAKKKKACiiigAooooAKKKKACiiigAooooAKKKKACiiigAooooAKKKKACiiigAooooAKKKKAP/1P38ooooAKKKKACiiigAooooAKKKKACiiigAooooAKKKKACiiigAooooAKKKKACiiigAooooAKKKKACiiigAooooAKKKKACiiigAooooAKKKKACiiigAooooAKKKKACiiigAooooAKKKKACiiigAooooAKKKKACiiigAooooAKKKKACiiigAooooAKKKKACiiigAooooAKKKKACiiigAooooAKKKKACiiigAooooAKKKKACiiigAooooAKKKKACiiigAooooAKKKKAP/1f38ooooAKKKKACiiigAooooAKKKKACiiigAooooAKKKKACiiigAooooAKKKKACiiigAooooAKKKKACiiigAooooAKKKKACiiigAooooAKKKKACiiigAooooAKKKKACiiigAooooAKKKKACiiigAooooAKKKKACiiigAooooAKKKKACiiigAooooAKKKKACiiigAooooAKKKKACiiigAooooAKKKKACiiigAooooAKKKKACiiigAooooAKKKKACiiigAooooAKKKKAP/1v38ooooAKKKKACiiigAooooAKKKKACiiigAooooAKKKKACiiigAooooAKKKKACiiigAooooAKKKKACiiigAooooAKKKKACiiigAooooAKKKKACiiigAooooAKKKKACiiigAooooAKKKKACiiigAooooAKKKKACiiigAooooAKKKKACiiigAooooAKKKKACiiigAooooAKKKKACiiigAooooAKKKKACiiigAooooAKKKKACiiigAooooAKKKKACiiigAooooAKKKKAP/1/38ooooAKKKKACiiigAooooAKKKKACiiigAooooAKKKKACiiigAooooAKKKKACiiigAooooAKKKKACvwc8S/wDBbX/hHfEeqaB/wpn7R/Zl1Pa+Z/wkWzf5MjJu2/2ccZxnGTj1r946/iE0TTvCWsftSafpPj94Y/DF74yig1Vric2sK2EuohbkyThkMSCItucMu0ZbcMZoA/Zvw3/wXF8M3WqJF4u+EV5pumkHfNY6xHfTqe2IZbW1U/jKK/V7wN+0p8Nvit8EdU+Onwtu/wC3dI020vJ3gbNvOk9lEZHtplYM0T8DnaRtYOu5SCfwD/4KDfCP/gn94B+Gei6p+zDrelzeLpdTjiltNH12TWo3smjlMkkwe4uREVcRhTuXOcYPUdv/AMEo9S1tvg9+0tpTSSPo0OhRTqh/1a3MlrfqzD/adEUNg8hRnoKAPS/+H5n/AFRP/wAuT/72133w9/4LbfDbWtajsPiX8ONQ8LWErxoLuwv01YRhiQzyxNBaMFTgnZ5jEZwuQA349fsLfDLwN8ZP2q/Avw1+JGm/2x4c1l79bu186a38wQ2FxPH+8t3jkXEkat8rDOMHgkH2/wD4KZfs1/Bv9mv4t6Dofwdma0tdb05ry60mS5a6awYSlI2V5GaXy5VztDsxyjHcQcAA/q18K+KfD3jfw3pni/wnfxapo2sW8d1aXUJzHNDKu5HXvyD0OCOhAPFfL37Sn7cfwA/ZcVdP8f6vJf8AiKVBJFoumILi/ZG+67qWSOFTnIMrpuGdgbBr4q/ZI+LWt/s8f8Esbj4tazEzy6KmqS6RFcltrNcXxt7QYPPlNcyZ44IJI65r8Uf2dvg74+/bh/aPHhzWtbka/wBbkuNX13V58Syx2yMDNKFJAZmZ1jjUYUFl4Cg4AP1gvf8AguN4ej1swad8IbqfR/MQC5l1qOK58o43N9nW0kQMOcL52DgZYZ4+7v2b/wDgo1+zn+0lq0PhPRr+48MeKbg7YdL1lUgkuW9LaVHeGU+ibxIeSEIBNcjpP/BJ39inTvD8WjXvhO91S8SNUbUp9WvUunYAAyFYZY7fcSM4EIXngYwK/BT9ub9ka/8A2Nfirpdh4e1a51Hw3rkbXui38pVLyN7Z1EsUrRhR5sLMjCRVUMGUgA5AAP6qP2hfi5/wof4M+Kvi7/ZP9uf8Iza/afsXn/ZvP+dU2+b5cuz72c7G+lfjP/w/O/6on/5cn/3tr1OL9oPWP2jv+CTnjzxZ4qnF14k0Wxk0bVZ8YM1zaywMszAADdJBJE7Y43FsY6D8w/8AgmP8CfhV+0L+0Dq/gj4waH/b+iWvh27v47f7Tc2m25iurSNH32ssTnCyuMFtvPIyAQAfq98Hf+Cy3wP8b6paaN8UPDN/4Alu32faxMup2EWWAUyypHDKoOeT5JC9zjmv140jWNJ1/S7TW9DvIdQ0++iSe3uLeRZYpopBuR0dSVZWByCDgiv52/8Agoj/AME1/h/8Gfhzc/HT4DfaNO0nR5Il1fR7iaS6RIbiVYo57aWQvKNjuqukjNlTuDLsIfu/+CMH7QevajP4n/Zw8QXbXVjYWp1rRg+WNuglWK7hDEkBC0sciKAMN5h5zwAem/D7/gsL/wAJ38aPDXwg/wCFSfYf+Ei8QWWhfbf7e83yftd2lr53k/YF3bd27ZvGcY3DrX7W1/FJ+z4R/wANofDQ/wDU/wCjf+naKv7W6APxX8Kf8FgP+En+N+jfBv8A4VL9m/tfxFb6B9u/t7f5fn3i2nn+T9gXdtzu2bxnpuHWv2L8TeJ/D3gzQb7xT4r1G30jSNMiaa5u7qRYoIY16s7tgD09zwOa/jL+FH/J7vg3/soen/8Ap3Sv0D/4LH/tEa7r3xR0/wDZ10a8aDQfDFvBfanDHJxcajdJ5sIlUDpDAyMgzjMpJGQuAD6y+Kf/AAWl+CvhjUJtO+FXg/U/HKwOq/a55V0i0lQglniMkc8/BwAJIIyTnoAC3o37LP8AwVT8B/tIfErQ/hFe+BdS8MeJPELXK2zR3UN/Yr9mgkuD5kxFvKNyRNjELYbA6EsPmb9g/wD4JffCXxt8I9E+MX7QdtceILrxXbi8sdKjuZrO2t7KXPkySPbPHM8si4kGJFVVYAqTk19xeD/+Cb/wJ+E/xx8F/G74MR3Pha48MT3TXOmvcTXtrdw3VlNa4Vrl5JY5EaUPu3spAZdoyCoB8U+Jf+C2v/CO+I9U0D/hTP2j+zLqe18z/hItm/yZGTdt/s44zjOMnHrWJ/w/O/6on/5cn/3tr0X/AIKG/sP/ALL/AMLP2Z/Hfxg8B+DP7L8XW9zYSx3v9o6jPiS81GCOc+TNcvCd6SMMFMDORggY+Av+CWv7Ovwb/aN+JHjTQPjL4e/4SCw0nSIrq2j+13Vp5czTqhbdayxMflOMMSPbNAH9E37J/wC0H/w1B8FNJ+MP9gf8I1/ak93D9h+1fbNn2WZoc+d5UOd23ONgxnHPWvpCvNvhN8I/h78D/BNp8OvhdpP9i+HrGSWSG18+e52vO5kkPmXMksh3MxPLHHbAr0mgAoor54+O2t6prI0b4IeErprTX/HxmS4uIWIl0/Q7bZ/aV6CrKytsdLaBwcrPPG2CqtgA9o8L+KdA8aaHb+JfC94t/pd2ZBDcIGCSiJ2jZk3AbkLKdrj5XXDKSpBO/WXoui6X4c0ax8P6Fax2Om6ZBHbW1vEoWOKGFQiIoHRVUAAVqUAfK/xj/bX/AGZfgB4uXwJ8XPGX9g649tHeC3/s7ULrMEpZUffa20qclG43ZGOR0r5X+NP/AAVY/Zs0f4Za7qnwP8bWOu+NraJX06w1HSNYjtrh96h0Z/s8IB2FiuZFBYAEgHI9m/bK/aUX9nfVfh5pmmfDGD4k658RNQk0myt3vIrGRbhWhWGMSSW04bzXmCjO0L1J54/OvwP42/aD+Dv7Svi7xPd/s8O938W40ubPwnqHi7SsrNZhfOmsxLbtK+Cz/JGiqqttwQi7QD69+Ff/AAVc/ZT174deHtV+KXi9fDXi6ezjOq6fHpepzxwXajbKI3htpUMbMN6YkYhWAY7ga+ovgt+2Z+zb+0P4puvBXwd8X/8ACQa1ZWUmoTW/9n39pttYpI4mffdW8SHDyoNobdzkDAJH5Ca341/aO+LP7Xen+M3+APnr8LrJEfwRpvifTreWK5usSLc6hJHGXlR8ofLMKoQiKxI3q/6h/sc/tDD9oJPHn9pfDWD4ba54E1d9CvrSO7ivXM8WfOVpI7eADY6FSBuBIyGoA9Y/aj+Of/DNnwK8TfGr+xP+Ei/4R37F/oH2n7H532u8htP9d5U23b52/wD1bZxjjOR8J6V/wUJ/am1vS7PWtI/Y/wDEV5YahDHcW88WpzNHLDKodHUjS+VZSCD3FfVf7evwt8d/Gn9k/wAc/DT4aaZ/bHiTWP7M+y2nnQ2/mfZ9StbiT95cPHGu2ONm+ZhnGBkkA/Hfgn4if8FWvA3g3QfBdh+z74duLXQNPtdPikk1my8x47SJYVZ9uqAbiFBOABnpQB1Hhz/gox8XP+FueAPhZ8U/2dtT+H3/AAsHUk06zvNR1Vx/HGkskcT6fH5vleahZQ6/eHIzX6uV+JeueCP+Cgfx/wD2ifgd48+NHwg03wrofwz1xryW407VbGX9xdS2zTPIhv5nbYLcFQi5OTweK/Wf4x/FLRfgt8LvEvxV8Q21xeaf4as5LuWG1jaSaTbwqqFBxliAzn5UXLsQoJAB89fFX9qPVvCf7Unw6/Zx8G6fY6k+v2lzqniK6uZGQaXp8f8AqpAykKrPskGH6kxgY3jPSftWfHbxP8IvgjrvxI+EMej+Jda0EJcS2V3cFlazBxO6LC6s7xqd+3cMqrd8A/lB+wx4fvP2o/2hvj7J+094fe4u/G2h6Zc3djLJLbvFp97LBe2cEcsTpNHEIEtioDglVXdzmjW/2XPD+n6zf2GlfsB3upWVtcSxQXQ+Il5ELiJGISUIXJXeuGwScZxmgD9tfh18YvCfxB8B+H/G/npora5ZQXbWN/IsF1atMgZopUfawZCSucAHGRwRXqVvc293ClxayLNFIAyuhDKwPQgjgj3r8CvBn7KXhHXvF+iaH4m/YNvPD2kajfW1teak3xCvbhbK2mlVJbkxLIrSCFCX2BgWxgEE1+6PgnwV4a+HXhHSPAng2z/s/QtBto7Oyt/Mkm8qCEbUTfKzu2BxlmJPc0AfFfjX/gpr+yH8P/Fuu+B/EviW9h1jw5fXOnXkSaZdyBbm0laGVVdY9rAOhAIOD1BxXyl+zt/wV4+HetaX4hu/2j9RtfD066gyaNa6Zpd9JMbDG4PdOrzxF/mCAJt+6SRyDXx94N+M/wDwqv8AaO/aQtv+Gi/+FGf2h461Z/I/4RH/AISf+0fLv7sb9/lv5HlbsY437s9q9u/4a/8A+sgn/mKP/tFAH7JfAb9oT4XftJ+ELzxz8JdRl1PSLG+k02WSW3ltmFzFFFMyhJlViNkyHIGOcdjXtlfkj/wRun+1fs4+N7j7T9s8zxzqTefs8vzd1jp58zZ/Du647dK/W6gAooooAKKKKACiiigAooooAKKKKACiiigAooooAKKKKACiiigAooooAKKKKACiiigAooooAKKKKAP/0P38ooooAKKKKACiiigAooooAKKKKACiiigAooooAKKKKACiiigAooooAKKKKACiiigAooooAKKKKACv4Zr7wbqfxE+P0/w/0WWGDUPE3idtLtpLhmWBJr2+MEbSMiuwQM4LFVY4zgE8V/czX8wfw9/4J4/th6H+1N4a+JGqeAPJ8Pad4zstWnuf7V0tttlFqK3DyeWt2ZDiMFtoUsegGeKANfw9/wAET/2hLrVYofFXjbwvp2mnd5k1lJfXs68cbYZLW2Vsng5lXA556V+v3w5/ZY8C/sl/sp+O/h/4NuJtSuL3SdVvNR1G5AWa7uWsnTdsXIjjVVCpGCQoySWYszfc9cN8T9I1DxB8N/FegaRF59/qek39tbx7lTfNNbuiLuYhRliBkkAdyBQB/FT+zv8AD7x58Uvi3pPgj4YanLpPim9g1GXT54JXglM1pYz3AiWVGUoZhGYt2cDfk5GQe5/Z3ufhVfftIaXF+17DqF/oN5dva6m9zdSwSwXhbYsl87fvjHG4xMN6Mo+Yt8pRv0P/AGFP2CP2svg3+1X4F+JHxI8C/wBkeHNGe/N3df2nptx5YnsLiCP93BdSSNmSRV+VTjOTwCa9V/4KJ/8ABNr4k/Eb4rRfFz9m/wAPxavJ4kVm1zT1urazMV6mP9LQ3U0SETr99VOQ6lud5wAfpT+198GbX4h/sa+NPhT8N9NhSOLRoJNHs7JFWIjS3iureCBVwoDiARoBxyB0r+bn/gnV+0T4a/Zt/aSsfFvjZjB4d12xn0W/uRk/ZYrl4pUmKgEsqywoHA5CksM42n9//wDgntp37V3gP4a/8Kj/AGmfCEmmQ+G0SPRNWOoWF4ZbTJAtJlt7mWQNB0jYrgx4Q4KAt80/ti/8EmNJ+LHifUfiZ8AdVtPDGu6o73F7pF6rrp1zcOwZ5YpoldrdmyzMnlujMRjyxkkA/X7SPG3hDX/DcPjLQ9asr/QbiITx38NxG9q0TAEOJQ2zGCDnNfzC/wDBVr9qDwJ+0B8U/DXhX4aX8WtaD4EtrpDqUDh7e5vL9ojMISBh40WCMCQEhmLY4AJ86vv+CVX7b1nq76bB4Ht723SQIL2LWNOFuwOMuFluEm2jvmMNxwp4r72/Zh/4I33OieJLPxh+01rVlqVpYS+ZHoGlmSWG5K4K/a7qRYiEzndDGh3DH70fMpAIfhN8LtV+HH/BHb4h6hrMDW1z41iuNeRH+8LeaS1gt2+kkUCyL7ODXzZ/wRf/AOTq9f8A+xRv/wD0usa/ev8Aa8+G3ib4jfsueO/hj8N9LS91jVdNW1sLKN4bZGKyRlUVpWjiQBV4yygAYr+aH/h1z+3V/wBEz/8AKzo//wAm0Afsp/wVP/ag+HHg/wCAHiD4K6XrNtqPjTxh5FoLK2kSaS0tUmWSeW5Ab90CsZjQH5izAhSFYj4S/wCCK/w01nVPjN4v+LDROmjaBo7aaJCpCS3d9NHIEV+hKRwsXAyRuQnGRnifg/8A8EeP2j/F2p2k3xauLDwDo3mf6SpuI9Qv9ikf6qO1Z4MsM4LTDHUg9K/ou+BvwQ+H/wCz18OtO+GXw2sfselWALu7nfPc3DgeZcTvgb5HwMnAAACqAoAAB/HZ4E1i0+FX7Wfh7xB4vP2a28H+NrS61AgFvLj0/UkebgZJwEboK/sy8QfFL4e+GPAM/wAUNY8QWUPhaC2N3/aHnobd4QpYGNwdrlsYUKSWPA54r8jv23f+CVV/8ZPHmpfGD4E6tZaVrOtv52p6TqBeG2muDgPPBNGr7HkPzOjrhnJbeM4r8yrL/glT+29c60ulTeB7a0tmkZDfS6vpxtgoziQiO4efaccARbueVHOADw/9mtdQ8f8A7ZHw3vtLti0+peNdOv2jHWOJb9LmUnJ6JGrMeScDvX03/wAFcfhpq3g39rXUfG1xE/8AZvjuxsr22m6xmS0gjsp4wf7ymFXYdhIO2K/U39g3/gmfB+zd4gi+LfxZ1K11zxzDHLHZW1luex00TKUZ1kkVGlmaMlS2xVQMwXdw9fd/7Rv7Nvwz/ag+H03w/wDiRaMyIxmsr2DC3djcYwJYHII6cMrAqw4YdCAD5u/4JzftL/Dj4u/s8+C/Alhq9tb+LvBul22j3ulPIqXO3T4hDFPGjYMkckSKxdAQrEqxyK+w9e+MPw38N+PPD3ww1XXrZPFniiWWKw0xHEl0/kwSXLu8a5McYijY732qThQSzAH+bH4pf8Eef2o/B+oXH/CupdM8faWHUQPBcx6dduh6tLBeOkSFT1C3EnGCCTkD6B/YK/4Jx/tM/CP9oPwf8avidYab4e0vw898Z7KS+S5vnE9nNbJ5a2gmhPzShjumXCg98AgH6If8FTv+TG/iD/110b/062tfmB/wRHP/ABeD4jf9gGD/ANKlr9f/ANvr4VePfjZ+yr4x+G3wz0v+2fEWqvpptrXzobfzBb6hbzyfvLh4oxtjRm+ZxnGBkkCvhL/glr+yJ+0N+zl8SPGmv/GXwp/wj1hq2kxWtrJ9usbvzJlnVyu21uJmX5RnLAD3zQB+21FFFAGfq+raboOlXmuazcpZ2GnwyXFxPIdqRQxKXd2J6Kqgkn0rwj4EafqviZdX+OfimCW21Px2Yn062nUrJp+gQbv7PtijKrRySh3up1YbllnaMkiNcelfEj4f6b8TvDX/AAiGt3M0OlXFzbTXsMRAF5b28qytaykgnyZtoWUDBZCVJwxB7wDFAC0UUUAflB/wUZWR/jp+yLHE/lu3j+1CtgHaftlhg4PXHpXzZ8HpP2gvh3+1r8UP7V+F4/aJ+MvhhNP+2a+3iS00a10yx1O0S5igsLW8twIxiRkYxtwAVVUVm8z7h/bY+D3xK+Jvxg/Zq8ReBNDl1bTvBXjK31LWJo3jQWlol1ZO0rB2UsAsbnCgnjpVnxn+wP8A8Jv+0B49+On/AAuDxf4O/wCE1j01PsPhK7/saSP+z7SO1/0i5zP9pVvL3oPKj2FmGWzmgD4a8c+Hviv8cf2tdM03RPh2f2bPjzaaG3iKHWbfxBb6vbapYR3K23l3sFnbiNixWQbmclgmyVHQoU+pf+CccV/B4+/aig1O4S7u4/iRqazTRx+SssommDuse5tgY8hdx29MnrUuufs3+LP2V/G+m/tA/Ciy8b/tF+NJ7WTw/LbeJPFNsHs9OmJuN6SzWJdkWVSAgkAVpCdp3Ej0D9gv4S/F3wFH8WvH3xh8PR+E9S+J/iy88QwaULuK9ltYbpmk2SSwfISC+B0bjLKpO0AHxd4O8HftN/tSftN/tCeGPDH7QviD4daT8OvECW9ra26S3sLQ3st2EREF3bCJYhbYAG7O7tjnqf2VPHHxu0W0/bG8DePPiRq3jW/+F9kLbS9SvJZFkimhg1XdPCjSSGFnaGNiA5wVHJxWV4d/Zn/b80z9pH48+M/gj4osfhdovi3XVukudUtrW9XV4RLctA8Ia3u2j8kSMWBEZPmr97Hy9z+zJ+zJ+078PtL/AGr5fjPZxar4g+Jdjs07UbWa08vWboQamskscMLKYA7zx4WWOL73Tg4APKf2XP2fP2uP2lfgT4Z+NR/av8TeHf8AhI/tv+gfZprzyfsd5Naf67+0Id27yd/3BjOOcZP1b/wS88e+M/jR+yxqGq/FrWbnxdeTa5qFlJLqchumktfIg/cv5md0fztlTkcmvmD9m/8AZm/4Kg+B/gx4d8L+Efilo3w50my+1+RoOo6fZ3d1Z+ZdzSPvm+xXO7zXYyr+9bCuBxjaPr3/AIJkfB74k/BD9m6fwX8VNDl8P602u3t0LaV45G8mWKBUfMTuvJU8ZzxQBynwHXb/AMFN/wBpdRwBo/hngdP+QfZ1+c+naX+xp8XVufiH4a/ZU+K3ia11q6uJ3v8ATY7y6tZZ3kJl2SQTmPh8ggHg8dq/VT4P/DDx9oP7f3x6+J2r6JcWvhXxNpegw6bqDgeTcyWtlbRzKhznKOjA5HUGvk/9lDwF/wAFOfgn8E9I+HvhDwj4E0/TLGe7kjh8Ry3rakpnneRvMNlceTtJYlMc7cZ5zQB4P4N0j9jv4YfEvwB4i1H9mX4m+Br+TxJpUGk6lri3drZpqhuFe2DG4nCOQybymCSqNwQDX9A/ivxToXgbwxq3jLxTdrYaPolrNe3k75KxW9uhkkcgAk7VBOAMnoOa/Ir43eAP+CjHxfvvhjp3xU8KeDLrw/4e8b6LrUx8LSXYvYRaGRXll+3TmMwLHI+4KN5bZjjNfcf7aHwN+I/7RvwUuPhP8O/Elp4ZOrXtqdSlu45HE9hE294UaLlSXCN90hwpQlQxNAH5w+DfhlbXHx212T9nD9rOXw1q/wAep7/xrZ6VbeEJLhbiykurx1P2q4mEY8lknjw/lM20nYMqKqfs9P8Ati/Gnxt4z+E3ir9pvVfAPxC8FXMi3Oh3vhmwuJJbLIEV3FKlwiujBlLBQwXcpDOrBj7b8bf2afjv8KP2gPhT8bf2U/B1h4x0zwB4RXwqNHur6GxdYojcqshkmkhViy3OSQxO5SSPmBrn/F+o/wDBQLxdd6/rkH7LPhvSPFniLR5dCbxB/bmmy3lvZyq6gB/tW4hDIW2j7xAyGCgAA9l/YU0T4Z/s5eIPHn7INr47m8XeOrPUpPE961xpMmkApe29rEyQq8swm2CNJGdG2kSjbkBiP0rr8w/AP7B3i7TdY/Z/+KmveO57X4gfC+ykt9fu8yajLq8E0jyiy+0zSKwiiWaW3DEN+6IVQoVcfp5QAUUUUAFFFFABRRRQAUUUUAFFFFABRRRQAUUUUAFFFFABRRRQAUUUUAFFFFABRRRQAUUUUAFFFFAH/9H9/KKKKACiiigAooooAKKKKACiiigAooooAKKKKACiiigAooooAKKKKACiiigAooooAKKKKACiiigAooooAKKKKACiiigAooooAKKKKACiiigAooooAKKKKACiiigAooooAKKKKACiiigAooooAKKKKACiiigAooooAKKKKACiiigAooooAKKKKACiiigAooooAKKKKACiiigAooooAKKKKACiiigAooooAKKKKACiiigAooooAKKKKACiiigAooooAKKKKACiiigD/9L9/KKKKACiiigAooooAKKKKACiiigAooooAKKKKACiiigAooooAKKKKACiiigAooooAKKKKACiiigAooooAKKKKACiiigAooooAKKKKACiiigAooooAKKKKACiiigAooooAKKKKACiiigAooooAKKKKACiiigAooooAKKKKACiiigAooooAKKKKACiiigAooooAKKKKACiiigAooooAKKKKACiiigAooooAKKKKACiiigAooooAKKKKACiiigAooooAKKKKACiiigD/9P9/KKKKACiiigAooooAKKKKACiiigAooooAKKKKACiiigAooooAKKKKACiiigAooooAKKKKACiiigAooooAKKKKACiiigAooooAKKKKACiiigAooooAKKKKACiiigAooooAKKKKACiiigAooooAKKKKACiiigAooooAKKKKACiiigAooooAKKKKACiiigAooooAKKKKACiiigAooooAKKKKACiiigAooooAKKKKACiiigAooooAKKKKACiiigAooooAKKKKACiiigD/9T9/KKKKACiiigAooooAKKKKACiiigAooooAKKKKACiviv9uf40/E/4I/DbwpqvwifT4vEHibxVpvh9H1OJ5rVEv0n+ZghDDDopJGcDPBrzv/hGv+Cpv/Q4fDH/AMBNS/8AjVAH6MUV8TfsI/HD4mfHf4XeJtd+LDWD694e8UajoTNpsLwW7R2UcHzBXZiSXdjnjjHArt/2kf2tvhZ+zXo6L4huDrXi3UQI9J8N6eRLqeoXEnESrEoZo42bAMjLjsod8IQD6ior8hPg78cP+CjXhMeJNb+LXwO1Hxj/AGzeNeWMK6zpOl2uk2ZBbyI1ZHnbGeTNKSFVRgHcW+qf2Nf2tdW/az0XxR4gm8AzeD9P8O3qWEVy2oR6hb3s+0tMsUscUSnyfl3FdykOpDHkAA+0qKKKACiiigAooooAKKKKACiiigAooooAKKKKACiiigAooooAKKKKACiiigAooqjDqmm3GoXOkwXcUl9ZpFJPArqZYkm3CNnQHcofY20kYO046GgC9RRXmfxi8Y+Ifh98Nde8a+FtIttd1PR4BPHZ3mow6TbOodRI0t7cfuoUjjLOWfj5cdSKAPTKK/B+x/4KNftDP+0PqNjJ4f8ADEmix+H42TQn8b6GmnRXP2hc3aavtCSTFfkNtvLKvz4xXrMX/BQu28N/tTafpXxt8T2fgLwVH4HtL280u22a5bvrl9ItxD5V9YwSs6/Y5VZXQiNgAecg0AfsPRXhvwT/AGkvgt+0Vbavd/BzxIniKHQnijvGS2ubcRNOGMY/0mKLduCN93OMc9q+GB8ff2x/ib8ffi78NvhBqvgLQ9H+Guo2tmp8RQ3q3EyXcbshDQOwYqY23HavUYB5oA/VmivyE+OPxm/4KEfAf4Wa78WPEPiX4W6pp2gLA0ttp8WoyXUnnzx26iNZHRSQ0gJyw4B71+pvgLXLvxL4F8OeJL9US61bTrS7lEYIQSTwrIwUEkgZY4ySfc0AddRRRQAUUUUAFFFFABRRRQAUUUUAFFFFABRRRQAUUUUAFFFFABRRRQAUUVxXj74g+GPhroP/AAkPimeSOGSaO2t4YIZLm6u7qY4it7aCJWkllc/dRVJwCThQSADtaK+dn/aHt9FWPUPiJ4D8S+BtDlZV/tbVIbGWxj3nCtcHT7y7ltUJIzJcxxIv8ZWvogEEZFAC0UUUAFFFfAvx4/bpn+AfiXW9M8QfBvxjqOhaK8SHX7e1jTSpzNGjjy7iVlU/M2zrncCBQB99UV+Nnh/9uH9qXwx8T/Gvirx78EvHOofCue0S50u3k0JLS70loQGmMsyqsckBUuzSSOSoVMYG8n7U/Zy/avvv2htYls4/hX4p8H6V9ha+ttX1e1VNPutsiR+VDOhZGc79wAJyqse1AH1/RXw1rH7RGq2n7cWhfBm18RWH/CEX3gubVrhCYDjUkvZIVPn/AHhmMAbN2OM4zmvMvjn+2T4on/Z1/aD8XfC+2fwt4k+D3iFPD8V5J5N4s8kV/bwyTLHLEUCyRuw2srFc8NkAgA/TKivBPhd+0H8KPiTra/D7w54usNd8Y6dpVvqGpWlk/m+Sr7Ucs8YMQZZGAaMNvTI3KMive6ACiiigAooooAKKKKACiiigAooooAKKKKACiiigD//V/fyiiigAooooAKKKKACiiigDyL9oHxVrHgT4D/Efxv4elEOqeHvDesajaOQGCXFpZyzRMQeDh1Bwa/DH/gowmofs9eMfAfhz4Y/DPQdRsNTs1mutf1nw9ZeINQ1jUvOZJLa4ur+C4keTaqSMQwkYycNgCv3N/aB8K6x46+A/xH8EeHohNqviHw3rGnWkZIUPcXdnLDEpJ4GXYDJr8Lf21f2hP2k/iZ8TUsvgh48sPA/g3Sre28q3fxZpHhnVXu3iWS4F9bXl9a3sbxSMYTFKir8m4KQ24gH3R4x8Jfs++BPAvgHXvFvwe+D3hnXPE+mR3N/ZeLbiw8NfZ7oQwPNDa50u9Nx5TylJM7DHhPvb/lzfCN58M4Le1+IHwj0f4eeGNa0HxP4R0+ST4c65DqiXNn4g1iDTLqDVI7bT9PURtDM7QiQS5kXeuxogW5f9nb4/X/ir4N6Rpv7Q/wC0Lo3w+8aaDdXNq82k+IvCF7JqtkVia3nuWnTUYg8Z3xjyzGzYLSBsqR7Hc+KfCfjdNI+H3w/+ME3xo1rU/FHha/MaTaNdppdnoesW2p3dxLJolnbJCjw27Lm4LbpBGkeGYhgD9H6KKKAPyZ/be+OH7P3xG8RXn7MvxD8OfEPUdS8D6jputy3Hgyxt5mjme0Z7ZhKzu6rtuD1jRvMXhsDLfKIsv2Vm+C4+OS+Ovjr/AGMfE/8AwiX2Iaxb/wBpf2l5H2jH2cHGzHyff37+NmOa97vvjfr3wU/4KE/Hq80L4beI/iM+qaZ4ZjeLw7a/antRFYRkNMP4VfdhfUg18W6d4kuIf2M7bxcNIvJZ4/2hI7/+zUjzesy24k+ziP8A57E/IF/vcUAfd/7Hv7Q37Ovwa1LR/wBnfwV4Z+I+nXXxC1y5vLa68YafbxGW9mhjWb98rxlkAiUnCOwZsk4Ix6n+0n4v/wCCfHgDxP4t8a/E/W9O074i61px0m8utFnaXxFCoRoh5S2pdra42HYZWVCUAR2MY2182/Ev4++IPjV+1x+zBFr3wt8UfDcaPrupsjeI7P7KLzz4YQRB/e8vYN/puX1r6B/4KT/Bj4T2P7Lvxc+K1r4R0tPGN/DpZm1f7JE18xS+tIhicqXX92Ap2kZHXNAH5GeFf2t/H3xF0D/hnP4h/FfU/DHwetbiVDrU+k3Fx4n1HRi22Kwd7UXCDKj5mZwACQXlQCI/uz+x/wDHL9lbxjoJ+DP7Mk8iaf4Is4mazksrq0McUrkeYzXMaGR5HyztkszEseteO+A/23vE+m+CPD2mxfs4/FC8S0060hWeHQ1aKYJCqh0Pm8q2Mg+hrg/2PfH958T/ANvT49+Nb7wtq/g2W+0PQAdL1y3FrqEIihijBliy23ft3pycqQe+AAfrlRRRQAUUUUAFFFFABRRRQAUUUUAFFFFABRRRQAUUUUAFFFFABRRRQAV84/G/43Wngb/ij/Dt/p9r4murcXM17qcyw6ZodgzbDqOoyOyKsYbKwQ71a4kGxSqLLJH6j8UNR8caR8P9d1L4a6ZDrHie3tZH0+0nfZHLMOg5KhmAyVQugdgFMkYJdfyu17x58MvAHjDT9dj8Pan8YNT1/QftuhW9xZ+dc6x4ulu57XVjfQsjG3uLOKO1gWMwn7FC0kSKgJDAEv7RU/xJ0Xwb4N1j9j7Utf8AjXeeIL2az1jWrLxbq2oWttNhCkht9Nv4rW3Eru7EqqW8ITZtUMuPuP8AZA8NJ4c+FF/FdX1xrWrf8JP4qtb7Vr9/O1DUW0zXL3ToJrqbrJItvbxRg9FVQqgAAV+evg/SPH3wO+Ofw0tPAvh3VbTx/q+hTaJqPhzULe1h0++sAdQvI9RS8sL69igtNPu5oLcxy5nS2SNIQOI5P1o+E3gSb4ceCLbwzeagdVv3ur/Ub67MYhWe/wBVvJr+8eOIZEcZuLiTy0ySqbVLMRkgHpFeCftPeNPC3gP4DeNNf8YXOlWunNYSWgfXbae80oz3n+jwJeQW0ckskDyuquqqSVJ+te914f8AtJQ/E28+BvjLTfg1pw1Pxpf2ElrpsZmit/LlnxGZxJMyoGhVjImTy6qO9AH8+K/Fv4W4ybn9nY/9yZ4i/wDkGvcLtbz9nP4ReFvjhpPi/SL3UvjZ8RNF87UdIs2g02PwxZwyxrZW9tfwiWK3h5QAqCqCMA8ZPRfDjwDcfF347/Ez4Z/DXxVq11qPh34Up4Sm8SuL6znj8T6ffxeaJLmUJKPMnVi4BO6EuoJGRXTeJfgt8V/29PiMvw1+KkMuheGPgpoVzo1zqawTWsGqeMLq1RGureGaOKRrZGCTL8oygU8LOKAPuf4H/Af4rfA3wL8XNb0ttF1P4kePvEGq69aeY8w0tPOwLK3lKpHKI4wDkKDjcQCRzX5N/FX4XfEfxZ+1QPhn8RfhF8L9V+IvjGyk1+8vRqniSK0jhXdGHuHS9iWNnMW1VSMjJXOM5r9bP2Kfiz8S/F/gbUPhh8avDWoaJ47+GDw6Nql3cRf6HqJRP3Nzbz/dkMkQV3I+U7ldTtdQOl+K/wCxR+y/8YPFt98Rfid4G/4SLX7xI1luHvr9WZIIwiIkcVwkagKoAVVAJyTySSAflJ/wwR8Qf+iSfBn/AMKHxP8A/JlfsX+zpb/HOw8GNpPxx07w3ps+nmG30qLw1Ndz2/2COJVTzHvGaQuCCAcnK4J5zX4K/HTwx+wV8W9B0f4UfsV+CLuf4n+I9YsrMS+VrCDTbZmJnlmF5IY8DG1sghV3OSu3Nf0r6HpFroGjWGhWIxa6dbxW0Q6YSFAi/oBQBq0UUUAFFFFABRRRQAUUUUAFFFFABRRRQAUUUUAFFFFABRRRQAUUUUAFfJH7Qula9q/xH8CabpGpDRrjVtH8XaXo1+wytl4lu7KE6fcjr88dtFfEY5wWA617X8QfidZeA7nSNHttG1DxPr+vNN9h0rSltzdTR2wUzzF7ua3t44ot6B3lmQbnRRlnUHyHxhd+L/jTpI8D6l8MvFXgadpUvNP8QXc/h+aLSdRs/wB/aXJSz1e5ncCVArIkTB1Yo+I2YgA/JT9kv9j/APad/Z5+JXjT4q/tEXCaZ8OLLRdZbxEsmpR3ya9btayqQ0cbuxCtiXfMEf5doGWIr9vvgbpniDRfgp8P9I8Wlzrlj4e0mC/Mmd32uK0jSbdnnPmBs5r5n1jxr48+NyW3gTVPA+pqvgmeC88aafbCKIahqFpKJLTTNOnvpbaCe3uHVb2SRpVX7KI4nw87Ivsd78dPGOk2c+qa18FPGdjp9ojS3E/m+HbnyokGWfybTWZp5AoydsUTucYVSeKAPoyis3R9X03xBpNlrujXCXen6jBFc200ZyksMyh43U+jKQRWlQAV+PH7ROq/tMftOfHj4vfsa/D6fwnB4P0jSNNmuP7etrlpit7BBMHilgEmJY5m3oSo2lVPOK/YevzQ/Ye0TxD4x+Of7RX7RviPRrvRIvFPiCPRNMhv4Wt7kWuiq0LM8TgMpYeUCD0dGXJKmgDyrxF+zF/wUf8AE3wNk/Z+u/iB4Gh8NS6dDpMk0R1M372cQVTG1xJA5PmIuxyRypI4zX0p+zD8Lv2wPhRPoHgn4ian4G/4VxoNg1pDZeH4L2O8QxpiIh54wrZbmQk7mJLHJJr7wooA/A74u/sg/s7+EP2zYPAXhfwTYDSB8Ob7X4bDUNVvbe0m1qK8lit3nu2uRLGrEKjHzAo64zzXyb4s+GXxh8W/Az9qX4m/EHxtPoUvhvxk51jwtpAK6VfaxPfW6zSSymQtJDF5n7qNg2GVX3ZHP7BRf8E6PDHxA+IknxU/ak8b6n8XtajHk2lvPHHpenQWiStLFCbe0I3hGYkgMqMckpzivkPX4ovBV9+0n8CPjx8LviHqHh/4p+Mptcs9S8IaUt9HLYtcR3MOy4cmMOTGm9QjEAlTtYZoA9Z/ZV+HXw/+F37eeq+FvhrpVvo+kw/CvT5pYbclt11cXtu8jyOxZ2kbjJYk9B0xX7CV+SH7Nl3YXf7S2m6h+zx8GfEHw68J6raandeONX8VaRJa3GpXMgVrNLaWaWTYwnzI6QlUYOSY8KCP1voAKKKKACiiigAooooAKKKKACiiigAooooAKKKKAP/W/fyiiigAooooAKKKKACiiigAooooAKKKKACiiigCslnaxzyXSQos0uN7hQGbAwNx6nA6VE+m6fJGsUltEyK/mBSikB/72PX361eooArywQySRzSRo7xZ2MyglSfQ9venzQxXEZimRZEbGVYBgcHPQ1LRQBEqhRtUYA6AcCo1ghSV51jUSPjcwUbjgYGT3qzRQAUUUUAFFFFABRRRQAUUUUAFFFFABRRRQAUUUUAFFFFABRRRQAUUUUAFfH3x0/Z9/tnVW+IfgPQLbXNTmlSXUdGmu5NMW+mRPKivbS/gIlsNRhT5PtEZHnQ5hlziJ4/sGigD5w/Z+/Z70T4NafeazqM7a54318K2r6vcz3N7KwB3R2cE97JNcC0t87Y1kkZmxvclyTX0fRRQAUUUUAFFFFABRRRQBEkMMcjyoiq8mNzAAFscDJ747VLRRQAUUUUAFFFFABRRRQAUUUUAFFFFABRRRQAUUUUAFFFFABRRRQAUUUUAeQ/Eb4deI/EniTw7478Ca9beHvE3hyG+s45b6wbUrOex1IwPcwS28dxaSZMlrA6Ok6lSmCGBIrEPh39pw/8AM/8AhD/wkdQ/+aGveaKAPBx4d/ab7+PvB/8A4SGof/NDVK+8H/tJ6rZTaZd/Efw3ZQXSmOSbT/Cl1FdxowwzQPca3cRLIB91nhkUHko3SvoWigDmvBvhbSPAvhHRPBGgI0el+HrG20+0V23MsFpEsUYZu5CqMnvXS0UUAFFFRTzw20L3Fw6xRRKWd2IVVVRkkk8AAdTQBLRUUM0VxEk8DrJFIoZHUhlZWGQQR1BHQ1LQAUUUUAFFFFABRRRQAUUUUAFFFFABRRRQAUUUUAFFFFABRRRQB//X/fyiiigAooooAKKKKACiiigAooooAKKKKACiiigD55+IPjL4rL8VNK+G3wzk0W1N3ot3q882rW1zc5+zXMFuEQQXEOM+fkk56V0Pw8+Jl1rGieJm8ewWuj6r4Ku5rPVjbyNJZgRQJdC4id1VxG0MithhuU5BzjJ8v+IvhnVvFf7SugaZpHiS/wDC8q+EtTke504QGZ0F/ZqYz9oimQKSwbIUNlRg4yDx3xi8Jv4S8H6Z8AvhrbXniDWviHqMt9q8lzdhby7sLcxyajPNclQivMix2ykqq7W2qOAKAPaP2e/jK/xl8MalqWoWDaTqWn3rq9pIuyRbO6AutPkK5P8ArLWSM57sGIAHFYn/AA0JY6J8eNU+EHi20+w2Mhsk0zVMbbd7q5t/N+yTMeFlchjEc/PyuMgbvNF13xt4J+O/hzxx4n8G/wDCI+HvFtvD4YvTHfQXkRulZn02RlhA2YJeDceMOo9j3dr4H8M/Eb4mfGbwh4vsk1DSr9dCWWNuCCLNirow5R0PKsMEEZFAHq/xl8a6r8PfANx4q0WKGa6hvdLtwlwrNGUvb+3tZCQrKchJWK88MASCMg+WfFXxd8fPB/ifQLTw5eeGG0rxVrUek2a3djeyXEHmW80++Z47tEfHkEYVV+8PQ58E+K/ifxf8O/BcvwN+Jt1Lq5vNS0N/DWuujE6hbQataPJbXbYwLuBFLFukqDdw2c/Tnx0H/E9+En/Y6W3/AKbdQoAgvvHvxL+HniLwfa/E46ReaJ4ikk025v8ATba4tls9SkYtZbhNPN+5mX90c8iXB3BWxXR23xC1zxD8Zbr4f+F4IH0PwxZrLr15Kjs4vLsZtbO3IZVDrGDLKSHAVkXCsc113xM8I6L478Ba74T8QxebY6jaSo2OGRlG5JEPZ43Cuh7MAa8w/ZZ0W3034HeGdZ8yS51LxPbrrWpXUzb5rm+vwJZZJG7nkKP9lVHOM0AfRNFFFABRRRQAUUUUAFFFFABRRRQAUUUUAFFFFABRRRQAUUUUAFFFFABRRRQAUUVUv7600uyuNS1CZLe1tY3lllkbakcaAszMT0AAyT6UAW6K+A/hv8ePB3xA+LMnxH8YarfaFpTGTSPCttdW13a2EscpHm3Uty0a27z3LKojjZ/lUAY3nj7Y8UeFtD8ZaNN4e8SW5u9PuSpkiEkkW7YwZctGytwwB69qAOkor5s/ZAuLm6/Zt8DXF3K080lpIWdyWZj58vJJ61y/7V/xY8ReGPCGqeBPhsS3i280e/1S4mViv9m6TZRM890zDlXcjyYOn7xs5+XBAPrdZFdQ6EMjAEEHIINSV4b4f8AeEfiH8IvBOmeMLD7fbW2l6fNGvmyw7ZPsqrnMTITwxGCcV84a58E/ht40+Mlj8OfAujtY6V4QaHUPEt8l1ctvaQbrXTELysN0o/eTEDKxhQGBbFAH6A0V4F4h+CNn8QvHd/rPxMdNZ8MWlvbwaNpHmSpbQvgtcTzxKVSSVmwsZO4Iq5GGPGB+ztdzW+s/EfwdpN9PqfhHwvraWWjzXEzXLxZto5Lu0WZyzOltOzIu5mKg7c8CgD6cooooAKKKKACiiigAooooAKKKKACiiigAooooAKKKKACiiigAooooAKKKKACiiigDD8TalLovh3VdagRZJdPtJ7hFbO1mijLgHHOCRzXxvrPif9pTxt8CL/xnNF4Ri0jXfDUt+Y1+3/aEt7qzMpUclN4RuOSM+1fY/ijTZ9a8N6totqypPf2lxAhckKGljKAsQCcAnnAP0r411T4Q/G/wd8A7zQb34oRNaaH4aktpbKHR7Z4vKtrIo0CXDlZCuF2rIVDEYYqDxQBW0/xh+0l8PvgLp/jiGHwnc6Novh+2vEjP9ofaWt4rZWVTghN5QDOCBn2xXa/G7R9N+IPjP4NaB4ithdWGtXOqPPbebLFHIyaTNOgZomD7VkVTwc8Vwtp8Gfjj47/Z8sfD9l8TYWtda8O28EVjPpFvFEI57VNsL3MZaUKAQpcIW74r1P4kpcaT8UfgbC0TXMtnc6wDHERukaPRLgbU3bQSSOMkD1xQB8ua58Fte0Pxf4a8F3nw38Hve+KPtn2Z017XTEn2GISyeYTGCMg4XarZPXHWvTvBPwzHwz+OHw0huNG0/QtU1ax8SG8i0q+vbu0lS3Wz8g5vAr7l8x+igc9T24vxn8KfDOveNvDesaL8ANV07SrJdSGpolpoolne6hC28iI168TtFJl/3nA6gN0rufh9p+p6L8QPghoGq+H38NT6Xp3i6A27W1taCQZsnE6w2s88Sebu3OFf/Wb8ALigD7yooooAKKKKACiiigAooooAKKKKACiiigAooooAKKKKAP/Q/fyiiigAooooAKKKKACiiigAooooAKKKKACiiigDnJPCmhSeKLfxq9tnWrWyl06O4DuMWs8kcskewNsOXiQ5KlhjAIBIMEfgzw0ni+Tx6LPOvSWK6abou7EWiyGURKhYogLncxVQWOMk4GOqooA5bxl4N8N+PdAm8MeLLP7dptw8Ujx+ZJE2+CRZY2WSJkdWV1BBVgePTNWNM8L6HpOuav4ksLbytS1zyPtku92837Mhji+VmKrtU4+UDPfJroaKAOb8VeEfDvjbSf7F8T2SX1oJY50VxzHNCweORD1V0YAgj6dCQXa94V0LxLcaRc63bfaZNCvV1CzO908q6SOSJZPkZd2ElcbWyvOcZAx0VFAEU8MdzDJbzDdHKpVh0yGGCOKyfDXhzR/CHh/T/C3h63+yaXpUEdtbQ7mfy4YlCou5yzHAHViT6mtuigAooooAKKKKACiiigAooooAKKKKACiiigAooooAKKKKACiiigAooooAKKKKACvEf2jvC/iDxn8EvFnhvwxG1xqF1ahlt0ba9zHFIkstspHIM8atECOfmr26igD4m+Kvxg+EvxE+DGtfDbwYRrPiLxBpz6dY+HoYHF9bXTp5cXnW23Nuts+12Z9qKEznpX134bstQ03w9penatcfa721tYIp5j/y1lRArv8A8CYE1tLDEkjyoiq8mNzAYJx0ye+KkoA+Xf2RZbmH9l3wTLZwi4nTT5mjjZtgdxNKVUtg7cnjODjrg14F4l8IfH/wZ8Lfi74h8XaDoWp6l4r0zVZtV1RNXn82KzS1lWKC3gNmAI7aInYhk+ZsksN3H6P0UAfJGmfEnxt4K/Z68LXE2i27+LdYt7HS9AsrWV7iO4mmt0EEszNHH5aqoaSYdFVSAx4Ne1fCX4dQfDTwbBoL3Bv9UuJHvNUvnH7y91C4O6edun3m4UfwqFXtXphGaWgD4t/aN/aB0HQdfsvglpPim28M6vrC7tV1eWQKNIsGGWMfXN3KvEK/wg7yQNpr234I678HLvwlH4Y+C2p2l/o/h9Y4WW1ff5bPkhpGIyzyEMzMcljkmvZaKACiiigAooooAKKKKACiiigAooooAKKKKACiiigAooooAKKKKACiiigAooooAKKKKACsnX9FsvEmh6j4e1IMbPVLaa1m2Ha3lzoUbB7HBODWtRQBk6Dotl4c0PT/AA9poYWemW8NrCGO5hHAgjTJ7naBk1w/xH+EHgD4sPo//CfaaNWg0SaWeCCRiIWeWMxnzFH3sA5X0YA16dRQB86/8Mlfs45J/wCEC07n/Yb/AOKrW8Kfs5/B3wJ4ssvGvgrw7Doep2MNxCptSyJIlztDeYpJ3Y2/L6ZPrXulFABRRRQAUUUUAFFFFABRRRQAUUUUAFFFFABRRRQAUUUUAf/R/fyiiigAooooAKKKKACiiigAooooAKKKKACiiigAooooAKKKKACiiigAooooAKKKKACiiigAooooAKKKKACiiigAooooAKKKKACiiigAooooAKKKKACiiigAooooAKKKKACiiigAooooAKKKKACiiigAooooAKKKKACiiigAooooAKKKKACiiigAooooAKKKKACiiigAooooAKKKKACiiigAooooAKKKKACiiigAooooAKKKKACiiigAooooAKKKKACiiigAooooA//S/fyiiigAooooAKKKKACiiigAooooAKKKKACiiigAooooAKKKKACiiigAooooAKKKKACiiigAooooAKKKKACiiigAooooAKKKKACiiigAooooAKKKKACiiigAooooAKKKKACiiigAooooAKKKKACiiigAooooAKKKKACiiigAooooAKKKKACiiigAooooAKKKKACiiigAooooAKKKKACiiigAooooAKKKKACiiigAooooAKKKKACiiigAooooAKKKKACiiigAooooA//T/fyiiigAooooAKKKKACiiigAooooAKglubeCSGKeVI3uXMcSswBkcKXKqD1O1WbA5wCegNYHjLxh4d8AeGdQ8YeLb1NP0nS4zLPMwJwMgKqqoLO7sQqIoLOxCqCxAr4k1Kx8beKvjT8FPi18QBcaO974ovrTSPD7SYTTdPl8M63IXu1UlZL6do0aU5KwKBDGf9ZJKAfoDRRRQB8mftOftYaT+zVqXgnQ5/B2s+NNW8eT3dvp9nokaTXDSWgiLL5bMGYt5owFB6HNeM/8N5fEH/o1/wCJv/gp/wDr15d/wUS8TeIvDf7Q37Lup+CfDsni/wARabqut3lto8MwtpLwJHZ5VZnVkTjJyQenStHxl/wUI+P3w91bw5onjb9mLUdHu/F14NP0pJ/EVqBdXjY2wqwtiodtwChiMngZoA+gvgD+2fY/HH4sa18GtQ+HfiLwF4i0TSv7Xlh1+FLZzbmWKJcR7i/zeaCDjBAPNYnxO/4KBfD34UfEiX4WeIPh347vNZM88FmbHREmh1I26CSVrFjcK06qhDMVXgckCvKP2bdE+PfjP9tzxn+0D8UfhbefDfR9W8IR6RBHdXsF6GuILm2YDzItpyyoxxswAOtfPPx7/aqu4v28r/xb4C8Gy/EXTf2fPC2qteRQahFYrZXMpVNTuzJKj7hBG4t2jRS5cHGcYoA+6Nf/AG7vDfh9dMaf4Q/Eu6/tSyivVFt4aaUxLKWAjm/fDZKNuWTnAI55rqPgV+2b4F+PfxI1T4V6N4R8U+F9c0jTBqsyeIdOj0/9wZUhACee8m5mcFcoFIDfNkAH4i+KH7VvgDRf2t/2ffil8Ttafwb4aufh/Lr80G64u4o7jXYnSKF1t4y0hXaQHMQB25wMjB+zb+1D8DPiH/wUG+K3ifS/FK3MXi+w0LRPCp+yXSm/W3tvMuwu6IGMJLGc+aEB6jIoA/ZyiiigAooooAKKKKACiiigAooooAKKKKACiiigAooooAKKKKACiiigAoor5R8e/F7UPGM2qeGPhhrEGgaBojPF4i8aXDRrZab5fEttYtN+6mvF6PI2YLY/f8yQGKgDu/Gn7QvgHwR4nl8LXkWo6pPp8azarNpdjNfw6PHIMxNfmAM0XmD5lVVZgmZXVYhvr1fw54l8PeMNGtfEfhXUrbWNKvkEkF3ZzJPBKh/iSRCVYfQ1598OfCngrwd4UtdL8BLG2lSlrj7QsxuZLyaY7pLma4Ys88sp+Z5XZmc8k182av4fi1r4zta/s1zP4c1+yvYpPF+r2hB0QICrvaXlkcw3moyxnAKBJoFYSSTINkcoB94UUVXu7Zbu2ltnZkEqMhZDhgGGMg9j6UAct8QfEuseDvBOteKPD/h668V6jplrJPBpdk8aXF26DIjRpSqgn8Wx91WbCnyL9nH9qD4aftMeGJ9Y8GSy2GsaU/kavol8oi1HTLkEqY54uu3crBXHynBBwwZV+T5/2C/gfazSW1z8efiBFNExR0fxfErKynBBBhyCDwQa+H/2EP2Yvhh8aPhTrPxP8ffFjxX4d8S6jrd3a3R0/wARR2JuY7RU8mSbfG8kj4dvmZj7YoA/e34geLJ/AvgzV/F9toeoeJZdKgaZdO0qIT310QQPLgjJXc5z0yK+APFX/BSSHwLa2V540+AfxI0ODUruKwtXvNJigWe7nz5cEZeZd0j4O1BknBwOK+mvhl8G9G+EnwY8Q+EfBXibW/GtvqS313b3es3w1O6MstusXlRTIiZj3R5VcE7mbnnA/nX8Z/DbwR4C/Zp+H03xI+B/jbQ/GWh+ILSbxXruoWN7b6dc6W1zOGgikkuljWV43gRMRRHIIDg8kA/Y2H/gpLb3Hi+f4fwfAP4kSeJra0W/l0waREbxLRmCCdofO3iMuwUPjBPGa+wvgb8Y9S+M+hahrWp/D/xH8PnsLkW4tfElmLOecFA/mxKGbdGM7c8cgivwz0T4R/BKf9oS/wDHK/swfEm7+E1/4chisLKHTNRe4/tZpkc3PmLfbmhaAEKROQSQQnQ196fsSfArxNrP7EFz8IfinD4i8AXeqanfM5RpNN1e3gFyk0TRvKrOm7aASVOVJHfNAH1J4G/aCv8Axd+1J8Sv2e5dGitbXwFp+l3sd+szNJcnUIY5GVoyoC7N+AQxzivZfil4vl+Hfwy8XfECC1W+l8M6PqGprbsxRZmsrd5xGWAJUMUwTg4z0r+Xj4K698H4f2vPFF34k8aeNbb4eHVodPs/FUOsYk3RSmOxk1afyT5trcGEqGIURqRu+UEj69/4KCfA/wACfArwK9p4W+I3xB8S+PPGpuWs9IuNe8+1FjCrT6hcXFukCk2yQhl27lHzE5Ko9AH7N/s6/Fa7+OPwS8IfFm+09NJn8TWQu3tY5DKkRLMu0OQpb7vXAr5J8Of8FGIPiFpb638LPgR8RfFWnedLBHdwaXALSR4m2MBOlxInysCGwTjjPWrH/BMv4VaX4B/Zn8PeObbX9X1GXxrp1tdT2uo3YnsrE2zzqFso9i+SjB/nBZs7V9Dn8qvgtpfwq8GfAL4f+KPHHi74spqHxE1XX4dM0rwHqKC2zptyFfZana26QSBspu3EMTjjIB+keg/t4/tB/FLxh4k+Hfwf/ZzurnxB4RNsNVj1nXrTTzYG6DNF5sToC24KThHJ45Ffo34C1LxfrHg7SdS8f6PDoPiOeBTfWNvcC7igmBIZUmUAOp6g44BweQa/ml+HWieH/DPjv4neJvHVj+0Bo2iX91BNp13pMUsN/NaW6SF5dYncKHkQEFDyEUtk1+3n7DukeBp/g5B8SPh34p8Y+JdD8ayPcw/8JnfpfXtv9klltWCbMrGrtGTtDNkbScHIoA+0KKKKACiiigAooooAKKKKACiiigAooooAKKKKACiiigAooooAKKKKACiiigAooooAKKKKACiiigAooooAKKKKACiiigAooooAKKKKACiiigAooooA/9T9/KKKKACiiigAooooAKKKKACsrXdc0fwzo194i8Q3kWnaZpsMlxc3M7iOKGGJSzu7HgKoBJJrVr82viH8bP8AhNfiTeW/jT4feO7rwN4M+0XenaZZ+ENZnXXdVsDG0Mlw/wBmWMxs7E2ERbyS8TT3MkRFupAOv8R+N5fEuo6P8WfH+lXU9sbnZ4A8GBfLv7+92krqV3FJgRzbCXjEoCWUG6WXbMxEfH+EdZ+JF/8AFbw3pnxU1SDUtX0b4sTwItohW0tIbj4c3F79lt93ztHDJcuA7YaQ5chd20O8W+IvgT47+IieN9c8D/FaHWo2/sddU07SfG+lxpYG3F2ZUjsfIK27TgQMoiEzTgO0RhxOK/w+vPCOpfEr4X6R8OfAXj7RxJ4lbxTrV74q0vXm2S3HhbVtMeO41HVjN++t9tpAyiYwnfGIHl/ebAD9LKKKKAPyul1S2+P/APwU70oeHSLzQf2f9Au1v7gfNENZ1MPCYAw43qkg47NDIOq4r6o/bH/Z7m/aQ+Ct94N0S7Gm+KdKuItX0C83bPI1SzyYSXGSquGaMsOV3bhkrg+9+G/APgvwfqGt6t4W0Sz0m98SXQvdSmtYUie7uQgTzZSoG5sDqe5LfeZieuoA/PX9lv8Abm8N/EWSD4O/HUr4D+NOkOun6hpGoj7Kt9dphRJZs2I2M+QyxK27n5A6Yc/E37WGmw/D79rL4seFvhf8O9W8San8UfhNeW88Ph6za8lXUtUv5Va+ukB3CMmNEdxkj5QFPQftRq/wy+Hmu+MNJ+IGs+G9PvPE2hb/ALBqcttG15bB0aNljmxvClXbjOMnOM4NaieDfCa+LJPHi6PaL4kks105tSEKC8ayWTzRbmbG8xCT5tmcbucZoA/Orwj4N/b8sfh54IsvAs3w+0rQLDw1ocEFr4kstTXVbZodOt1njuwi7UdZhJlRjbwCMg15FpkHxj8T/t4fA/wf8br7wxqOv+DbHxH4gl/4RRZ0s47G8tUtLYSi4+fzvtEbZwMbCmO9fshe2drqFpNYXsSzW9yjRSIwyro4KspHoQcGvAfg1+yh+z5+z7qV/rPwg8G23h7UNThFvcXCy3FxK0AYP5Ye5klKoWAJVSAxAJyQMAH0PRRRQAUUUUAFFFFABRRRQAUUUUAFFFFABRRRQAUUUUAFFFFABRRRQB4R+0rrFxo/wY8Rm20bWdce9g+yeToUk8F5Gs/ytN51ssk8ccY+aR4Y5JAudkbnCn80rXTPitd+CfDfh3w38Y/hd4h8C+EJrBvK1VhZRG+jike2try1sVhRY7aSMvDA7LJK8PmSY2tHX69+N9F13xH4S1bQvDGuyeGdVvrd4rbU4oY7iS0kYYEqxS/I5Ho1fn43wltPhTawN468GXuiXlqGLeP/AAHNcz3k7M2559Vt286+kZ3LO63C6hAOWd1FAHlOofCbwl4D1yTxr4p+KNtoKf2re2V9ZeD9fXwzBdeQ0W5U0zTNPe5udRPmYe1+0tIrNGqysZcq/wCGHhzw18K/iZ4N8XePvhNqfw0tbuf7F4csdEuItRub67ud0ry6zPFcDVb2RQWZYHt2hgTc0rMQPL9k0LUdJTWdM8Q2vjL/AIaG+IN6JpPC9vELO1sNLtCfLe7m+xKYLYJuKT3kimZuYYE3ExN9XfDX4Rjwzqk3j7xzqA8TePdQi8m41IoY4LSAnd9j06Alvs9sCBuGTJKwDzO7BdoB7bWZrOtaR4d0q613X76DTdNsYzLcXN1KsMEMa8s8kjkKqjuSQBWnWF4m8M6B4z0C/wDCviqwh1TSNUhe3urW4QSRTROMMjqeCDQB+bHiL4Df8EpfFviLVPFfiLUPBt5qus3U17eTnxaymW4uXaWVyqX6qNzsThQB6DFfCH7BnwY/YB8cfBK71r9oWXw4vildavoUGpeIG0+f7Ggj8nEIvIRs5OG2/Nzya/YkfsO/shjP/FpPD3P/AE4pR/ww5+yF/wBEj8O/+AKUAV/CXhH9nPxV8Erz9n/4EeOItJ8NadEF8zwlr6S3+mpPctdEpdiW4ki82TeMuTlSyjjp+IX7Wnw3s/hv8WYNC+KHivx94l+Bunoj3Dz+MNM1XUr6+CNslt7SaZRCsbMFAkhZ2CsQV3jb++ugfsu/s9+FPD3iXwp4X8BaVpGk+MbM2GrwWkHkC8tirrskMZDcCRtpBBUnIIODXH+EP2H/ANknwNcJdeH/AIVaF50WCj3dt9vZSOQQbszEEdiOfegD8LIPiT8J/iR8YfBHgz4dfH34l+DPB94Gu9c13xh4nktFMKMALayC/IJiQV82RzGpycELz+ul5+zf4ltP2evG/hb9nD4v634p1Px8lpbQ6r4l1o61Da23m+VdNZzxBfJLQSSEsocllXGGww+zfFvww+HPjvQE8KeNfC+ma7o0a7I7O9s4p4IwBgbEdSE2jptAI4IwRUXwy+FXw8+DfhWPwT8MdBtvD2ixSyTi3tVIVpZTl3dmLM7HgZZiQoVRhVAAB+TvwN+C3hvwR+1d8ffg34Y8P2XiTT/DXg3wrDYadqhCW15dWVpbTQNctskwZLhBI7bDhiTjtWynwY1jwf8AC/4z/tC/tZeItNuPjX418Ha3DaWD3MIi0LTXspxHZWSl2BLH5WdNw6orMWkeT9QdG+Enw88O/EfxB8XNI0kQeLfFUFvbalfedMxuIbRFjhXymcxIFVAPkRc9Tkkk8P8AGX9ln4CftBajpWr/ABg8JQ+I7zRI3itJZJ7mBkjkYMyn7PLGHBIzhs45x1OQD5a+APxFsPhL/wAEx9B+I9/MIF0HwhdXERJwWuMyrBGpP8UkzIi+5FfIXg/4c2Hwh+DX7G3xH8c+ItI8LaN4BOreINY/tO8WC6aLXWS7hFvbYMs8gVsGONCwxjBNfs3qfwf+F+sfDlfhFqfhjT7jwYlslomkvAptEhixsVY8YUoQCrDDK3zAg81wfiT9lb9nbxj4/t/if4q+H+kat4ktbeG1juLm3EkYitxiIG3YmBmjGFR2jLKoVQcKAAD8n/Cvxu8Pv8R/jf8AtV+PtN1bwp4H+M2nr4a8K3t1pt0baWO0tFtlvLueOMpbxTOsflliclnx8sTMP0d/YB8Kz+B/2R/AHhK71Gw1W406G9D3GmXcV9aP597POnlzwlkcbJFzg8Hg8ivra703Tr/TpdIv7WK5sZ4zDJbyxq8LxMNpRkIKlSOCpGMcVw/wy+D3ww+DOk3uhfCzw3Z+GdP1G7kvbiGzj8tJLiXAZyOcAABVUfKqgKoAAFAHpNFFFABRRRQAUUUUAFFFFABRRRQAUUUUAFFFFABRRRQAUUUUAFFFFABRRRQAUUUUAFFFFABRRRQAUUUUAFFFFABRRRQAUUUUAFFFFABRRRQAUUUUAf/V/fyiiigAooooAKKKKACiiigAooooAKKKKACiiigAooooAKKKKACiiigAooooAKKKKACiiigAooooAKKKKACiiigAooooAKKKKACiiigAooooAKKKKAMLS/DHhvQ7/UdW0bSbSwvtYdJL64t4I4pbqRAQrTOgDSFQSAWJIHSt2iigAoorhviV4zj+HvgbWPGUlnLqJ02HdHbQKXknmdgkUYABxudlBYjCgljwDQB3NFfC+i/GL41+CPhtqWqeMrfw3rtx4d0q8v7i4tda+0XUssStIoNvHAoC7iEJDnauDlj1871T9pj4jeBLPxX42utX0bxBHMYriDTvs+swpbpFEsZigaSzRBvYF2aRwMnt3AP0sorwj43+Jtdjs9I+HPgi+ew8T+LrgRR3MWN9hYW5WS+vTkEARR/IucZkkQd65b4hfGez8Q+DNL0D4N6kdR8T+PTcWOjTBZE8qOF2iutRYsqlYrcBmV8YkYKE3A5oA+oKK8F+CPjfU7u0u/hh48nP/CceDlS3vTIedQth8sGoxZ5aO4XBb+5JuQgcZ6z4sfEi2+GHhY63/Z8+rajdypZ6fZW6Etc3k3+rjZ8bYk4y7uQFUE8nAIB6dRX506L8Vf2lvCtrJo2sTQ65eRTzGW5bQmuY2dnJKwypq9uHgXOIj5SEoASMmvT/AIdfFD48eL/F1ho+pW1la2BcSXUkmgTwfuEOZFWUavPsdl+VGMbAMRkEcEA+x6K+bvir8Qbi18c6P4b03Vjo+keF428R+Kr5eUg06BXEFo/By13ICSo+by42IGSued+LvjzxV8RJtM+FHwH1M2fiHUrWLWL3UmV410zTwvm26zAhXSS8kCxiMjeI95ZQOoB9Z0V5h8KviPafErw39vaE6drOnSGz1bTZCDNYX0XEsTgdRnmNujoQw61gfGzxprnh3QZdG8M6br8uranbym1vtF05NQW0ljK7TMrkLhicEYyV3YKnBAB7dRXzH4V/ad8AS+A9F8U+PLmbQLrUHuLR1lsrgLLeWBSO8MSxiYiNZW2qXOcgjqDXK/Df9o7wb4q+O3i3w1b+JJLzTb630WPRYGt51T7QVuTd7d0Q2E/u8l8A4GOhoA+xqK+Jvir8UfFOmfGrUvBMfj1vBek2ekWF5Cseif2u081xLOkm4qjMgAjXGTg5OO9eVeDfjT408Q/27/bHxpm0/wDszVbqxt9nhLzvPt4duyZtsXyM+TlDyuOaAP0uorxn4A+M9b8c/Bfwn408VXCTalqdkJ7qYKsSl8tltqgKowO2BXs1ABRXxdZ/tNeDdQ/aHh8O2etX7aJPoaQJbtpmoIv9pyX3lq5RrcMBs+XzSBF2LZryrTv2kPiF4u1LRPGcesaPo9nZLfxSaSbfV5UuGkkESPPJDZyoxjEZKBHIy3JOMUAfpNRXkXwK+Il/8VvhhpXjvU7aK0udQlvY2jgLmIfZLua2BXzAHwwiDYYAjOK9doAKKKKACiiigAooooAKKKKACiiigAooooAKKKKACiiigAooooAKKKKACiiigAooooAKKKKACiiigAooooAKKKKAP//W/fyiiigAooooAKKKKACiiigAooooAKKKKACiiigD5gm+NNz8MfF/jrQPi9exrpunWba/ol2EVGuNNA2TW2FAVpoJgAoGWdZFJ5rJ1n4l/FXwT+z/AAePfFYtofFWvXlqscc6bbPR49VuUigWcqFZlto3BkLctJkE46ee/tG6Trfxr8cQ+GvAVha39x8JEj167a5j8xLnUHKS2+lKeP8AWxRs8nUZMWcEV9Gp8Uvhd43+HXh7W9ekifQvHzRadDb3cRljkuLkMGtJhtKKwZHRt+BuUgEkgEAf4Q8P/GDQ/EFude8YWvi/w/dQSNcNPYx2V1BPwYjbG2HlvC3zBlkG9eD5jdK9gll8mJ5djPsUttQZY4GcAdye1fIq+HJfgH8T/Avhr4f6rdSeF/GV3dWU3h66ma6jtFhtnnFzZNKWliSMqBIm4oQ4wAcV9Y6pqVlommXmsak5jtLGGSeZwrOVjiUs5CqCzYAJwoJPQAmgD5J+Gut/Hj4q+DNO+L3h/wAYabbnVZWkj8PSWSPYQ24mKGCa7QG6FwqD53GFD5Xysc19jV8U/Erwp4R0LwDrP7TPwU1tvC+omwOtmW0kI03WAE8xY7uzfMbvN9zeqpLvbls19eeHNRudY8P6Zq15AbWe9tYZ5IT1jeRAzIfdScUAeAeKfjlB4X/aV8MfB69P+g69pLuZf4Y76WVjbKzHgF0t5gF6ksuPfR/ai+LsvwY+EWqeKdNw2sXOLPT06kzygsz4HOIokeQ8H7vPFeF6p8P7v40eJfjlrWlOI9X0m+0mx8P3I4NtqWgW4ulYMc4JuJ9rHn5T9cy+BdXh/a08Xt4tvrOS28OeEtCk077PMrBR4g1i32XwIbG77JAfK5XIaQkHnFAH3NpGp22t6TZaxZHdb30Mc8ZHIKSqGU/ka8kh8aeIH/aKu/hy0yf2JD4Vt9VWPy13/apL6aBm3/exsRRtzjPNZX7LGs3Os/AHwb9uBS70uzOlzoeqy6Y7WbA/9+qyrb/k8TUP+xDs/wD06XFAH0tRRRQAUUUUAFFFFABRRRQAUUUUAFFFFABRRRQAUUUUAFFFFABRRRQAVzvixdWfw7qEeh2Ntqd88LLHa3khit5t3BSVwkhCkE5+RvpXRUhGaAPy28N+HX8O+EPi7qPiX4X+HrXR0u9SsLx9IuUgvoxLHbqbK2f7IuIDuVg24AHPyVzXiFfiPc33xK0Xx74f8Tal4d8OaTZXt/pz+L42FtbPHcyys7lSJxIsOVRRlNmOdwr7Gj/Zis71fGFz4j8T39/f+LLm6m+RjDZ2aXMiNiGzDGNnKRIrSSFmO0Ebec7nij4F6h4u8RfEG8l8Sz6Ppvjuy0ywnWxjhadra0iu4biFzcxSqFmW5GGQB1K8MO4B4N+0d4Mi+Lmp+EW0b4YXviG81rT7WTUdUheOMW2mFzOLKGWeWOFZpJCQ0hGY0O5Qx2hdHxrBq/w71r4c+MvDvgN9F8S6xq66VPpOnX8btdWNpp1wLS1aYmOBYlKq7J9wFNx3soNfR/iL4KaP4ml02G88Q69aaTpllFZLpljqUtlaTJFkb5vs+yV3ZSFP7wLgDjPNYHif9n/Tm0Pw9p3wu1FfBl54Y1RtWtJmtzqMbTyQyQS+dHNKryF0kPzGQEHB56UAW/AXgnxdqHiP/hY3xfj0tvEccckWlWtjET/ZVpIMSw/aSQ9wZPl3sVCq33AAxq5+0KHl+FeqW0GkR63cTyWyRW8ulPrUW7zkJd7OOOUvsUMQduA2OR1qHwb8L/HNj43g8dfEbxpH4ou9PsLmwsorbTF02KFbySGSZ2Anm3s32dAOgAz14x6h4qi8US6JNH4OaxXUyV2f2ikklsVyNwYRMrfdzjnr14oA/I7T7D4fXmoaz441GwhsfDejo9nHe/8ACtFfT5wpX7RNKixeXDJBKGhy77uGBAHFfQ/7PumWuj/G7Sr2XQ7XQZr7w7r8AMGiNoBu47fVLNoJXtWiiIY27IScMucqrNg13dt+yBHerNPrXiqXSS8kdxHpnh23FhocdxDKJo5H0+5e7im2uBw2FI4x3HUeOfgn8RvHemaPLqviyxg8Q6amp6XcX1vYvClzo+qxrFODH5x2XIEaSIyttVxwNpNAHi3xZ+GCeLPj+moaR8HbrW7HS5ob/UtRaWG1i1XUEhUQR77mUL9mhTBk8tWaSQFGXAYt0+o3njH4d/G7Trb4c+DjNq3i/wAN6hqWo6VHqIFkmqTXtsXvLueQgOsI3RhkQthgkagHA+gPEvwO0Dxl4jvNd8V67ruoWd0VK6SNTnttNhCoFwsNqYi2SCx8xn5JxgcVi+JPgjqkXiDQPEvwm8RQ+C7nQtKm0VYpNOGoQNZTSxTBVQzQlGV4h825sjjHXIB1Pwz8A6loM9/4s8dXFhqnjfWVWPUL2wtvssfkRlmgtwu4s6whiqyP+8Zdu77ox5j+1Z8R/iH4M+H+p2Hw00qZ9Rn028u7jVn/AHdrptpbIDK/md7l9wWFBzk7zwpr074afDrxF4T1jxB4q8Z+JF8T674gWzhknishYQx29iJPJjWESzc7ppGZt3OegxzufFjwZc/ET4a+JvAtncpZz69p9xZpNICyRtMhUMwHJA74oA+T/AkXxr8F/A/Vm0i1mtta8F3dpLb6Pb2afYL7TLSKN5ILKTbJPKbyEl3kJMguCUwPm3ewfDe4N5+0F8UbtYniWbSfCsgWVSjruS+O1lPKsOhB6Hivb5LPWLLw0NP0aWBNUgtPJt5J0aSATKmEaRFZGKbgCwDA44BHWvL/AIWfD7xv4f8AFfivx98QtV06/wBZ8UR6fbtFpVtNbW0MemiYJjz5ZXZn847uQBjjqaAPCfiv4i0Pwz8ZtY1zSfiTqHhDWZ7CxsL22i8L3erxMsHmTwss6wvHytxztJweCcggeAfCz4nX+mf8Jf5fxhvtK+1eItQnbZ4LuLv7SX2ZuG2wN5LSY5hOCmOQM191aj4I/aCuNSurjTfijp9paSSu0MD+G1laKIsSiGT7au8qMAttGeuBXEeFvgf8dvB39r/2H8WLBP7c1G41S53+GVfNzc7fMK5v+F+UYHagDX8AfDP4eeO/2arD4TR6leaz4Ye1Fi101vPplzJ9nm37vKmVZEIdR1Uhh6qa+jNK0q10XS7PR7DcLawgjt4gzF2CRKFXLE5JwBknk968e1H4U+LvGfw1134e/EzxpJqUmslVW/0mzXSZoIkZH2AebcBssh3EnlWK47n2HR9OTSNLtNKjmluEsoY4VkmcySusahQzsfvMcZZu5oA/NPR9Q8VeL/2jdY+N2g6m1papob6jp9vKpWG70GxvPskkbj73+khJbmIkDa5jPAzWBpNn8QYNQ+GVl4F0vXtI8O+MLW9vrXT4/FpUTQvbLeJtIhHkFfM3sMNuJxX3nqHwtbVPiXdeKGnig0W78Lv4fMEPyTJ5lwZC6fLsCBDtX0PbFZF38FpbS/8Ahnb6BqsltpPw+0290wSSMpvWjmsUs4ZEYRmPzF2bmJQLnouOKAD9mq60xvhtLoWl6VPo6eHtX1XTZoLm7+3S/aYbuRrhzPtTfumdyDjpX0DXBfDr4e6X8NtDuNF0y8utRN7e3WoXNzesjzz3V5IZZpH8pI0G5j0VFA9K72gAooooAKKKKACiiigAooooAKKKKACiiigAooooAKKKKACiiigAooooAKKKKACiiigAooooAKKKKACiiigAooooA//X/fyiiigAooooAKKKKACiiigAooooAKKKKACiiigDk/CPgbwv4Ft7+28L2X2RdVvJtQu2aSSaSe6uDmSWSSVndmbgctgAAAAACudPwc+Gj+Htd8JyaHFJo/iO7kv720keR4WupWDvLGjMRCS6h/3WwBvmGGya9OooA8o8E/BT4eeAdWl8QaFYzz6tLF9n+2395c6hcpBnPlRyXUkrRpnqqYBwM5xXq9FFAHgtr+zR8GLLU49Qg0Fhbw3H2uLTzd3R0uO4zu8xLAy/Zgd3OBHgHkDPNe8LTqKAOY8L+DfDngyPUovDdp9kXV7+41O7zJJIZby6bdLITIzEbiBwCFAAAAFSeG/Ceg+Era7s/D1olnDfXdxfTKgxvuLqQySucdyx/AADtXR0UAct4T8HeHfBNjdab4YtPsdteXdxfSJ5kkgNxdyGWZh5jNtDOSdq4UdgBXFeNfgZ8NPiH4kj8XeKdPuJdWitFsVuLbUb6yb7MkjyrGRazxKQHdjkgnnrgAD16igDO0jS7TQ9KstF08OtrYQR28IkkeVxHEoRd0khZ3OAMszFj1JJya0aKKACiiigAooooAKKKKACiiigAooooAKKKKACiiigAooooAKKKKACiiuQ+IF/qGl+BPEepaTn7daabeTQY6+bHCzJj/gQFAFy08U+HL6yi1G11KBrWcyCOQyBVfynMbFd2MqGUgMOD1GRg03QfF3hrxLZ2t/oOpQXsF6gkhMbgsy4z904YEDqCARyCMivmXxtpfhrw74c8JaktjIdH0vSLSO4vhbfaFtNPtU8xGUvDNAehEqMELI25XUqA0vwT1LwJ4ng0Kb+xZYvEmk3l1dPLHYCFrR7pbhUhuHRFK7becKFfHRTycUAe7p8Wfhm/wBoLeKNNiW12CVpbqOJVMhZU5cqPmKMB64NdXofiHQfE1l/aPh3UrbVLUMUMtpMk8e4AErvjJGRkcV8R6RrmqeHrV30W81SyvdT0m08q4itoRGHsLa+naIPeQSRyW0agO3lfMsspUvmRVXvPE2oN4j+FmqaPrWty3l0utaNZ3P9tQ2pgiAurS6YlLRbUPBJbN5p3ODtyu4EEUAfQmtfEHwj4d1ZdF1u/FpdFIJDvjk8tEuXkjiZ5QvloGeNlBZhzgHllDb2p65pOjz6fa6lcrBLqtx9ltVOS0s3lvLsUAHkRxux7AKSa/OSXQfBmqeKPDeheHtA8PajqPjBtT0+C9tLRFsYrbR79BNeCGSWbcDb+eqYkZWkUdq+gPiBZeK9O8S+GfHngPX9JuxqL2ek6Dp13pk11FBb3hjNxcwPDfQAsturzSOUb90gjUoC7OAfTel65pmtC6OmTrP9huJLWYDIMc8Jw6MCMgjg+4IIyCDSWOuaPqpj/sy+guxKhkXyZVk3IrFCw2k5UMCufUYrwf4eaR41j+MPi2813XLC4FvaWEd5Fp1hNZQ3c8qOY5ZI5ru52yxRoq+YjDzEKow/drjyfwh8QPBFh8LLDxtp0d1d614TttSgspraCbyry6vpnWPToZNu25aaURsI4ywVkVmK4oA+x7bxJoV5oaeJba9jfTJYTcJcA/I0KgsXHfAUE9Kl07X9H1a8vLDTbpbifT/K89VB+Tz4xLHkkY+ZCG47EZ618qeKbjSPDHwl8A2ujGfXNO0/Q7q0in063lu1dI9KeBZCY1IRCcZZyoGfmINcd4W8Nz2vxe0zwRrmom+1TW5U8VXd3DdPbK1lHam0jsPs6TA5jeO3ZSwYvGrjJCnAB9cX/wAU/hnpGpz6Lq3i7R7LULb/AFttNqFvHNH/ALyM4YfiK3W8VeHfOu4W1GBPsEMVxO7SBY44ppJIkYyH5eXhkXrkFee1fJ/xLsbzT/izJfXN74g02PVIhdpdwz6FDbx/2U1usCI106zfZ1e5kaVGdGcuygOjNjXsG1Tw74f+It6I2tL+w8MfaYhPCGKSJe61LE5jkUhh91hkEEdsUAe+r8VPhu2qvoi+JtO+2RwpcMn2mMDypGZQwbO08qcgEkcEgAjOtqXjHwto+mW+s6jqtvDY3biOGYyAxyuVZgEK53EqrHjsD6V8F2ekX154q07wnBeX0d3/AMJTeOLZ5NC8sSRRTyyMSts8275ZJgrWoh34UEHEzeseIvGPiW/8B+EtXsLNmutC0K38U3V5a3VvZvGZLSaGQRwzWdzE+5JJTtwuDjBFAH0voHjfwl4ouJrTw/qkN9NbKrypGcsisSASDg4JUjPtWva65pd5q17odtOHvtOjhluIgDmNbjf5WTjGW2McA5AwSACM/O/hLVvE+n/EwT6ol1q1jq15ceH4r+7u7QSRtYR3V1uFra2FuAGaJ1JaVuxHevNZPhzcHxp4iY6NfeKn0/xBYfab67sdCu4prWWCyub3zmmiF8zLFLKI0gXCqI0iXjFAH2zf6np2lpE+o3MVqs8qQRmV1jDyyHCIpYjLMeFXqTwKytP8W6DqkejS2Vz5ia/bfbLI7JB5sG1H3cqNvyyKcNg89OuPm5bjwx4d+HOtyvDN4d0a512aX7FDFY6XKtqT5cQMOq+QkSzGLzAdqyHrH/er5001NJXUtDtdS8Dtb+RYW0Wjm40LSZrvWImijhluGge9EjuJYy+FMhSNxI+FbNAH6J65478F+G7+20rX9dsdOv7xlWC2nuI45pS5wuyMtuYZB5A7E9BVfSPiJ4G8R6zJoHh3XbPVb2FHkkS0mW4EYQhWDtHuVGyw+ViGPJAwDXimqaP4q1H4oaprHht00u003+wft0kmoy2oigt5DcXMJt4oZYpibdivMqqC3BxzVf4TN4vh8P2Ojal4nksNOsPCOjXi7ra2VrV7yG5jJZ2QgiD7OrLvyCQd+RxQB6dL8fPgZBI0MvxE8OpIhIZW1ezBBHBBBlBBzXbS+LvDcehW3iaPUIbjSr1rdbe5gbz45jdyJDB5Zi3b/Md1VSuQcjtXzBY6v8UNav8Aw0dG8aaobTxFY6xe26TWGmRzTR2Lwrauha3CotykgkG8ZCsu7aciptQFv41svAd5qE9j4vgvE1Kb/ipYIIVili8pGjkihh8tZ7eQMhGzcGDDPFAH1Pa65pV7q99oVrOJL7TUhkuIwD+7W43+XlsbctsY4ByBgkAEZr3PibRbS8vtPmuCbnTLRL25jRHkaO3kMgRiFU53GJ9qj5jtOBXxR4d8DWmjeB/DusapottqsviC38M3MfiC4jha+true6srX7M8hAcIsUifZ/LAyEcOd5Dvt+NNBEWqeLE1mJPE2s6n4ggjsfMtIZGiiawMyW8QlstSCrHDEdx8oF2DPuUttoA+ztO1Cy1awttU02ZLm0vIkmhljO5JI5AGRlPcMpBBrzq3+Nvwiu9Zfw/a+MdKlvkjil2rdxFGWZ3RAsgbYzlkb5AxccEgBlJ8x+CqaD4Q0vxLqOt6bb+HptKijmupHtre3eO0CM+5zBpunfuxtY8q/Q8jpXzppWg/EFPC+n+DbqV822lxOzG91A28kFkyW9x5YOsPE/lSAKyC2IG5P3WGVaAP0S1XX9H0N7VNWuktWvXeOHeceY6RtMyr6kRozY64U+lXbC+tNTsoNRsZBLbXUaSxOMgMjgMpweeQe9eAfGyy8O+JPA0Ou2+q3kl5qcSQaFHYX80MV5e3g/0QqkLAOASHMmDsjDOflU45LQNAv/B3jPwRokF3rlk1vq97YSw3ep3F5ZX2nW+l3LxSxI7FAGYwsVC5jkRkyQFZgD6Mk8b+FI7WwvRqcM0GqRSz2rwEzCeKGMyu6eWG3KEGcj2AySAb8niXQok0qVr2Py9ckWKycHKTu8TTKEYccxozDnnHHOAfhbxhpOmap4zj17w1bvLpL23ieK0tX0uTULWOS3vLT7Vc2629zG6m4uZJS0pIUhVCx4G9+70axGl/s7Wd7Bax2l5bXOiXNqI7GWwJnintDCNk0sxkLt8hdSqupK7RzkA+yqKKKACiiigAooooAKKKKACiiigAooooAKKKKACiiigAooooAKKKKACiiigAooooA//Q/fyiiigAooooAKKKKACiiigAooooAKKKKACiiigAooooAKKKKACiiigAooooAKKKKACiiigAooooAKKKKACiiigAooooAKKKKACiiigAooooAKKKKACiiigAprosilHAZWGCDyCDTqKAPMtN+E3hC20rQ9I1WBtYg8NqI7FbtmkijSJswZhz5LyQqFVJWQuNuc5JrrLvwp4evtdsfE9zYxnVtODrBdKNsypIpVkLrgshznY2VyAcZAI6GigDib/4e+E9U8MjwjcWssWmrCbcC3uZ7adYWdXaNbiGRJgjlV3qHw4G1sjitSbwpoFxc2N3JZp5unXC3ULKNn75YWt1Z9uA5WNyq7s44I5AI6KigDzjXPhJ8PvEh1CXWdK8651OeK5muUnnhuhLAhjiMdxFIssQRGZQsbquHfj53zrWvgbwpZ6rHrcGnoL2C1WyhkZncwW6qF8uAMxEKkAbhGF3YBbJGa7GigDmfDfhDQfCa3n9ixSiTUJRNczXFxNdTzSKixqXmuHkkbaiKqgtgAcAUj+DfDUuuWPiOawSS/0uEwWbnJS2RshvJjzsjYqdpdVDFcKSVAFdPRQBzdv4Q8OWmnappFpZLDZ6zJcTXcSMyrJJd589gAflMhJLbcZYlvvEk4MHwp+H9tbC2i0ePIvY9R81mka4+1w/6uXz2Yy7lX5B8+An7vGwla9CooA42P4d+A4dZn8RReHdOGqXTF5bs2kRuJGJzlpSu8889etNf4feE5P+EhElmz/8JVEYNRLzzMZoisi+WCXPlriV8CPaAWJGCc12lFAHL3/g3w3fwzxG0+yNcuZJJrKR7K4Ls25m8+2aOUFj94hgWBIOQTXK6v8ABr4Y6/FYw634et75NMsk062EpdvJtY+FRMtxj+9973r1KigDzy1+E/w7svFQ8b2uhW8evLcTXQvRuM3nTxtFI24nnKOy46DPAGBVnUfhz4Y1LU7rWJDfWt1fMrztZalfWKzOiLEryJazxIz7EVdxG7aqjOAMd1RQBxVh8PvCum2GpafbW8zLrGftcs13cT3MuY/KGbmWR5htT5VIcFP4cGsiH4P/AA2h0caFHoUAtkaN1bLm4V4htjZbgt5ysgyFYOCASAcE16ZRQByreCvDUumatpE9kJrbXhi/WRnc3P7hLb94zMWbMMaIcnkDnqavS+H9GnuLy5uLOKZtRtorO4DrvSW3hMhSNkbKlQZpOMc7sHjFblFAHHr4H8Ox+LT438u4k1XyWt0Ml3cyQRROEDiG2eQ28Rfy03GONS2MsSSas6j4N8J6o0J1PR7S7EDzSIssKMqyXB3SttIxuc8scZJ5J5NdPRQBx+oeCPDWqX+naje2zs+lGI20SzzJao0DFomNsjiBmjJyjMhKkAgjAxV1n4eeEfEFybzVrN5JzdJe70uJ4W8+O3e1VwY5F6Quy46HOSN2DXdUUAcHp/w28F6dDf20GneZDqbQNcpPNLcCU2zbos+a78KecdD3Bqp/wqrwYtwJ/KvDGLkXgtjqV8bPzhL54P2QzmDAl+cLs257V6PRQBy9p4L8K2F5p9/Y6Xb28+kwPb2RSMKttFIcusKD5Y93AYqAWHBOKii8FeHl8TDxhJFNPqkayJE811cTRwLKFEghhkkaKIuEAYxopI4PfPW0UAcFqHwt+HWrJpcOqeG9PvINEt5bWygmt0kgt4ZzGZFSJgUG7yk525AGAQCc1pfhZ4NihsLHRNMtdFsLS/t9QltrG2ht4rmW0y1uJQijIjl2SrjB3RrzjIPo1FABRRRQAUUUUAFFFFABRRRQAUUUUAFFFFABRRRQAUUUUAFFFFABRRRQAUUUUAFFFFAH/9H9/KKKKACiiigAooooAKKKKACiiigAooooAKKKKACiiigAooooAKKKKACiiigAooooAKKKKACiiigAooooAKKKKACiiigAooooAKKKKACiiigAooooAKKKKACiiigAooooAKKKKACiiigAooooAKKKKACiiigAooooAKKKKACiiigAooooAKKKKACiiigAooooAKKKKACiiigAooooAKKKKACiiigAooooAKKKKACiiigAooooAKKKKACiiigAooooAKKKKACiiigD/9L9/KKKKACiiigAooooAKKKKACiiigAooooAKKKKACiiigAooooAKKKKACiiigAooooAKKKKACiiigAooooAKKKKACiiigAooooAKKKKACiiigAooooAKKKKACiiigAooooAKKKKACiiigAooooAKKKKACiiigAooooAKKKKACiiigAooooAKKKKACiiigAooooAKKKKACiiigAooooAKKKKACiiigAooooAKKKKACiiigAooooAKKKKACiiigAooooAKKKKACiiigD/9k=;" vertex="1" parent="1">
          <mxGeometry x="166.66" y="3020" width="306.67" height="370" as="geometry" />
        </mxCell>
        <mxCell id="rIvgRYuvJBHSXA2jkPJr-19" value="产品详情图/信息" style="text;html=1;align=center;verticalAlign=middle;resizable=0;points=[];autosize=1;strokeColor=none;fillColor=none;" vertex="1" parent="1">
          <mxGeometry x="260" y="2970" width="110" height="30" as="geometry" />
        </mxCell>
        <mxCell id="rIvgRYuvJBHSXA2jkPJr-20" value="&lt;font color=&quot;#000000&quot;&gt;模特海报&lt;/font&gt;" style="rounded=1;whiteSpace=wrap;html=1;fillColor=#f5f5f5;fontColor=#333333;strokeColor=#666666;" vertex="1" parent="1">
          <mxGeometry x="120" y="3430" width="390" height="290" as="geometry" />
        </mxCell>
      </root>
    </mxGraphModel>
  </diagram>
</mxfile>
